<?xml version="1.0" encoding="utf-8" standalone="no"?>
<!DOCTYPE svg PUBLIC "-//W3C//DTD SVG 1.1//EN"
  "http://www.w3.org/Graphics/SVG/1.1/DTD/svg11.dtd">
<svg xmlns:xlink="http://www.w3.org/1999/xlink" width="846pt" height="867.196875pt" viewBox="0 0 846 867.196875" xmlns="http://www.w3.org/2000/svg" version="1.1">
 <metadata>
  <rdf:RDF xmlns:dc="http://purl.org/dc/elements/1.1/" xmlns:cc="http://creativecommons.org/ns#" xmlns:rdf="http://www.w3.org/1999/02/22-rdf-syntax-ns#">
   <cc:Work>
    <dc:type rdf:resource="http://purl.org/dc/dcmitype/StillImage"/>
    <dc:date>2026-06-01T16:53:14.973879</dc:date>
    <dc:format>image/svg+xml</dc:format>
    <dc:creator>
     <cc:Agent>
      <dc:title>Matplotlib v3.10.9, https://matplotlib.org/</dc:title>
     </cc:Agent>
    </dc:creator>
   </cc:Work>
  </rdf:RDF>
 </metadata>
 <defs>
  <style type="text/css">*{stroke-linejoin: round; stroke-linecap: butt}</style>
 </defs>
 <g id="figure_1">
  <g id="patch_1">
   <path d="M 0 867.196875 
L 846 867.196875 
L 846 0 
L 0 0 
z
" style="fill: #ffffff"/>
  </g>
  <g id="patch_2">
   <path d="M 7.2 859.996875 
L 838.8 859.996875 
L 838.8 28.396875 
L 7.2 28.396875 
z
" style="fill: #ffffff"/>
  </g>
  <g id="pane3d_1">
   <g id="patch_3">
    <path d="M 96.476709 696.476362 
L 350.791707 540.243074 
L 347.80615 102.209941 
L 83.266895 223.763839 
" style="fill: #f2f2f2; opacity: 0.5; stroke: #f2f2f2; stroke-linejoin: miter"/>
   </g>
  </g>
  <g id="pane3d_2">
   <g id="patch_4">
    <path d="M 350.791707 540.243074 
L 759.629284 626.907652 
L 771.871726 169.540985 
L 347.80615 102.209941 
" style="fill: #e6e6e6; opacity: 0.5; stroke: #e6e6e6; stroke-linejoin: miter"/>
   </g>
  </g>
  <g id="pane3d_3">
   <g id="patch_5">
    <path d="M 96.476709 696.476362 
L 530.109003 799.830284 
L 759.629284 626.907652 
L 350.791707 540.243074 
" style="fill: #ececec; opacity: 0.5; stroke: #ececec; stroke-linejoin: miter"/>
   </g>
  </g>
  <g id="grid3d_1">
   <g id="Line3DCollection_1">
    <path d="M 96.476709 696.476362 
L 350.791707 540.243074 
L 347.80615 102.209941 
" style="fill: none; stroke: #b0b0b0; stroke-width: 0.8"/>
    <path d="M 148.217526 708.808507 
L 399.766169 550.624583 
L 398.525224 110.262866 
" style="fill: none; stroke: #b0b0b0; stroke-width: 0.8"/>
    <path d="M 200.634527 721.301817 
L 449.327394 561.130473 
L 449.873975 118.415767 
" style="fill: none; stroke: #b0b0b0; stroke-width: 0.8"/>
    <path d="M 253.741056 733.959472 
L 499.485989 571.762993 
L 501.8642 126.670519 
" style="fill: none; stroke: #b0b0b0; stroke-width: 0.8"/>
    <path d="M 307.550808 746.784736 
L 550.252822 582.524445 
L 554.507995 135.029042 
" style="fill: none; stroke: #b0b0b0; stroke-width: 0.8"/>
    <path d="M 362.077844 759.780962 
L 601.639021 593.417189 
L 607.817764 143.493304 
" style="fill: none; stroke: #b0b0b0; stroke-width: 0.8"/>
    <path d="M 417.336602 772.951589 
L 653.655992 604.443644 
L 661.806223 152.065326 
" style="fill: none; stroke: #b0b0b0; stroke-width: 0.8"/>
    <path d="M 473.341911 786.300153 
L 706.315421 615.606285 
L 716.486417 160.747178 
" style="fill: none; stroke: #b0b0b0; stroke-width: 0.8"/>
    <path d="M 530.109003 799.830284 
L 759.629284 626.907652 
L 771.871726 169.540985 
" style="fill: none; stroke: #b0b0b0; stroke-width: 0.8"/>
   </g>
  </g>
  <g id="grid3d_2">
   <g id="Line3DCollection_2">
    <path d="M 111.917417 210.599129 
L 123.941135 679.604146 
L 554.994644 781.08122 
" style="fill: none; stroke: #b0b0b0; stroke-width: 0.8"/>
    <path d="M 167.661203 184.985257 
L 177.43191 646.743167 
L 603.393936 744.61676 
" style="fill: none; stroke: #b0b0b0; stroke-width: 0.8"/>
    <path d="M 221.421017 160.283007 
L 229.087482 615.009609 
L 650.046438 709.468348 
" style="fill: none; stroke: #b0b0b0; stroke-width: 0.8"/>
    <path d="M 273.300924 136.44456 
L 279.000703 584.346428 
L 695.045039 675.565999 
" style="fill: none; stroke: #b0b0b0; stroke-width: 0.8"/>
    <path d="M 323.397837 113.425386 
L 327.258265 554.700368 
L 738.476158 642.844607 
" style="fill: none; stroke: #b0b0b0; stroke-width: 0.8"/>
   </g>
  </g>
  <g id="grid3d_3">
   <g id="Line3DCollection_3">
    <path d="M 759.629284 626.907652 
L 350.791707 540.243074 
L 96.476709 696.476362 
" style="fill: none; stroke: #b0b0b0; stroke-width: 0.8"/>
    <path d="M 761.110816 571.558941 
L 350.429841 487.15103 
L 94.88012 639.342485 
" style="fill: none; stroke: #b0b0b0; stroke-width: 0.8"/>
    <path d="M 762.605901 515.70391 
L 350.064822 433.596511 
L 93.268364 581.665903 
" style="fill: none; stroke: #b0b0b0; stroke-width: 0.8"/>
    <path d="M 764.114725 459.335581 
L 349.696611 379.573448 
L 91.641226 523.438844 
" style="fill: none; stroke: #b0b0b0; stroke-width: 0.8"/>
    <path d="M 765.637479 402.446845 
L 349.325163 325.075665 
L 89.998484 464.65339 
" style="fill: none; stroke: #b0b0b0; stroke-width: 0.8"/>
    <path d="M 767.174357 345.030462 
L 348.950438 270.096876 
L 88.339911 405.301471 
" style="fill: none; stroke: #b0b0b0; stroke-width: 0.8"/>
    <path d="M 768.725556 287.079057 
L 348.57239 214.630685 
L 86.66528 345.374858 
" style="fill: none; stroke: #b0b0b0; stroke-width: 0.8"/>
    <path d="M 770.291277 228.585116 
L 348.190975 158.670582 
L 84.974354 284.865165 
" style="fill: none; stroke: #b0b0b0; stroke-width: 0.8"/>
    <path d="M 771.871726 169.540985 
L 347.80615 102.209941 
L 83.266895 223.763839 
" style="fill: none; stroke: #b0b0b0; stroke-width: 0.8"/>
   </g>
  </g>
  <g id="axis3d_1">
   <g id="line2d_1">
    <path d="M 96.476709 696.476362 
L 530.109003 799.830284 
" style="fill: none; stroke: #000000; stroke-width: 0.8; stroke-linecap: square"/>
   </g>
   <g id="xtick_1">
    <g id="line2d_2">
     <path d="M 98.691965 695.115464 
L 92.036655 699.204019 
" style="fill: none; stroke: #000000; stroke-width: 0.8; stroke-linecap: square"/>
    </g>
    <g id="text_1">
     <!-- −1.00 -->
     <g transform="translate(64.930803 725.255427) scale(0.16 -0.16)">
      <defs>
       <path id="DejaVuSans-2212" d="M 678 2272 
L 4684 2272 
L 4684 1741 
L 678 1741 
L 678 2272 
z
" transform="scale(0.015625)"/>
       <path id="DejaVuSans-31" d="M 794 531 
L 1825 531 
L 1825 4091 
L 703 3866 
L 703 4441 
L 1819 4666 
L 2450 4666 
L 2450 531 
L 3481 531 
L 3481 0 
L 794 0 
L 794 531 
z
" transform="scale(0.015625)"/>
       <path id="DejaVuSans-2e" d="M 684 794 
L 1344 794 
L 1344 0 
L 684 0 
L 684 794 
z
" transform="scale(0.015625)"/>
       <path id="DejaVuSans-30" d="M 2034 4250 
Q 1547 4250 1301 3770 
Q 1056 3291 1056 2328 
Q 1056 1369 1301 889 
Q 1547 409 2034 409 
Q 2525 409 2770 889 
Q 3016 1369 3016 2328 
Q 3016 3291 2770 3770 
Q 2525 4250 2034 4250 
z
M 2034 4750 
Q 2819 4750 3233 4129 
Q 3647 3509 3647 2328 
Q 3647 1150 3233 529 
Q 2819 -91 2034 -91 
Q 1250 -91 836 529 
Q 422 1150 422 2328 
Q 422 3509 836 4129 
Q 1250 4750 2034 4750 
z
" transform="scale(0.015625)"/>
      </defs>
      <use xlink:href="#DejaVuSans-2212"/>
      <use xlink:href="#DejaVuSans-31" transform="translate(83.789062 0)"/>
      <use xlink:href="#DejaVuSans-2e" transform="translate(147.412109 0)"/>
      <use xlink:href="#DejaVuSans-30" transform="translate(179.199219 0)"/>
      <use xlink:href="#DejaVuSans-30" transform="translate(242.822266 0)"/>
     </g>
    </g>
   </g>
   <g id="xtick_2">
    <g id="line2d_3">
     <path d="M 150.409844 707.429888 
L 143.823383 711.571721 
" style="fill: none; stroke: #000000; stroke-width: 0.8; stroke-linecap: square"/>
    </g>
    <g id="text_2">
     <!-- −0.75 -->
     <g transform="translate(116.697889 737.712781) scale(0.16 -0.16)">
      <defs>
       <path id="DejaVuSans-37" d="M 525 4666 
L 3525 4666 
L 3525 4397 
L 1831 0 
L 1172 0 
L 2766 4134 
L 525 4134 
L 525 4666 
z
" transform="scale(0.015625)"/>
       <path id="DejaVuSans-35" d="M 691 4666 
L 3169 4666 
L 3169 4134 
L 1269 4134 
L 1269 2991 
Q 1406 3038 1543 3061 
Q 1681 3084 1819 3084 
Q 2600 3084 3056 2656 
Q 3513 2228 3513 1497 
Q 3513 744 3044 326 
Q 2575 -91 1722 -91 
Q 1428 -91 1123 -41 
Q 819 9 494 109 
L 494 744 
Q 775 591 1075 516 
Q 1375 441 1709 441 
Q 2250 441 2565 725 
Q 2881 1009 2881 1497 
Q 2881 1984 2565 2268 
Q 2250 2553 1709 2553 
Q 1456 2553 1204 2497 
Q 953 2441 691 2322 
L 691 4666 
z
" transform="scale(0.015625)"/>
      </defs>
      <use xlink:href="#DejaVuSans-2212"/>
      <use xlink:href="#DejaVuSans-30" transform="translate(83.789062 0)"/>
      <use xlink:href="#DejaVuSans-2e" transform="translate(147.412109 0)"/>
      <use xlink:href="#DejaVuSans-37" transform="translate(179.199219 0)"/>
      <use xlink:href="#DejaVuSans-35" transform="translate(242.822266 0)"/>
     </g>
    </g>
   </g>
   <g id="xtick_3">
    <g id="line2d_4">
     <path d="M 202.803118 719.905129 
L 196.287881 724.101287 
" style="fill: none; stroke: #000000; stroke-width: 0.8; stroke-linecap: square"/>
    </g>
    <g id="text_3">
     <!-- −0.50 -->
     <g transform="translate(169.14245 750.333165) scale(0.16 -0.16)">
      <use xlink:href="#DejaVuSans-2212"/>
      <use xlink:href="#DejaVuSans-30" transform="translate(83.789062 0)"/>
      <use xlink:href="#DejaVuSans-2e" transform="translate(147.412109 0)"/>
      <use xlink:href="#DejaVuSans-35" transform="translate(179.199219 0)"/>
      <use xlink:href="#DejaVuSans-30" transform="translate(242.822266 0)"/>
     </g>
    </g>
   </g>
   <g id="xtick_4">
    <g id="line2d_5">
     <path d="M 255.885104 732.544358 
L 249.443541 736.795916 
" style="fill: none; stroke: #000000; stroke-width: 0.8; stroke-linecap: square"/>
    </g>
    <g id="text_4">
     <!-- −0.25 -->
     <g transform="translate(222.277874 763.119799) scale(0.16 -0.16)">
      <defs>
       <path id="DejaVuSans-32" d="M 1228 531 
L 3431 531 
L 3431 0 
L 469 0 
L 469 531 
Q 828 903 1448 1529 
Q 2069 2156 2228 2338 
Q 2531 2678 2651 2914 
Q 2772 3150 2772 3378 
Q 2772 3750 2511 3984 
Q 2250 4219 1831 4219 
Q 1534 4219 1204 4116 
Q 875 4013 500 3803 
L 500 4441 
Q 881 4594 1212 4672 
Q 1544 4750 1819 4750 
Q 2544 4750 2975 4387 
Q 3406 4025 3406 3419 
Q 3406 3131 3298 2873 
Q 3191 2616 2906 2266 
Q 2828 2175 2409 1742 
Q 1991 1309 1228 531 
z
" transform="scale(0.015625)"/>
      </defs>
      <use xlink:href="#DejaVuSans-2212"/>
      <use xlink:href="#DejaVuSans-30" transform="translate(83.789062 0)"/>
      <use xlink:href="#DejaVuSans-2e" transform="translate(147.412109 0)"/>
      <use xlink:href="#DejaVuSans-32" transform="translate(179.199219 0)"/>
      <use xlink:href="#DejaVuSans-35" transform="translate(242.822266 0)"/>
     </g>
    </g>
   </g>
   <g id="xtick_5">
    <g id="line2d_6">
     <path d="M 309.669471 745.350829 
L 303.304112 749.658892 
" style="fill: none; stroke: #000000; stroke-width: 0.8; stroke-linecap: square"/>
    </g>
    <g id="text_5">
     <!-- 0.00 -->
     <g transform="translate(282.821651 776.075991) scale(0.16 -0.16)">
      <use xlink:href="#DejaVuSans-30"/>
      <use xlink:href="#DejaVuSans-2e" transform="translate(63.623047 0)"/>
      <use xlink:href="#DejaVuSans-30" transform="translate(95.410156 0)"/>
      <use xlink:href="#DejaVuSans-30" transform="translate(159.033203 0)"/>
     </g>
    </g>
   </g>
   <g id="xtick_6">
    <g id="line2d_7">
     <path d="M 364.170253 758.327884 
L 357.883711 762.693586 
" style="fill: none; stroke: #000000; stroke-width: 0.8; stroke-linecap: square"/>
    </g>
    <g id="text_6">
     <!-- 0.25 -->
     <g transform="translate(337.380391 789.205136) scale(0.16 -0.16)">
      <use xlink:href="#DejaVuSans-30"/>
      <use xlink:href="#DejaVuSans-2e" transform="translate(63.623047 0)"/>
      <use xlink:href="#DejaVuSans-32" transform="translate(95.410156 0)"/>
      <use xlink:href="#DejaVuSans-35" transform="translate(159.033203 0)"/>
     </g>
    </g>
   </g>
   <g id="xtick_7">
    <g id="line2d_8">
     <path d="M 419.40186 771.478953 
L 413.196831 775.90346 
" style="fill: none; stroke: #000000; stroke-width: 0.8; stroke-linecap: square"/>
    </g>
    <g id="text_7">
     <!-- 0.50 -->
     <g transform="translate(392.672332 802.51072) scale(0.16 -0.16)">
      <use xlink:href="#DejaVuSans-30"/>
      <use xlink:href="#DejaVuSans-2e" transform="translate(63.623047 0)"/>
      <use xlink:href="#DejaVuSans-35" transform="translate(95.410156 0)"/>
      <use xlink:href="#DejaVuSans-30" transform="translate(159.033203 0)"/>
     </g>
    </g>
   </g>
   <g id="xtick_8">
    <g id="line2d_9">
     <path d="M 475.379091 784.807562 
L 469.25836 789.292069 
" style="fill: none; stroke: #000000; stroke-width: 0.8; stroke-linecap: square"/>
    </g>
    <g id="text_8">
     <!-- 0.75 -->
     <g transform="translate(448.712352 815.996323) scale(0.16 -0.16)">
      <use xlink:href="#DejaVuSans-30"/>
      <use xlink:href="#DejaVuSans-2e" transform="translate(63.623047 0)"/>
      <use xlink:href="#DejaVuSans-37" transform="translate(95.410156 0)"/>
      <use xlink:href="#DejaVuSans-35" transform="translate(159.033203 0)"/>
     </g>
    </g>
   </g>
   <g id="xtick_9">
    <g id="line2d_10">
     <path d="M 532.117148 798.317329 
L 526.083591 802.863065 
" style="fill: none; stroke: #000000; stroke-width: 0.8; stroke-linecap: square"/>
    </g>
    <g id="text_9">
     <!-- 1.00 -->
     <g transform="translate(505.515739 829.665625) scale(0.16 -0.16)">
      <use xlink:href="#DejaVuSans-31"/>
      <use xlink:href="#DejaVuSans-2e" transform="translate(63.623047 0)"/>
      <use xlink:href="#DejaVuSans-30" transform="translate(95.410156 0)"/>
      <use xlink:href="#DejaVuSans-30" transform="translate(159.033203 0)"/>
     </g>
    </g>
   </g>
   <g id="text_10">
    <!-- $Ψ_i(x,t)$ -->
    <g transform="translate(262.156691 791.256604) rotate(-346.593981) scale(0.16 -0.16)">
     <defs>
      <path id="DejaVuSans-3a8" d="M 2206 0 
Q 2209 419 2206 969 
Q 1538 969 950 1625 
Q 375 2263 359 3388 
L 359 4666 
L 1025 4666 
L 1025 3388 
Q 1025 2506 1431 1994 
Q 1775 1556 2206 1513 
L 2206 4666 
L 2838 4666 
L 2838 1513 
Q 3269 1556 3613 1994 
Q 4019 2506 4019 3388 
L 4019 4666 
L 4684 4666 
L 4684 3388 
Q 4669 2263 4094 1625 
Q 3506 969 2838 969 
Q 2834 744 2838 0 
L 2206 0 
z
" transform="scale(0.015625)"/>
      <path id="DejaVuSans-Oblique-69" d="M 1172 4863 
L 1747 4863 
L 1606 4134 
L 1031 4134 
L 1172 4863 
z
M 909 3500 
L 1484 3500 
L 800 0 
L 225 0 
L 909 3500 
z
" transform="scale(0.015625)"/>
      <path id="DejaVuSans-28" d="M 1984 4856 
Q 1566 4138 1362 3434 
Q 1159 2731 1159 2009 
Q 1159 1288 1364 580 
Q 1569 -128 1984 -844 
L 1484 -844 
Q 1016 -109 783 600 
Q 550 1309 550 2009 
Q 550 2706 781 3412 
Q 1013 4119 1484 4856 
L 1984 4856 
z
" transform="scale(0.015625)"/>
      <path id="DejaVuSans-Oblique-78" d="M 3841 3500 
L 2234 1784 
L 3219 0 
L 2559 0 
L 1819 1388 
L 531 0 
L -166 0 
L 1556 1844 
L 641 3500 
L 1300 3500 
L 1972 2234 
L 3144 3500 
L 3841 3500 
z
" transform="scale(0.015625)"/>
      <path id="DejaVuSans-2c" d="M 750 794 
L 1409 794 
L 1409 256 
L 897 -744 
L 494 -744 
L 750 256 
L 750 794 
z
" transform="scale(0.015625)"/>
      <path id="DejaVuSans-Oblique-74" d="M 2706 3500 
L 2619 3053 
L 1472 3053 
L 1100 1153 
Q 1081 1047 1072 975 
Q 1063 903 1063 863 
Q 1063 663 1183 572 
Q 1303 481 1569 481 
L 2150 481 
L 2053 0 
L 1503 0 
Q 991 0 739 200 
Q 488 400 488 806 
Q 488 878 497 964 
Q 506 1050 525 1153 
L 897 3053 
L 409 3053 
L 500 3500 
L 978 3500 
L 1172 4494 
L 1747 4494 
L 1556 3500 
L 2706 3500 
z
" transform="scale(0.015625)"/>
      <path id="DejaVuSans-29" d="M 513 4856 
L 1013 4856 
Q 1481 4119 1714 3412 
Q 1947 2706 1947 2009 
Q 1947 1309 1714 600 
Q 1481 -109 1013 -844 
L 513 -844 
Q 928 -128 1133 580 
Q 1338 1288 1338 2009 
Q 1338 2731 1133 3434 
Q 928 4138 513 4856 
z
" transform="scale(0.015625)"/>
     </defs>
     <use xlink:href="#DejaVuSans-3a8" transform="translate(0 0.125)"/>
     <use xlink:href="#DejaVuSans-Oblique-69" transform="translate(79.667969 -16.28125) scale(0.7)"/>
     <use xlink:href="#DejaVuSans-28" transform="translate(101.850586 0.125)"/>
     <use xlink:href="#DejaVuSans-Oblique-78" transform="translate(140.864258 0.125)"/>
     <use xlink:href="#DejaVuSans-2c" transform="translate(200.043945 0.125)"/>
     <use xlink:href="#DejaVuSans-Oblique-74" transform="translate(251.313477 0.125)"/>
     <use xlink:href="#DejaVuSans-29" transform="translate(290.522461 0.125)"/>
    </g>
   </g>
  </g>
  <g id="axis3d_2">
   <g id="line2d_11">
    <path d="M 759.629284 626.907652 
L 530.109003 799.830284 
" style="fill: none; stroke: #000000; stroke-width: 0.8; stroke-linecap: square"/>
   </g>
   <g id="xtick_10">
    <g id="line2d_12">
     <path d="M 551.361916 780.226016 
L 562.269504 782.793841 
" style="fill: none; stroke: #000000; stroke-width: 0.8; stroke-linecap: square"/>
    </g>
    <g id="text_11">
     <!-- −4 -->
     <g transform="translate(555.141335 808.612581) scale(0.16 -0.16)">
      <defs>
       <path id="DejaVuSans-34" d="M 2419 4116 
L 825 1625 
L 2419 1625 
L 2419 4116 
z
M 2253 4666 
L 3047 4666 
L 3047 1625 
L 3713 1625 
L 3713 1100 
L 3047 1100 
L 3047 0 
L 2419 0 
L 2419 1100 
L 313 1100 
L 313 1709 
L 2253 4666 
z
" transform="scale(0.015625)"/>
      </defs>
      <use xlink:href="#DejaVuSans-2212"/>
      <use xlink:href="#DejaVuSans-34" transform="translate(83.789062 0)"/>
     </g>
    </g>
   </g>
   <g id="xtick_11">
    <g id="line2d_13">
     <path d="M 599.807463 743.792693 
L 610.575998 746.266987 
" style="fill: none; stroke: #000000; stroke-width: 0.8; stroke-linecap: square"/>
    </g>
    <g id="text_12">
     <!-- −2 -->
     <g transform="translate(603.339516 771.851619) scale(0.16 -0.16)">
      <use xlink:href="#DejaVuSans-2212"/>
      <use xlink:href="#DejaVuSans-32" transform="translate(83.789062 0)"/>
     </g>
    </g>
   </g>
   <g id="xtick_12">
    <g id="line2d_14">
     <path d="M 646.505277 708.673748 
L 657.1376 711.059529 
" style="fill: none; stroke: #000000; stroke-width: 0.8; stroke-linecap: square"/>
    </g>
    <g id="text_13">
     <!-- 0 -->
     <g transform="translate(656.501266 736.417901) scale(0.16 -0.16)">
      <use xlink:href="#DejaVuSans-30"/>
     </g>
    </g>
   </g>
   <g id="xtick_13">
    <g id="line2d_15">
     <path d="M 691.548258 674.799315 
L 702.047174 677.101248 
" style="fill: none; stroke: #000000; stroke-width: 0.8; stroke-linecap: square"/>
    </g>
    <g id="text_14">
     <!-- 2 -->
     <g transform="translate(701.311655 702.240821) scale(0.16 -0.16)">
      <use xlink:href="#DejaVuSans-32"/>
     </g>
    </g>
   </g>
   <g id="xtick_14">
    <g id="line2d_16">
     <path d="M 735.02284 642.104391 
L 745.391111 644.326821 
" style="fill: none; stroke: #000000; stroke-width: 0.8; stroke-linecap: square"/>
    </g>
    <g id="text_15">
     <!-- 4 -->
     <g transform="translate(744.560556 669.254697) scale(0.16 -0.16)">
      <use xlink:href="#DejaVuSans-34"/>
     </g>
    </g>
   </g>
   <g id="text_16">
    <!-- x$\left[\sqrt{\frac{\hbar}{m\omega}}\right]$ -->
    <g transform="translate(661.178907 775.059482) rotate(-36.994697) scale(0.16 -0.16)">
     <defs>
      <path id="DejaVuSans-78" d="M 3513 3500 
L 2247 1797 
L 3578 0 
L 2900 0 
L 1881 1375 
L 863 0 
L 184 0 
L 1544 1831 
L 300 3500 
L 978 3500 
L 1906 2253 
L 2834 3500 
L 3513 3500 
z
" transform="scale(0.015625)"/>
      <path id="STIXSizeTwoSym-Regular-5b" d="M 2701 -1786 
L 1216 -1786 
L 1216 10022 
L 2701 10022 
L 2701 9766 
L 1702 9766 
L 1702 -1530 
L 2701 -1530 
L 2701 -1786 
z
" transform="scale(0.015625)"/>
      <path id="STIXSizeOneSym-Regular-221a" d="M 6970 9933 
L 3373 -1888 
L 3104 -1888 
L 1626 2918 
Q 1555 3149 1465 3251 
Q 1376 3354 1229 3354 
Q 1011 3354 794 3181 
L 717 3309 
L 1766 4115 
L 1926 4115 
L 3379 -602 
L 3405 -602 
L 6605 9933 
L 6970 9933 
z
" transform="scale(0.015625)"/>
      <path id="DejaVuSans-Oblique-127" d="M 3634 2113 
L 3225 0 
L 2650 0 
L 3056 2094 
Q 3094 2291 3094 2450 
Q 3094 2688 3006 2838 
Q 2863 3084 2475 3084 
Q 2009 3084 1681 2788 
Q 1356 2491 1256 1978 
L 872 0 
L 294 0 
L 1066 3969 
L 675 3969 
L 775 4481 
L 1166 4481 
L 1238 4863 
L 1816 4863 
L 1744 4481 
L 2844 4481 
L 2744 3969 
L 1644 3969 
L 1447 2956 
Q 1713 3272 2025 3428 
Q 2331 3584 2700 3584 
Q 3300 3584 3538 3213 
Q 3688 2975 3688 2606 
Q 3688 2381 3634 2113 
z
" transform="scale(0.015625)"/>
      <path id="DejaVuSans-Oblique-6d" d="M 5747 2113 
L 5338 0 
L 4763 0 
L 5166 2094 
Q 5191 2228 5203 2325 
Q 5216 2422 5216 2491 
Q 5216 2772 5059 2928 
Q 4903 3084 4622 3084 
Q 4203 3084 3875 2770 
Q 3547 2456 3450 1953 
L 3066 0 
L 2491 0 
L 2900 2094 
Q 2925 2209 2937 2307 
Q 2950 2406 2950 2484 
Q 2950 2769 2794 2926 
Q 2638 3084 2363 3084 
Q 1938 3084 1609 2770 
Q 1281 2456 1184 1953 
L 800 0 
L 225 0 
L 909 3500 
L 1484 3500 
L 1375 2956 
Q 1609 3263 1923 3423 
Q 2238 3584 2597 3584 
Q 2978 3584 3223 3384 
Q 3469 3184 3519 2828 
Q 3781 3197 4126 3390 
Q 4472 3584 4856 3584 
Q 5306 3584 5551 3325 
Q 5797 3066 5797 2591 
Q 5797 2488 5784 2364 
Q 5772 2241 5747 2113 
z
" transform="scale(0.015625)"/>
      <path id="DejaVuSans-Oblique-3c9" d="M 1369 -91 
Q 72 -91 434 1766 
Q 575 2500 1256 3500 
L 1875 3500 
Q 1231 2500 1088 1750 
Q 819 397 1519 397 
Q 2166 397 2478 2078 
L 3009 2078 
Q 2669 388 3316 397 
Q 4013 403 4275 1750 
Q 4419 2500 4169 3500 
L 4788 3500 
Q 5075 2500 4934 1766 
Q 4578 -94 3278 -91 
Q 2428 -88 2503 844 
Q 2194 -91 1369 -91 
z
" transform="scale(0.015625)"/>
      <path id="STIXSizeTwoSym-Regular-5d" d="M 1722 -1786 
L 237 -1786 
L 237 -1530 
L 1235 -1530 
L 1235 9766 
L 237 9766 
L 237 10022 
L 1722 10022 
L 1722 -1786 
z
" transform="scale(0.015625)"/>
     </defs>
     <use xlink:href="#DejaVuSans-78" transform="translate(0 0.525)"/>
     <use xlink:href="#STIXSizeTwoSym-Regular-5b" transform="translate(59.179688 -2.890625) scale(0.873476)"/>
     <use xlink:href="#STIXSizeOneSym-Regular-221a" transform="translate(99.284805 -2.375) scale(0.84415)"/>
     <use xlink:href="#DejaVuSans-Oblique-127" transform="translate(239.969162 44.560937) scale(0.7)"/>
     <use xlink:href="#DejaVuSans-Oblique-6d" transform="translate(200.969162 -25.889062) scale(0.7)"/>
     <use xlink:href="#DejaVuSans-Oblique-3c9" transform="translate(269.157639 -25.889062) scale(0.7)"/>
     <use xlink:href="#STIXSizeTwoSym-Regular-5d" transform="translate(352.775803 -2.890625) scale(0.873476)"/>
     <path d="M 188.469162 121.5 
L 188.469162 127.75 
L 352.775803 127.75 
L 352.775803 121.5 
L 188.469162 121.5 
z
"/>
     <path d="M 200.969162 19.560937 
L 200.969162 25.810937 
L 327.775803 25.810937 
L 327.775803 19.560937 
L 200.969162 19.560937 
z
"/>
    </g>
   </g>
  </g>
  <g id="axis3d_3">
   <g id="line2d_17">
    <path d="M 759.629284 626.907652 
L 771.871726 169.540985 
" style="fill: none; stroke: #000000; stroke-width: 0.8; stroke-linecap: square"/>
   </g>
   <g id="xtick_15">
    <g id="line2d_18">
     <path d="M 756.19736 626.180159 
L 766.501329 628.364374 
" style="fill: none; stroke: #000000; stroke-width: 0.8; stroke-linecap: square"/>
    </g>
    <g id="text_17">
     <!-- −1.00 -->
     <g transform="translate(768.972549 635.513084) scale(0.16 -0.16)">
      <use xlink:href="#DejaVuSans-2212"/>
      <use xlink:href="#DejaVuSans-31" transform="translate(83.789062 0)"/>
      <use xlink:href="#DejaVuSans-2e" transform="translate(147.412109 0)"/>
      <use xlink:href="#DejaVuSans-30" transform="translate(179.199219 0)"/>
      <use xlink:href="#DejaVuSans-30" transform="translate(242.822266 0)"/>
     </g>
    </g>
   </g>
   <g id="xtick_16">
    <g id="line2d_19">
     <path d="M 757.66268 570.85024 
L 768.015359 572.978042 
" style="fill: none; stroke: #000000; stroke-width: 0.8; stroke-linecap: square"/>
    </g>
    <g id="text_18">
     <!-- −0.75 -->
     <g transform="translate(770.605057 580.25615) scale(0.16 -0.16)">
      <use xlink:href="#DejaVuSans-2212"/>
      <use xlink:href="#DejaVuSans-30" transform="translate(83.789062 0)"/>
      <use xlink:href="#DejaVuSans-2e" transform="translate(147.412109 0)"/>
      <use xlink:href="#DejaVuSans-37" transform="translate(179.199219 0)"/>
      <use xlink:href="#DejaVuSans-35" transform="translate(242.822266 0)"/>
     </g>
    </g>
   </g>
   <g id="xtick_17">
    <g id="line2d_20">
     <path d="M 759.1414 515.014376 
L 769.543251 517.08464 
" style="fill: none; stroke: #000000; stroke-width: 0.8; stroke-linecap: square"/>
    </g>
    <g id="text_19">
     <!-- −0.50 -->
     <g transform="translate(772.252469 524.494727) scale(0.16 -0.16)">
      <use xlink:href="#DejaVuSans-2212"/>
      <use xlink:href="#DejaVuSans-30" transform="translate(83.789062 0)"/>
      <use xlink:href="#DejaVuSans-2e" transform="translate(147.412109 0)"/>
      <use xlink:href="#DejaVuSans-35" transform="translate(179.199219 0)"/>
      <use xlink:href="#DejaVuSans-30" transform="translate(242.822266 0)"/>
     </g>
    </g>
   </g>
   <g id="xtick_18">
    <g id="line2d_21">
     <path d="M 760.633704 458.665597 
L 771.085195 460.677172 
" style="fill: none; stroke: #000000; stroke-width: 0.8; stroke-linecap: square"/>
    </g>
    <g id="text_20">
     <!-- −0.25 -->
     <g transform="translate(773.914991 468.221873) scale(0.16 -0.16)">
      <use xlink:href="#DejaVuSans-2212"/>
      <use xlink:href="#DejaVuSans-30" transform="translate(83.789062 0)"/>
      <use xlink:href="#DejaVuSans-2e" transform="translate(147.412109 0)"/>
      <use xlink:href="#DejaVuSans-32" transform="translate(179.199219 0)"/>
      <use xlink:href="#DejaVuSans-35" transform="translate(242.822266 0)"/>
     </g>
    </g>
   </g>
   <g id="xtick_19">
    <g id="line2d_22">
     <path d="M 762.139779 401.796801 
L 772.641387 403.748514 
" style="fill: none; stroke: #000000; stroke-width: 0.8; stroke-linecap: square"/>
    </g>
    <g id="text_21">
     <!-- 0.00 -->
     <g transform="translate(782.296582 411.430521) scale(0.16 -0.16)">
      <use xlink:href="#DejaVuSans-30"/>
      <use xlink:href="#DejaVuSans-2e" transform="translate(63.623047 0)"/>
      <use xlink:href="#DejaVuSans-30" transform="translate(95.410156 0)"/>
      <use xlink:href="#DejaVuSans-30" transform="translate(159.033203 0)"/>
     </g>
    </g>
   </g>
   <g id="xtick_20">
    <g id="line2d_23">
     <path d="M 763.659818 344.400759 
L 774.212024 346.291408 
" style="fill: none; stroke: #000000; stroke-width: 0.8; stroke-linecap: square"/>
    </g>
    <g id="text_22">
     <!-- 0.25 -->
     <g transform="translate(783.989953 354.113471) scale(0.16 -0.16)">
      <use xlink:href="#DejaVuSans-30"/>
      <use xlink:href="#DejaVuSans-2e" transform="translate(63.623047 0)"/>
      <use xlink:href="#DejaVuSans-32" transform="translate(95.410156 0)"/>
      <use xlink:href="#DejaVuSans-35" transform="translate(159.033203 0)"/>
     </g>
    </g>
   </g>
   <g id="xtick_21">
    <g id="line2d_24">
     <path d="M 765.194015 286.470102 
L 775.797308 288.298462 
" style="fill: none; stroke: #000000; stroke-width: 0.8; stroke-linecap: square"/>
    </g>
    <g id="text_23">
     <!-- 0.50 -->
     <g transform="translate(785.699073 296.26339) scale(0.16 -0.16)">
      <use xlink:href="#DejaVuSans-30"/>
      <use xlink:href="#DejaVuSans-2e" transform="translate(63.623047 0)"/>
      <use xlink:href="#DejaVuSans-35" transform="translate(95.410156 0)"/>
      <use xlink:href="#DejaVuSans-30" transform="translate(159.033203 0)"/>
     </g>
    </g>
   </g>
   <g id="xtick_22">
    <g id="line2d_25">
     <path d="M 766.742569 227.997326 
L 777.397446 229.762145 
" style="fill: none; stroke: #000000; stroke-width: 0.8; stroke-linecap: square"/>
    </g>
    <g id="text_24">
     <!-- 0.75 -->
     <g transform="translate(787.424161 237.872808) scale(0.16 -0.16)">
      <use xlink:href="#DejaVuSans-30"/>
      <use xlink:href="#DejaVuSans-2e" transform="translate(63.623047 0)"/>
      <use xlink:href="#DejaVuSans-37" transform="translate(95.410156 0)"/>
      <use xlink:href="#DejaVuSans-35" transform="translate(159.033203 0)"/>
     </g>
    </g>
   </g>
   <g id="xtick_23">
    <g id="line2d_26">
     <path d="M 768.305683 168.974786 
L 779.012648 170.674785 
" style="fill: none; stroke: #000000; stroke-width: 0.8; stroke-linecap: square"/>
    </g>
    <g id="text_25">
     <!-- 1.00 -->
     <g transform="translate(789.165442 178.934114) scale(0.16 -0.16)">
      <use xlink:href="#DejaVuSans-31"/>
      <use xlink:href="#DejaVuSans-2e" transform="translate(63.623047 0)"/>
      <use xlink:href="#DejaVuSans-30" transform="translate(95.410156 0)"/>
      <use xlink:href="#DejaVuSans-30" transform="translate(159.033203 0)"/>
     </g>
    </g>
   </g>
   <g id="text_26">
    <!-- $Ψ_r(x,t)$ -->
    <g transform="translate(838.132422 423.340145) rotate(-88.466716) scale(0.16 -0.16)">
     <defs>
      <path id="DejaVuSans-Oblique-72" d="M 2853 2969 
Q 2766 3016 2653 3041 
Q 2541 3066 2413 3066 
Q 1953 3066 1609 2717 
Q 1266 2369 1153 1784 
L 800 0 
L 225 0 
L 909 3500 
L 1484 3500 
L 1375 2956 
Q 1603 3259 1920 3421 
Q 2238 3584 2597 3584 
Q 2691 3584 2781 3573 
Q 2872 3563 2963 3538 
L 2853 2969 
z
" transform="scale(0.015625)"/>
     </defs>
     <use xlink:href="#DejaVuSans-3a8" transform="translate(0 0.125)"/>
     <use xlink:href="#DejaVuSans-Oblique-72" transform="translate(79.667969 -16.28125) scale(0.7)"/>
     <use xlink:href="#DejaVuSans-28" transform="translate(111.181641 0.125)"/>
     <use xlink:href="#DejaVuSans-Oblique-78" transform="translate(150.195312 0.125)"/>
     <use xlink:href="#DejaVuSans-2c" transform="translate(209.375 0.125)"/>
     <use xlink:href="#DejaVuSans-Oblique-74" transform="translate(260.644531 0.125)"/>
     <use xlink:href="#DejaVuSans-29" transform="translate(299.853516 0.125)"/>
    </g>
   </g>
  </g>
  <g id="axes_1">
   <g id="line2d_27">
    <path d="M 240.618695 448.915303 
L 243.309937 448.490875 
L 246.038397 448.30342 
L 248.809279 448.344742 
L 251.627034 448.605122 
L 254.495331 449.073783 
L 257.416751 449.738653 
L 260.393374 450.58702 
L 263.426114 451.605313 
L 266.515449 452.779682 
L 269.660988 454.095848 
L 272.861948 455.539659 
L 276.116768 457.096677 
L 279.423623 458.752721 
L 282.780316 460.493851 
L 286.184131 462.306381 
L 289.632353 464.176915 
L 293.121885 466.092639 
L 296.649569 468.040728 
L 300.211945 470.009116 
L 303.80559 471.985908 
L 307.426871 473.95959 
L 311.07218 475.919184 
L 314.737629 477.853861 
L 318.419388 479.753107 
L 322.113448 481.606804 
L 325.815586 483.405134 
L 329.521641 485.138571 
L 333.227158 486.79786 
L 336.927519 488.373906 
L 340.618174 489.858235 
L 344.294269 491.242569 
L 347.950868 492.518879 
L 351.583051 493.679746 
L 355.185795 494.718091 
L 358.754109 495.627349 
L 362.283139 496.401451 
L 365.767927 497.03466 
L 369.203936 497.522061 
L 372.586692 497.85922 
L 375.912121 498.042128 
L 379.176298 498.067434 
L 382.37585 497.932343 
L 385.507632 497.634572 
L 388.568944 497.172265 
L 391.55754 496.543991 
L 394.471683 495.748933 
L 397.309913 494.786371 
L 400.071254 493.65623 
L 402.755081 492.358283 
L 405.361235 490.892975 
L 407.889833 489.260722 
L 410.341335 487.462059 
L 412.71652 485.497908 
L 415.016464 483.369049 
L 417.242403 481.076486 
L 419.395994 478.621411 
L 421.478884 476.004899 
L 423.493158 473.228554 
L 425.440929 470.293821 
L 427.324473 467.202475 
L 429.146392 463.956359 
L 430.909328 460.557889 
L 432.616065 457.009568 
L 434.269572 453.314444 
L 435.872887 449.475799 
L 437.429317 445.497634 
L 438.942226 441.38444 
L 440.414931 437.141251 
L 441.851139 432.773875 
L 443.254442 428.288662 
L 444.628527 423.692865 
L 445.977213 418.994519 
L 447.304345 414.202248 
L 448.613763 409.32584 
L 449.909408 404.375648 
L 451.19513 399.363008 
L 452.474756 394.299856 
L 453.752249 389.19928 
L 455.031229 384.074851 
L 456.315636 378.940988 
L 457.608955 373.812814 
L 458.91483 368.706166 
L 460.236727 363.637457 
L 461.57795 358.623683 
L 462.941681 353.682414 
L 464.331037 348.831613 
L 465.748568 344.089368 
L 467.196986 339.474347 
L 468.678526 335.00503 
L 470.194944 330.699693 
L 471.747834 326.576359 
L 473.338237 322.652449 
L 474.966613 318.944296 
L 476.632863 315.466925 
L 478.336407 312.233921 
L 480.075842 309.256711 
L 481.849177 306.544405 
L 483.653735 304.103787 
L 485.486205 301.938509 
" clip-path="url(#p914b5a92c7)" style="fill: none; stroke: #000000; stroke-width: 1.5; stroke-linecap: square"/>
   </g>
   <g id="line2d_28">
    <path d="M 304.552657 461.932313 
L 307.305288 461.512718 
L 310.054477 461.323626 
L 312.80002 461.35568 
L 315.54166 461.598125 
L 318.279192 462.039306 
L 321.012361 462.666465 
L 323.740969 463.466309 
L 326.464775 464.424905 
L 329.183597 465.52813 
L 331.897223 466.761601 
L 334.605479 468.111148 
L 337.308195 469.562468 
L 340.00522 471.101578 
L 342.696413 472.714818 
L 345.381652 474.388894 
L 348.060826 476.110812 
L 350.733841 477.868251 
L 353.400613 479.648897 
L 356.061075 481.441273 
L 358.715169 483.234076 
L 361.362852 485.016439 
L 364.004092 486.778039 
L 366.638865 488.508772 
L 369.267166 490.19885 
L 371.888982 491.838922 
L 374.504325 493.420005 
L 377.113212 494.933398 
L 379.715669 496.370745 
L 382.311728 497.723894 
L 384.901432 498.98531 
L 387.484828 500.147724 
L 390.061973 501.204145 
L 392.63293 502.148193 
L 395.197768 502.973857 
L 397.756563 503.675638 
L 400.309396 504.24851 
L 402.856355 504.687803 
L 405.397526 504.989582 
L 407.933005 505.150384 
L 410.462892 505.167082 
L 412.987287 505.037178 
L 415.506293 504.758611 
L 418.020016 504.329782 
L 420.528562 503.749418 
L 423.032038 503.016573 
L 425.530552 502.130805 
L 428.024213 501.091702 
L 430.513127 499.899391 
L 432.997403 498.553765 
L 435.477153 497.055289 
L 437.952472 495.404331 
L 440.423472 493.601302 
L 442.890256 491.646927 
L 445.35293 489.541723 
L 447.811593 487.286391 
L 450.266349 484.881727 
L 452.717299 482.328411 
L 455.164541 479.627556 
L 457.608172 476.780108 
L 460.048289 473.787307 
L 462.484988 470.650393 
L 464.918359 467.371173 
L 467.348497 463.951509 
L 469.775482 460.393774 
L 472.199401 456.700566 
L 474.620332 452.875149 
L 477.038352 448.921274 
L 479.453528 444.84325 
L 481.865925 440.646088 
L 484.275597 436.335376 
L 486.682595 431.917597 
L 489.086955 427.400003 
L 491.48871 422.790439 
L 493.887877 418.097934 
L 496.284466 413.332077 
L 498.678477 408.503473 
L 501.069884 403.623348 
L 503.458661 398.704075 
L 505.844764 393.758592 
L 508.228135 388.800643 
L 510.608699 383.844781 
L 512.986366 378.906263 
L 515.361031 374.000972 
L 517.732573 369.145424 
L 520.100854 364.356746 
L 522.465718 359.652489 
L 524.826998 355.050443 
L 527.184508 350.568965 
L 529.538048 346.226319 
L 531.887407 342.04066 
L 534.232367 338.029922 
L 536.57268 334.211538 
L 538.908133 330.601955 
L 541.238465 327.216403 
L 543.563462 324.06875 
L 545.882875 321.170832 
L 548.196509 318.532259 
L 550.504142 316.160407 
L 552.805618 314.059616 
" clip-path="url(#p914b5a92c7)" style="fill: none; stroke: #0000ff; stroke-width: 1.5; stroke-linecap: square"/>
   </g>
   <g id="line2d_29">
    <path d="M 241.363359 496.353432 
L 244.025746 494.735115 
L 246.722306 493.128085 
L 249.458527 491.533422 
L 252.239164 489.95209 
L 255.068201 488.384847 
L 257.948549 486.832264 
L 260.882624 485.294768 
L 263.871679 483.772579 
L 266.916528 482.265789 
L 270.017109 480.774341 
L 273.172958 479.298077 
L 276.382822 477.83668 
L 279.645171 476.389779 
L 282.95808 474.956923 
L 286.319089 473.537555 
L 289.725722 472.131113 
L 293.175094 470.73696 
L 296.664246 469.354443 
L 300.189889 467.982845 
L 303.748756 466.62146 
L 307.337346 465.269533 
L 310.952161 463.926319 
L 314.589408 462.591012 
L 318.24533 461.262816 
L 321.915972 459.940909 
L 325.597146 458.624416 
L 329.284706 457.312477 
L 332.9742 456.004176 
L 336.660989 454.698561 
L 340.340487 453.394698 
L 344.007792 452.091594 
L 347.657898 450.788238 
L 351.285805 449.483626 
L 354.886395 448.176737 
L 358.454568 446.866556 
L 361.985353 445.5521 
L 365.473665 444.232366 
L 368.914831 442.906444 
L 372.304236 441.573435 
L 375.637662 440.232524 
L 378.911036 438.88293 
L 382.120838 437.523985 
L 385.263777 436.155067 
L 388.337008 434.775653 
L 391.338145 433.385307 
L 394.265318 431.983697 
L 397.116939 430.570551 
L 399.891907 429.145696 
L 402.589483 427.709025 
L 405.209403 426.260528 
L 407.751684 424.800257 
L 410.216693 423.328323 
L 412.605126 421.844905 
L 414.917983 420.350239 
L 417.156429 418.844595 
L 419.322062 417.328323 
L 421.416471 415.801771 
L 423.441692 414.265375 
L 425.399795 412.719572 
L 427.293018 411.16483 
L 429.123927 409.601681 
L 430.89514 408.030661 
L 432.609413 406.45233 
L 434.269697 404.867291 
L 435.879012 403.276149 
L 437.440652 401.67956 
L 438.957971 400.078193 
L 440.434278 398.4727 
L 441.873275 396.863809 
L 443.278552 395.252222 
L 444.653793 393.638655 
L 446.002821 392.023848 
L 447.329481 390.408543 
L 448.637617 388.793475 
L 449.931178 387.1794 
L 451.214021 385.567044 
L 452.489981 383.957143 
L 453.763032 382.350438 
L 455.036809 380.747612 
L 456.315266 379.1494 
L 457.601905 377.556452 
L 458.900392 375.969444 
L 460.21422 374.389016 
L 461.546721 372.815776 
L 462.901111 371.250306 
L 464.280548 369.693175 
L 465.687631 368.144844 
L 467.125124 366.605802 
L 468.595327 365.076451 
L 470.100068 363.557098 
L 471.641021 362.048021 
L 473.219319 360.549409 
L 474.835526 359.061314 
L 476.48965 357.583719 
L 478.181235 356.116485 
L 479.909001 354.659355 
L 481.671093 353.211933 
L 483.464967 351.773729 
L 485.287451 350.344104 
" clip-path="url(#p914b5a92c7)" style="fill: none; stroke: #ff0000; stroke-width: 1.5; stroke-linecap: square"/>
   </g>
   <g id="line2d_30">
    <path d="M 433.371368 255.444605 
L 426.606361 254.484271 
L 419.830407 253.847564 
L 413.068372 253.538209 
L 406.344138 253.558242 
L 399.67992 253.908004 
L 393.096641 254.586241 
L 386.613384 255.590304 
L 380.24756 256.91664 
L 374.015154 258.56022 
L 367.930663 260.515406 
L 362.007412 262.775683 
L 356.257676 265.333954 
L 350.692952 268.182148 
L 345.324232 271.31181 
L 340.162066 274.713561 
L 335.21664 278.377287 
L 330.49809 282.291954 
L 326.016163 286.445264 
L 321.780511 290.824081 
L 317.800246 295.413858 
L 314.083868 300.198506 
L 310.639203 305.160798 
L 307.472767 310.282009 
L 304.590028 315.542172 
L 301.994507 320.920172 
L 299.688188 326.393946 
L 297.670861 331.940717 
L 295.940379 337.53742 
L 294.492344 343.160878 
L 293.320233 348.788216 
L 292.415498 354.397151 
L 291.767711 359.966204 
L 291.364914 365.475419 
L 291.193451 370.905899 
L 291.238826 376.240484 
L 291.485568 381.463778 
L 291.917654 386.562229 
L 292.518799 391.524056 
L 293.272711 396.339533 
L 294.163384 401.000584 
L 295.721715 407.689449 
L 297.502577 414.003153 
L 299.460057 419.935264 
L 301.552603 425.485881 
L 303.743883 430.660929 
L 306.002431 435.470572 
L 308.301529 439.928808 
L 311.392563 445.355603 
L 314.475729 450.231497 
L 317.520935 454.603887 
L 320.50725 458.52051 
L 323.421114 462.028492 
L 326.94993 465.906146 
L 330.347126 469.29484 
L 333.613552 472.265895 
L 337.368068 475.366746 
L 340.955369 478.045539 
L 344.95016 480.734115 
L 348.763682 483.038011 
L 352.929496 485.286701 
L 356.918002 487.195205 
L 361.222939 488.999266 
L 365.360367 490.487916 
L 369.350074 491.694995 
L 373.206465 492.644352 
L 376.939723 493.354006 
L 380.952026 493.879361 
L 384.827573 494.145394 
L 388.570278 494.169383 
L 392.182294 493.968646 
L 395.664688 493.56043 
L 399.345833 492.892494 
L 402.870248 492.017663 
L 404.112907 491.652762 
L 404.112907 491.652762 
" clip-path="url(#p914b5a92c7)" style="fill: none; stroke-dasharray: 5.55,2.4; stroke-dashoffset: 0; stroke: #000000; stroke-width: 1.5"/>
   </g>
   <g id="line2d_31">
    <path d="M 434.237838 497.820615 
L 404.112907 491.652762 
" clip-path="url(#p914b5a92c7)" style="fill: none; stroke-dasharray: 9.6,2.4,1.5,2.4; stroke-dashoffset: 0; stroke: #0000ff; stroke-width: 1.5"/>
   </g>
   <g id="line2d_32">
    <path d="M 403.95444 426.995171 
L 404.112907 491.652762 
" clip-path="url(#p914b5a92c7)" style="fill: none; stroke-dasharray: 9.6,2.4,1.5,2.4; stroke-dashoffset: 0; stroke: #ff0000; stroke-width: 1.5"/>
   </g>
   <g id="text_27">
    <!-- Complex plot of the Wavefunction -->
    <g transform="translate(252.907812 22.396875) scale(0.2 -0.2)">
     <defs>
      <path id="DejaVuSans-43" d="M 4122 4306 
L 4122 3641 
Q 3803 3938 3442 4084 
Q 3081 4231 2675 4231 
Q 1875 4231 1450 3742 
Q 1025 3253 1025 2328 
Q 1025 1406 1450 917 
Q 1875 428 2675 428 
Q 3081 428 3442 575 
Q 3803 722 4122 1019 
L 4122 359 
Q 3791 134 3420 21 
Q 3050 -91 2638 -91 
Q 1578 -91 968 557 
Q 359 1206 359 2328 
Q 359 3453 968 4101 
Q 1578 4750 2638 4750 
Q 3056 4750 3426 4639 
Q 3797 4528 4122 4306 
z
" transform="scale(0.015625)"/>
      <path id="DejaVuSans-6f" d="M 1959 3097 
Q 1497 3097 1228 2736 
Q 959 2375 959 1747 
Q 959 1119 1226 758 
Q 1494 397 1959 397 
Q 2419 397 2687 759 
Q 2956 1122 2956 1747 
Q 2956 2369 2687 2733 
Q 2419 3097 1959 3097 
z
M 1959 3584 
Q 2709 3584 3137 3096 
Q 3566 2609 3566 1747 
Q 3566 888 3137 398 
Q 2709 -91 1959 -91 
Q 1206 -91 779 398 
Q 353 888 353 1747 
Q 353 2609 779 3096 
Q 1206 3584 1959 3584 
z
" transform="scale(0.015625)"/>
      <path id="DejaVuSans-6d" d="M 3328 2828 
Q 3544 3216 3844 3400 
Q 4144 3584 4550 3584 
Q 5097 3584 5394 3201 
Q 5691 2819 5691 2113 
L 5691 0 
L 5113 0 
L 5113 2094 
Q 5113 2597 4934 2840 
Q 4756 3084 4391 3084 
Q 3944 3084 3684 2787 
Q 3425 2491 3425 1978 
L 3425 0 
L 2847 0 
L 2847 2094 
Q 2847 2600 2669 2842 
Q 2491 3084 2119 3084 
Q 1678 3084 1418 2786 
Q 1159 2488 1159 1978 
L 1159 0 
L 581 0 
L 581 3500 
L 1159 3500 
L 1159 2956 
Q 1356 3278 1631 3431 
Q 1906 3584 2284 3584 
Q 2666 3584 2933 3390 
Q 3200 3197 3328 2828 
z
" transform="scale(0.015625)"/>
      <path id="DejaVuSans-70" d="M 1159 525 
L 1159 -1331 
L 581 -1331 
L 581 3500 
L 1159 3500 
L 1159 2969 
Q 1341 3281 1617 3432 
Q 1894 3584 2278 3584 
Q 2916 3584 3314 3078 
Q 3713 2572 3713 1747 
Q 3713 922 3314 415 
Q 2916 -91 2278 -91 
Q 1894 -91 1617 61 
Q 1341 213 1159 525 
z
M 3116 1747 
Q 3116 2381 2855 2742 
Q 2594 3103 2138 3103 
Q 1681 3103 1420 2742 
Q 1159 2381 1159 1747 
Q 1159 1113 1420 752 
Q 1681 391 2138 391 
Q 2594 391 2855 752 
Q 3116 1113 3116 1747 
z
" transform="scale(0.015625)"/>
      <path id="DejaVuSans-6c" d="M 603 4863 
L 1178 4863 
L 1178 0 
L 603 0 
L 603 4863 
z
" transform="scale(0.015625)"/>
      <path id="DejaVuSans-65" d="M 3597 1894 
L 3597 1613 
L 953 1613 
Q 991 1019 1311 708 
Q 1631 397 2203 397 
Q 2534 397 2845 478 
Q 3156 559 3463 722 
L 3463 178 
Q 3153 47 2828 -22 
Q 2503 -91 2169 -91 
Q 1331 -91 842 396 
Q 353 884 353 1716 
Q 353 2575 817 3079 
Q 1281 3584 2069 3584 
Q 2775 3584 3186 3129 
Q 3597 2675 3597 1894 
z
M 3022 2063 
Q 3016 2534 2758 2815 
Q 2500 3097 2075 3097 
Q 1594 3097 1305 2825 
Q 1016 2553 972 2059 
L 3022 2063 
z
" transform="scale(0.015625)"/>
      <path id="DejaVuSans-20" transform="scale(0.015625)"/>
      <path id="DejaVuSans-74" d="M 1172 4494 
L 1172 3500 
L 2356 3500 
L 2356 3053 
L 1172 3053 
L 1172 1153 
Q 1172 725 1289 603 
Q 1406 481 1766 481 
L 2356 481 
L 2356 0 
L 1766 0 
Q 1100 0 847 248 
Q 594 497 594 1153 
L 594 3053 
L 172 3053 
L 172 3500 
L 594 3500 
L 594 4494 
L 1172 4494 
z
" transform="scale(0.015625)"/>
      <path id="DejaVuSans-66" d="M 2375 4863 
L 2375 4384 
L 1825 4384 
Q 1516 4384 1395 4259 
Q 1275 4134 1275 3809 
L 1275 3500 
L 2222 3500 
L 2222 3053 
L 1275 3053 
L 1275 0 
L 697 0 
L 697 3053 
L 147 3053 
L 147 3500 
L 697 3500 
L 697 3744 
Q 697 4328 969 4595 
Q 1241 4863 1831 4863 
L 2375 4863 
z
" transform="scale(0.015625)"/>
      <path id="DejaVuSans-68" d="M 3513 2113 
L 3513 0 
L 2938 0 
L 2938 2094 
Q 2938 2591 2744 2837 
Q 2550 3084 2163 3084 
Q 1697 3084 1428 2787 
Q 1159 2491 1159 1978 
L 1159 0 
L 581 0 
L 581 4863 
L 1159 4863 
L 1159 2956 
Q 1366 3272 1645 3428 
Q 1925 3584 2291 3584 
Q 2894 3584 3203 3211 
Q 3513 2838 3513 2113 
z
" transform="scale(0.015625)"/>
      <path id="DejaVuSans-57" d="M 213 4666 
L 850 4666 
L 1831 722 
L 2809 4666 
L 3519 4666 
L 4500 722 
L 5478 4666 
L 6119 4666 
L 4947 0 
L 4153 0 
L 3169 4050 
L 2175 0 
L 1381 0 
L 213 4666 
z
" transform="scale(0.015625)"/>
      <path id="DejaVuSans-61" d="M 2194 1759 
Q 1497 1759 1228 1600 
Q 959 1441 959 1056 
Q 959 750 1161 570 
Q 1363 391 1709 391 
Q 2188 391 2477 730 
Q 2766 1069 2766 1631 
L 2766 1759 
L 2194 1759 
z
M 3341 1997 
L 3341 0 
L 2766 0 
L 2766 531 
Q 2569 213 2275 61 
Q 1981 -91 1556 -91 
Q 1019 -91 701 211 
Q 384 513 384 1019 
Q 384 1609 779 1909 
Q 1175 2209 1959 2209 
L 2766 2209 
L 2766 2266 
Q 2766 2663 2505 2880 
Q 2244 3097 1772 3097 
Q 1472 3097 1187 3025 
Q 903 2953 641 2809 
L 641 3341 
Q 956 3463 1253 3523 
Q 1550 3584 1831 3584 
Q 2591 3584 2966 3190 
Q 3341 2797 3341 1997 
z
" transform="scale(0.015625)"/>
      <path id="DejaVuSans-76" d="M 191 3500 
L 800 3500 
L 1894 563 
L 2988 3500 
L 3597 3500 
L 2284 0 
L 1503 0 
L 191 3500 
z
" transform="scale(0.015625)"/>
      <path id="DejaVuSans-75" d="M 544 1381 
L 544 3500 
L 1119 3500 
L 1119 1403 
Q 1119 906 1312 657 
Q 1506 409 1894 409 
Q 2359 409 2629 706 
Q 2900 1003 2900 1516 
L 2900 3500 
L 3475 3500 
L 3475 0 
L 2900 0 
L 2900 538 
Q 2691 219 2414 64 
Q 2138 -91 1772 -91 
Q 1169 -91 856 284 
Q 544 659 544 1381 
z
M 1991 3584 
L 1991 3584 
z
" transform="scale(0.015625)"/>
      <path id="DejaVuSans-6e" d="M 3513 2113 
L 3513 0 
L 2938 0 
L 2938 2094 
Q 2938 2591 2744 2837 
Q 2550 3084 2163 3084 
Q 1697 3084 1428 2787 
Q 1159 2491 1159 1978 
L 1159 0 
L 581 0 
L 581 3500 
L 1159 3500 
L 1159 2956 
Q 1366 3272 1645 3428 
Q 1925 3584 2291 3584 
Q 2894 3584 3203 3211 
Q 3513 2838 3513 2113 
z
" transform="scale(0.015625)"/>
      <path id="DejaVuSans-63" d="M 3122 3366 
L 3122 2828 
Q 2878 2963 2633 3030 
Q 2388 3097 2138 3097 
Q 1578 3097 1268 2742 
Q 959 2388 959 1747 
Q 959 1106 1268 751 
Q 1578 397 2138 397 
Q 2388 397 2633 464 
Q 2878 531 3122 666 
L 3122 134 
Q 2881 22 2623 -34 
Q 2366 -91 2075 -91 
Q 1284 -91 818 406 
Q 353 903 353 1747 
Q 353 2603 823 3093 
Q 1294 3584 2113 3584 
Q 2378 3584 2631 3529 
Q 2884 3475 3122 3366 
z
" transform="scale(0.015625)"/>
      <path id="DejaVuSans-69" d="M 603 3500 
L 1178 3500 
L 1178 0 
L 603 0 
L 603 3500 
z
M 603 4863 
L 1178 4863 
L 1178 4134 
L 603 4134 
L 603 4863 
z
" transform="scale(0.015625)"/>
     </defs>
     <use xlink:href="#DejaVuSans-43"/>
     <use xlink:href="#DejaVuSans-6f" transform="translate(69.824219 0)"/>
     <use xlink:href="#DejaVuSans-6d" transform="translate(131.005859 0)"/>
     <use xlink:href="#DejaVuSans-70" transform="translate(228.417969 0)"/>
     <use xlink:href="#DejaVuSans-6c" transform="translate(291.894531 0)"/>
     <use xlink:href="#DejaVuSans-65" transform="translate(319.677734 0)"/>
     <use xlink:href="#DejaVuSans-78" transform="translate(379.451172 0)"/>
     <use xlink:href="#DejaVuSans-20" transform="translate(438.630859 0)"/>
     <use xlink:href="#DejaVuSans-70" transform="translate(470.417969 0)"/>
     <use xlink:href="#DejaVuSans-6c" transform="translate(533.894531 0)"/>
     <use xlink:href="#DejaVuSans-6f" transform="translate(561.677734 0)"/>
     <use xlink:href="#DejaVuSans-74" transform="translate(622.859375 0)"/>
     <use xlink:href="#DejaVuSans-20" transform="translate(662.068359 0)"/>
     <use xlink:href="#DejaVuSans-6f" transform="translate(693.855469 0)"/>
     <use xlink:href="#DejaVuSans-66" transform="translate(755.037109 0)"/>
     <use xlink:href="#DejaVuSans-20" transform="translate(790.242188 0)"/>
     <use xlink:href="#DejaVuSans-74" transform="translate(822.029297 0)"/>
     <use xlink:href="#DejaVuSans-68" transform="translate(861.238281 0)"/>
     <use xlink:href="#DejaVuSans-65" transform="translate(924.617188 0)"/>
     <use xlink:href="#DejaVuSans-20" transform="translate(986.140625 0)"/>
     <use xlink:href="#DejaVuSans-57" transform="translate(1017.927734 0)"/>
     <use xlink:href="#DejaVuSans-61" transform="translate(1110.429688 0)"/>
     <use xlink:href="#DejaVuSans-76" transform="translate(1171.708984 0)"/>
     <use xlink:href="#DejaVuSans-65" transform="translate(1230.888672 0)"/>
     <use xlink:href="#DejaVuSans-66" transform="translate(1292.412109 0)"/>
     <use xlink:href="#DejaVuSans-75" transform="translate(1327.617188 0)"/>
     <use xlink:href="#DejaVuSans-6e" transform="translate(1390.996094 0)"/>
     <use xlink:href="#DejaVuSans-63" transform="translate(1454.375 0)"/>
     <use xlink:href="#DejaVuSans-74" transform="translate(1509.355469 0)"/>
     <use xlink:href="#DejaVuSans-69" transform="translate(1548.564453 0)"/>
     <use xlink:href="#DejaVuSans-6f" transform="translate(1576.347656 0)"/>
     <use xlink:href="#DejaVuSans-6e" transform="translate(1637.529297 0)"/>
    </g>
   </g>
   <g id="legend_1">
    <g id="patch_6">
     <path d="M 719.7125 112.166875 
L 827.6 112.166875 
Q 830.8 112.166875 830.8 108.966875 
L 830.8 39.596875 
Q 830.8 36.396875 827.6 36.396875 
L 719.7125 36.396875 
Q 716.5125 36.396875 716.5125 39.596875 
L 716.5125 108.966875 
Q 716.5125 112.166875 719.7125 112.166875 
z
" style="fill: #ffffff; opacity: 0.8; stroke: #cccccc; stroke-linejoin: miter"/>
    </g>
    <g id="line2d_33">
     <path d="M 722.9125 49.424375 
L 738.9125 49.424375 
L 754.9125 49.424375 
" style="fill: none; stroke: #000000; stroke-width: 1.5; stroke-linecap: square"/>
    </g>
    <g id="text_28">
     <!-- |Ψ(x,t)| -->
     <g transform="translate(767.7125 55.024375) scale(0.16 -0.16)">
      <defs>
       <path id="DejaVuSans-7c" d="M 1344 4891 
L 1344 -1509 
L 813 -1509 
L 813 4891 
L 1344 4891 
z
" transform="scale(0.015625)"/>
      </defs>
      <use xlink:href="#DejaVuSans-7c"/>
      <use xlink:href="#DejaVuSans-3a8" transform="translate(33.691406 0)"/>
      <use xlink:href="#DejaVuSans-28" transform="translate(112.402344 0)"/>
      <use xlink:href="#DejaVuSans-78" transform="translate(151.416016 0)"/>
      <use xlink:href="#DejaVuSans-2c" transform="translate(210.595703 0)"/>
      <use xlink:href="#DejaVuSans-74" transform="translate(242.382812 0)"/>
      <use xlink:href="#DejaVuSans-29" transform="translate(281.591797 0)"/>
      <use xlink:href="#DejaVuSans-7c" transform="translate(320.605469 0)"/>
     </g>
    </g>
    <g id="line2d_34">
     <path d="M 722.9125 73.354375 
L 738.9125 73.354375 
L 754.9125 73.354375 
" style="fill: none; stroke: #0000ff; stroke-width: 1.5; stroke-linecap: square"/>
    </g>
    <g id="text_29">
     <!-- $Ψ_r(x,t)$ -->
     <g transform="translate(767.7125 78.954375) scale(0.16 -0.16)">
      <use xlink:href="#DejaVuSans-3a8" transform="translate(0 0.125)"/>
      <use xlink:href="#DejaVuSans-Oblique-72" transform="translate(79.667969 -16.28125) scale(0.7)"/>
      <use xlink:href="#DejaVuSans-28" transform="translate(111.181641 0.125)"/>
      <use xlink:href="#DejaVuSans-Oblique-78" transform="translate(150.195312 0.125)"/>
      <use xlink:href="#DejaVuSans-2c" transform="translate(209.375 0.125)"/>
      <use xlink:href="#DejaVuSans-Oblique-74" transform="translate(260.644531 0.125)"/>
      <use xlink:href="#DejaVuSans-29" transform="translate(299.853516 0.125)"/>
     </g>
    </g>
    <g id="line2d_35">
     <path d="M 722.9125 96.839375 
L 738.9125 96.839375 
L 754.9125 96.839375 
" style="fill: none; stroke: #ff0000; stroke-width: 1.5; stroke-linecap: square"/>
    </g>
    <g id="text_30">
     <!-- $Ψ_i(x,t)$ -->
     <g transform="translate(767.7125 102.439375) scale(0.16 -0.16)">
      <use xlink:href="#DejaVuSans-3a8" transform="translate(0 0.125)"/>
      <use xlink:href="#DejaVuSans-Oblique-69" transform="translate(79.667969 -16.28125) scale(0.7)"/>
      <use xlink:href="#DejaVuSans-28" transform="translate(101.850586 0.125)"/>
      <use xlink:href="#DejaVuSans-Oblique-78" transform="translate(140.864258 0.125)"/>
      <use xlink:href="#DejaVuSans-2c" transform="translate(200.043945 0.125)"/>
      <use xlink:href="#DejaVuSans-Oblique-74" transform="translate(251.313477 0.125)"/>
      <use xlink:href="#DejaVuSans-29" transform="translate(290.522461 0.125)"/>
     </g>
    </g>
   </g>
  </g>
 </g>
 <defs>
  <clipPath id="p914b5a92c7">
   <rect x="7.2" y="28.396875" width="831.6" height="831.6"/>
  </clipPath>
 </defs>
</svg>
