<?xml version="1.0" encoding="utf-8" standalone="no"?>
<!DOCTYPE svg PUBLIC "-//W3C//DTD SVG 1.1//EN"
  "http://www.w3.org/Graphics/SVG/1.1/DTD/svg11.dtd">
<svg xmlns:xlink="http://www.w3.org/1999/xlink" width="796.434pt" height="331.467937pt" viewBox="0 0 796.434 331.467937" xmlns="http://www.w3.org/2000/svg" version="1.1">
 <metadata>
  <rdf:RDF xmlns:dc="http://purl.org/dc/elements/1.1/" xmlns:cc="http://creativecommons.org/ns#" xmlns:rdf="http://www.w3.org/1999/02/22-rdf-syntax-ns#">
   <cc:Work>
    <dc:type rdf:resource="http://purl.org/dc/dcmitype/StillImage"/>
    <dc:date>2026-06-01T16:38:40.178442</dc:date>
    <dc:format>image/svg+xml</dc:format>
    <dc:creator>
     <cc:Agent>
      <dc:title>Matplotlib v3.10.9, https://matplotlib.org/</dc:title>
     </cc:Agent>
    </dc:creator>
   </cc:Work>
  </rdf:RDF>
 </metadata>
 <defs>
  <style type="text/css">*{stroke-linejoin: round; stroke-linecap: butt}</style>
 </defs>
 <g id="figure_1">
  <g id="patch_1">
   <path d="M 0 331.467937 
L 796.434 331.467937 
L 796.434 0 
L 0 0 
z
" style="fill: #ffffff"/>
  </g>
  <g id="axes_1">
   <g id="patch_2">
    <path d="M 44.2275 286.949812 
L 401.3475 286.949812 
L 401.3475 20.837812 
L 44.2275 20.837812 
z
" style="fill: #ffffff"/>
   </g>
   <g id="matplotlib.axis_1">
    <g id="xtick_1">
     <g id="line2d_1">
      <defs>
       <path id="m2f88b3ec4f" d="M 0 0 
L 0 3.5 
" style="stroke: #000000; stroke-width: 0.8"/>
      </defs>
      <g>
       <use xlink:href="#m2f88b3ec4f" x="60.460227" y="286.949812" style="stroke: #000000; stroke-width: 0.8"/>
      </g>
     </g>
     <g id="text_1">
      <!-- 0 -->
      <g transform="translate(57.278977 301.54825) scale(0.1 -0.1)">
       <defs>
        <path id="DejaVuSans-30" d="M 2034 4250 
Q 1547 4250 1301 3770 
Q 1056 3291 1056 2328 
Q 1056 1369 1301 889 
Q 1547 409 2034 409 
Q 2525 409 2770 889 
Q 3016 1369 3016 2328 
Q 3016 3291 2770 3770 
Q 2525 4250 2034 4250 
z
M 2034 4750 
Q 2819 4750 3233 4129 
Q 3647 3509 3647 2328 
Q 3647 1150 3233 529 
Q 2819 -91 2034 -91 
Q 1250 -91 836 529 
Q 422 1150 422 2328 
Q 422 3509 836 4129 
Q 1250 4750 2034 4750 
z
" transform="scale(0.015625)"/>
       </defs>
       <use xlink:href="#DejaVuSans-30"/>
      </g>
     </g>
    </g>
    <g id="xtick_2">
     <g id="line2d_2">
      <g>
       <use xlink:href="#m2f88b3ec4f" x="112.130603" y="286.949812" style="stroke: #000000; stroke-width: 0.8"/>
      </g>
     </g>
     <g id="text_2">
      <!-- 2 -->
      <g transform="translate(108.949353 301.54825) scale(0.1 -0.1)">
       <defs>
        <path id="DejaVuSans-32" d="M 1228 531 
L 3431 531 
L 3431 0 
L 469 0 
L 469 531 
Q 828 903 1448 1529 
Q 2069 2156 2228 2338 
Q 2531 2678 2651 2914 
Q 2772 3150 2772 3378 
Q 2772 3750 2511 3984 
Q 2250 4219 1831 4219 
Q 1534 4219 1204 4116 
Q 875 4013 500 3803 
L 500 4441 
Q 881 4594 1212 4672 
Q 1544 4750 1819 4750 
Q 2544 4750 2975 4387 
Q 3406 4025 3406 3419 
Q 3406 3131 3298 2873 
Q 3191 2616 2906 2266 
Q 2828 2175 2409 1742 
Q 1991 1309 1228 531 
z
" transform="scale(0.015625)"/>
       </defs>
       <use xlink:href="#DejaVuSans-32"/>
      </g>
     </g>
    </g>
    <g id="xtick_3">
     <g id="line2d_3">
      <g>
       <use xlink:href="#m2f88b3ec4f" x="163.800979" y="286.949812" style="stroke: #000000; stroke-width: 0.8"/>
      </g>
     </g>
     <g id="text_3">
      <!-- 4 -->
      <g transform="translate(160.619729 301.54825) scale(0.1 -0.1)">
       <defs>
        <path id="DejaVuSans-34" d="M 2419 4116 
L 825 1625 
L 2419 1625 
L 2419 4116 
z
M 2253 4666 
L 3047 4666 
L 3047 1625 
L 3713 1625 
L 3713 1100 
L 3047 1100 
L 3047 0 
L 2419 0 
L 2419 1100 
L 313 1100 
L 313 1709 
L 2253 4666 
z
" transform="scale(0.015625)"/>
       </defs>
       <use xlink:href="#DejaVuSans-34"/>
      </g>
     </g>
    </g>
    <g id="xtick_4">
     <g id="line2d_4">
      <g>
       <use xlink:href="#m2f88b3ec4f" x="215.471354" y="286.949812" style="stroke: #000000; stroke-width: 0.8"/>
      </g>
     </g>
     <g id="text_4">
      <!-- 6 -->
      <g transform="translate(212.290104 301.54825) scale(0.1 -0.1)">
       <defs>
        <path id="DejaVuSans-36" d="M 2113 2584 
Q 1688 2584 1439 2293 
Q 1191 2003 1191 1497 
Q 1191 994 1439 701 
Q 1688 409 2113 409 
Q 2538 409 2786 701 
Q 3034 994 3034 1497 
Q 3034 2003 2786 2293 
Q 2538 2584 2113 2584 
z
M 3366 4563 
L 3366 3988 
Q 3128 4100 2886 4159 
Q 2644 4219 2406 4219 
Q 1781 4219 1451 3797 
Q 1122 3375 1075 2522 
Q 1259 2794 1537 2939 
Q 1816 3084 2150 3084 
Q 2853 3084 3261 2657 
Q 3669 2231 3669 1497 
Q 3669 778 3244 343 
Q 2819 -91 2113 -91 
Q 1303 -91 875 529 
Q 447 1150 447 2328 
Q 447 3434 972 4092 
Q 1497 4750 2381 4750 
Q 2619 4750 2861 4703 
Q 3103 4656 3366 4563 
z
" transform="scale(0.015625)"/>
       </defs>
       <use xlink:href="#DejaVuSans-36"/>
      </g>
     </g>
    </g>
    <g id="xtick_5">
     <g id="line2d_5">
      <g>
       <use xlink:href="#m2f88b3ec4f" x="267.14173" y="286.949812" style="stroke: #000000; stroke-width: 0.8"/>
      </g>
     </g>
     <g id="text_5">
      <!-- 8 -->
      <g transform="translate(263.96048 301.54825) scale(0.1 -0.1)">
       <defs>
        <path id="DejaVuSans-38" d="M 2034 2216 
Q 1584 2216 1326 1975 
Q 1069 1734 1069 1313 
Q 1069 891 1326 650 
Q 1584 409 2034 409 
Q 2484 409 2743 651 
Q 3003 894 3003 1313 
Q 3003 1734 2745 1975 
Q 2488 2216 2034 2216 
z
M 1403 2484 
Q 997 2584 770 2862 
Q 544 3141 544 3541 
Q 544 4100 942 4425 
Q 1341 4750 2034 4750 
Q 2731 4750 3128 4425 
Q 3525 4100 3525 3541 
Q 3525 3141 3298 2862 
Q 3072 2584 2669 2484 
Q 3125 2378 3379 2068 
Q 3634 1759 3634 1313 
Q 3634 634 3220 271 
Q 2806 -91 2034 -91 
Q 1263 -91 848 271 
Q 434 634 434 1313 
Q 434 1759 690 2068 
Q 947 2378 1403 2484 
z
M 1172 3481 
Q 1172 3119 1398 2916 
Q 1625 2713 2034 2713 
Q 2441 2713 2670 2916 
Q 2900 3119 2900 3481 
Q 2900 3844 2670 4047 
Q 2441 4250 2034 4250 
Q 1625 4250 1398 4047 
Q 1172 3844 1172 3481 
z
" transform="scale(0.015625)"/>
       </defs>
       <use xlink:href="#DejaVuSans-38"/>
      </g>
     </g>
    </g>
    <g id="xtick_6">
     <g id="line2d_6">
      <g>
       <use xlink:href="#m2f88b3ec4f" x="318.812106" y="286.949812" style="stroke: #000000; stroke-width: 0.8"/>
      </g>
     </g>
     <g id="text_6">
      <!-- 10 -->
      <g transform="translate(312.449606 301.54825) scale(0.1 -0.1)">
       <defs>
        <path id="DejaVuSans-31" d="M 794 531 
L 1825 531 
L 1825 4091 
L 703 3866 
L 703 4441 
L 1819 4666 
L 2450 4666 
L 2450 531 
L 3481 531 
L 3481 0 
L 794 0 
L 794 531 
z
" transform="scale(0.015625)"/>
       </defs>
       <use xlink:href="#DejaVuSans-31"/>
       <use xlink:href="#DejaVuSans-30" transform="translate(63.623047 0)"/>
      </g>
     </g>
    </g>
    <g id="xtick_7">
     <g id="line2d_7">
      <g>
       <use xlink:href="#m2f88b3ec4f" x="370.482482" y="286.949812" style="stroke: #000000; stroke-width: 0.8"/>
      </g>
     </g>
     <g id="text_7">
      <!-- 12 -->
      <g transform="translate(364.119982 301.54825) scale(0.1 -0.1)">
       <use xlink:href="#DejaVuSans-31"/>
       <use xlink:href="#DejaVuSans-32" transform="translate(63.623047 0)"/>
      </g>
     </g>
    </g>
    <g id="text_8">
     <!-- $t\,[\omega^{-1}]$ -->
     <g transform="translate(196.5475 320.940437) scale(0.16 -0.16)">
      <defs>
       <path id="DejaVuSans-Oblique-74" d="M 2706 3500 
L 2619 3053 
L 1472 3053 
L 1100 1153 
Q 1081 1047 1072 975 
Q 1063 903 1063 863 
Q 1063 663 1183 572 
Q 1303 481 1569 481 
L 2150 481 
L 2053 0 
L 1503 0 
Q 991 0 739 200 
Q 488 400 488 806 
Q 488 878 497 964 
Q 506 1050 525 1153 
L 897 3053 
L 409 3053 
L 500 3500 
L 978 3500 
L 1172 4494 
L 1747 4494 
L 1556 3500 
L 2706 3500 
z
" transform="scale(0.015625)"/>
       <path id="DejaVuSans-5b" d="M 550 4863 
L 1875 4863 
L 1875 4416 
L 1125 4416 
L 1125 -397 
L 1875 -397 
L 1875 -844 
L 550 -844 
L 550 4863 
z
" transform="scale(0.015625)"/>
       <path id="DejaVuSans-Oblique-3c9" d="M 1369 -91 
Q 72 -91 434 1766 
Q 575 2500 1256 3500 
L 1875 3500 
Q 1231 2500 1088 1750 
Q 819 397 1519 397 
Q 2166 397 2478 2078 
L 3009 2078 
Q 2669 388 3316 397 
Q 4013 403 4275 1750 
Q 4419 2500 4169 3500 
L 4788 3500 
Q 5075 2500 4934 1766 
Q 4578 -94 3278 -91 
Q 2428 -88 2503 844 
Q 2194 -91 1369 -91 
z
" transform="scale(0.015625)"/>
       <path id="DejaVuSans-2212" d="M 678 2272 
L 4684 2272 
L 4684 1741 
L 678 1741 
L 678 2272 
z
" transform="scale(0.015625)"/>
       <path id="DejaVuSans-5d" d="M 1947 4863 
L 1947 -844 
L 622 -844 
L 622 -397 
L 1369 -397 
L 1369 4416 
L 622 4416 
L 622 4863 
L 1947 4863 
z
" transform="scale(0.015625)"/>
      </defs>
      <use xlink:href="#DejaVuSans-Oblique-74" transform="translate(0 0.684375)"/>
      <use xlink:href="#DejaVuSans-5b" transform="translate(55.444661 0.684375)"/>
      <use xlink:href="#DejaVuSans-Oblique-3c9" transform="translate(94.458333 0.684375)"/>
      <use xlink:href="#DejaVuSans-2212" transform="translate(182.664713 38.965625) scale(0.7)"/>
      <use xlink:href="#DejaVuSans-31" transform="translate(241.317056 38.965625) scale(0.7)"/>
      <use xlink:href="#DejaVuSans-5d" transform="translate(288.587564 0.684375)"/>
     </g>
    </g>
   </g>
   <g id="matplotlib.axis_2">
    <g id="ytick_1">
     <g id="line2d_8">
      <defs>
       <path id="m1399e6df93" d="M 0 0 
L -3.5 0 
" style="stroke: #000000; stroke-width: 0.8"/>
      </defs>
      <g>
       <use xlink:href="#m1399e6df93" x="44.2275" y="246.162929" style="stroke: #000000; stroke-width: 0.8"/>
      </g>
     </g>
     <g id="text_9">
      <!-- 1 -->
      <g transform="translate(28.32 251.481835) scale(0.14 -0.14)">
       <use xlink:href="#DejaVuSans-31"/>
      </g>
     </g>
    </g>
    <g id="ytick_2">
     <g id="line2d_9">
      <g>
       <use xlink:href="#m1399e6df93" x="44.2275" y="188.781163" style="stroke: #000000; stroke-width: 0.8"/>
      </g>
     </g>
     <g id="text_10">
      <!-- 2 -->
      <g transform="translate(28.32 194.100069) scale(0.14 -0.14)">
       <use xlink:href="#DejaVuSans-32"/>
      </g>
     </g>
    </g>
    <g id="ytick_3">
     <g id="line2d_10">
      <g>
       <use xlink:href="#m1399e6df93" x="44.2275" y="131.399396" style="stroke: #000000; stroke-width: 0.8"/>
      </g>
     </g>
     <g id="text_11">
      <!-- 3 -->
      <g transform="translate(28.32 136.718302) scale(0.14 -0.14)">
       <defs>
        <path id="DejaVuSans-33" d="M 2597 2516 
Q 3050 2419 3304 2112 
Q 3559 1806 3559 1356 
Q 3559 666 3084 287 
Q 2609 -91 1734 -91 
Q 1441 -91 1130 -33 
Q 819 25 488 141 
L 488 750 
Q 750 597 1062 519 
Q 1375 441 1716 441 
Q 2309 441 2620 675 
Q 2931 909 2931 1356 
Q 2931 1769 2642 2001 
Q 2353 2234 1838 2234 
L 1294 2234 
L 1294 2753 
L 1863 2753 
Q 2328 2753 2575 2939 
Q 2822 3125 2822 3475 
Q 2822 3834 2567 4026 
Q 2313 4219 1838 4219 
Q 1578 4219 1281 4162 
Q 984 4106 628 3988 
L 628 4550 
Q 988 4650 1302 4700 
Q 1616 4750 1894 4750 
Q 2613 4750 3031 4423 
Q 3450 4097 3450 3541 
Q 3450 3153 3228 2886 
Q 3006 2619 2597 2516 
z
" transform="scale(0.015625)"/>
       </defs>
       <use xlink:href="#DejaVuSans-33"/>
      </g>
     </g>
    </g>
    <g id="ytick_4">
     <g id="line2d_11">
      <g>
       <use xlink:href="#m1399e6df93" x="44.2275" y="74.01763" style="stroke: #000000; stroke-width: 0.8"/>
      </g>
     </g>
     <g id="text_12">
      <!-- 4 -->
      <g transform="translate(28.32 79.336536) scale(0.14 -0.14)">
       <use xlink:href="#DejaVuSans-34"/>
      </g>
     </g>
    </g>
    <g id="text_13">
     <!-- $E_0^r\,[\hbar\omega]$ -->
     <g transform="translate(19.68 182.533812) rotate(-90) scale(0.16 -0.16)">
      <defs>
       <path id="DejaVuSans-Oblique-45" d="M 1081 4666 
L 4031 4666 
L 3928 4134 
L 1606 4134 
L 1338 2753 
L 3566 2753 
L 3463 2222 
L 1234 2222 
L 909 531 
L 3284 531 
L 3181 0 
L 172 0 
L 1081 4666 
z
" transform="scale(0.015625)"/>
       <path id="DejaVuSans-Oblique-72" d="M 2853 2969 
Q 2766 3016 2653 3041 
Q 2541 3066 2413 3066 
Q 1953 3066 1609 2717 
Q 1266 2369 1153 1784 
L 800 0 
L 225 0 
L 909 3500 
L 1484 3500 
L 1375 2956 
Q 1603 3259 1920 3421 
Q 2238 3584 2597 3584 
Q 2691 3584 2781 3573 
Q 2872 3563 2963 3538 
L 2853 2969 
z
" transform="scale(0.015625)"/>
       <path id="DejaVuSans-Oblique-127" d="M 3634 2113 
L 3225 0 
L 2650 0 
L 3056 2094 
Q 3094 2291 3094 2450 
Q 3094 2688 3006 2838 
Q 2863 3084 2475 3084 
Q 2009 3084 1681 2788 
Q 1356 2491 1256 1978 
L 872 0 
L 294 0 
L 1066 3969 
L 675 3969 
L 775 4481 
L 1166 4481 
L 1238 4863 
L 1816 4863 
L 1744 4481 
L 2844 4481 
L 2744 3969 
L 1644 3969 
L 1447 2956 
Q 1713 3272 2025 3428 
Q 2331 3584 2700 3584 
Q 3300 3584 3538 3213 
Q 3688 2975 3688 2606 
Q 3688 2381 3634 2113 
z
" transform="scale(0.015625)"/>
      </defs>
      <use xlink:href="#DejaVuSans-Oblique-45" transform="translate(0 0.51875)"/>
      <use xlink:href="#DejaVuSans-Oblique-72" transform="translate(70.200365 38.8) scale(0.7)"/>
      <use xlink:href="#DejaVuSans-30" transform="translate(63.183594 -26.825) scale(0.7)"/>
      <use xlink:href="#DejaVuSans-5b" transform="translate(126.689778 0.51875)"/>
      <use xlink:href="#DejaVuSans-Oblique-127" transform="translate(165.70345 0.51875)"/>
      <use xlink:href="#DejaVuSans-Oblique-3c9" transform="translate(235.185872 0.51875)"/>
      <use xlink:href="#DejaVuSans-5d" transform="translate(318.926106 0.51875)"/>
     </g>
    </g>
   </g>
   <g id="line2d_12">
    <defs>
     <path id="macb949d664" d="M -3 3 
L 3 -3 
M -3 -3 
L 3 3 
" style="stroke: #1f77b4"/>
    </defs>
    <g clip-path="url(#pbfab573cb1)">
     <use xlink:href="#macb949d664" x="60.460227" y="274.84964" style="fill: #1f77b4; stroke: #1f77b4"/>
     <use xlink:href="#macb949d664" x="63.739566" y="274.849311" style="fill: #1f77b4; stroke: #1f77b4"/>
     <use xlink:href="#macb949d664" x="67.018905" y="274.84847" style="fill: #1f77b4; stroke: #1f77b4"/>
     <use xlink:href="#macb949d664" x="70.298244" y="274.847824" style="fill: #1f77b4; stroke: #1f77b4"/>
     <use xlink:href="#macb949d664" x="73.577583" y="274.84754" style="fill: #1f77b4; stroke: #1f77b4"/>
     <use xlink:href="#macb949d664" x="76.856921" y="274.847502" style="fill: #1f77b4; stroke: #1f77b4"/>
     <use xlink:href="#macb949d664" x="80.13626" y="274.84741" style="fill: #1f77b4; stroke: #1f77b4"/>
     <use xlink:href="#macb949d664" x="83.415599" y="274.846869" style="fill: #1f77b4; stroke: #1f77b4"/>
     <use xlink:href="#macb949d664" x="86.694938" y="274.845375" style="fill: #1f77b4; stroke: #1f77b4"/>
     <use xlink:href="#macb949d664" x="89.974277" y="274.842238" style="fill: #1f77b4; stroke: #1f77b4"/>
     <use xlink:href="#macb949d664" x="93.253616" y="274.836523" style="fill: #1f77b4; stroke: #1f77b4"/>
     <use xlink:href="#macb949d664" x="96.532955" y="274.826964" style="fill: #1f77b4; stroke: #1f77b4"/>
     <use xlink:href="#macb949d664" x="99.812293" y="274.81187" style="fill: #1f77b4; stroke: #1f77b4"/>
     <use xlink:href="#macb949d664" x="103.091632" y="274.789164" style="fill: #1f77b4; stroke: #1f77b4"/>
     <use xlink:href="#macb949d664" x="106.370971" y="274.756329" style="fill: #1f77b4; stroke: #1f77b4"/>
     <use xlink:href="#macb949d664" x="109.65031" y="274.710591" style="fill: #1f77b4; stroke: #1f77b4"/>
     <use xlink:href="#macb949d664" x="112.929649" y="274.648941" style="fill: #1f77b4; stroke: #1f77b4"/>
     <use xlink:href="#macb949d664" x="116.208988" y="274.568293" style="fill: #1f77b4; stroke: #1f77b4"/>
     <use xlink:href="#macb949d664" x="119.488326" y="274.465494" style="fill: #1f77b4; stroke: #1f77b4"/>
     <use xlink:href="#macb949d664" x="122.767665" y="274.337428" style="fill: #1f77b4; stroke: #1f77b4"/>
     <use xlink:href="#macb949d664" x="126.047004" y="274.180922" style="fill: #1f77b4; stroke: #1f77b4"/>
     <use xlink:href="#macb949d664" x="129.326343" y="273.992762" style="fill: #1f77b4; stroke: #1f77b4"/>
     <use xlink:href="#macb949d664" x="132.605682" y="273.769634" style="fill: #1f77b4; stroke: #1f77b4"/>
     <use xlink:href="#macb949d664" x="135.885021" y="273.508093" style="fill: #1f77b4; stroke: #1f77b4"/>
     <use xlink:href="#macb949d664" x="139.16436" y="273.20462" style="fill: #1f77b4; stroke: #1f77b4"/>
     <use xlink:href="#macb949d664" x="142.443698" y="272.855682" style="fill: #1f77b4; stroke: #1f77b4"/>
     <use xlink:href="#macb949d664" x="145.723037" y="272.45786" style="fill: #1f77b4; stroke: #1f77b4"/>
     <use xlink:href="#macb949d664" x="149.002376" y="272.007998" style="fill: #1f77b4; stroke: #1f77b4"/>
     <use xlink:href="#macb949d664" x="152.281715" y="271.503348" style="fill: #1f77b4; stroke: #1f77b4"/>
     <use xlink:href="#macb949d664" x="155.561054" y="270.941717" style="fill: #1f77b4; stroke: #1f77b4"/>
     <use xlink:href="#macb949d664" x="158.840393" y="270.321525" style="fill: #1f77b4; stroke: #1f77b4"/>
     <use xlink:href="#macb949d664" x="162.119731" y="269.641825" style="fill: #1f77b4; stroke: #1f77b4"/>
     <use xlink:href="#macb949d664" x="165.39907" y="268.902179" style="fill: #1f77b4; stroke: #1f77b4"/>
     <use xlink:href="#macb949d664" x="168.678409" y="268.102517" style="fill: #1f77b4; stroke: #1f77b4"/>
     <use xlink:href="#macb949d664" x="171.957748" y="267.242876" style="fill: #1f77b4; stroke: #1f77b4"/>
     <use xlink:href="#macb949d664" x="175.237087" y="266.323001" style="fill: #1f77b4; stroke: #1f77b4"/>
     <use xlink:href="#macb949d664" x="178.516426" y="265.342082" style="fill: #1f77b4; stroke: #1f77b4"/>
     <use xlink:href="#macb949d664" x="181.795764" y="264.29831" style="fill: #1f77b4; stroke: #1f77b4"/>
     <use xlink:href="#macb949d664" x="185.075103" y="263.188582" style="fill: #1f77b4; stroke: #1f77b4"/>
     <use xlink:href="#macb949d664" x="188.354442" y="262.008277" style="fill: #1f77b4; stroke: #1f77b4"/>
     <use xlink:href="#macb949d664" x="191.633781" y="260.751087" style="fill: #1f77b4; stroke: #1f77b4"/>
     <use xlink:href="#macb949d664" x="194.91312" y="259.409109" style="fill: #1f77b4; stroke: #1f77b4"/>
     <use xlink:href="#macb949d664" x="198.192459" y="257.973006" style="fill: #1f77b4; stroke: #1f77b4"/>
     <use xlink:href="#macb949d664" x="201.471798" y="256.432358" style="fill: #1f77b4; stroke: #1f77b4"/>
     <use xlink:href="#macb949d664" x="204.751136" y="254.776141" style="fill: #1f77b4; stroke: #1f77b4"/>
     <use xlink:href="#macb949d664" x="208.030475" y="252.99332" style="fill: #1f77b4; stroke: #1f77b4"/>
     <use xlink:href="#macb949d664" x="211.309814" y="251.073376" style="fill: #1f77b4; stroke: #1f77b4"/>
     <use xlink:href="#macb949d664" x="214.589153" y="249.007013" style="fill: #1f77b4; stroke: #1f77b4"/>
     <use xlink:href="#macb949d664" x="217.868492" y="246.786572" style="fill: #1f77b4; stroke: #1f77b4"/>
     <use xlink:href="#macb949d664" x="221.147831" y="244.40653" style="fill: #1f77b4; stroke: #1f77b4"/>
     <use xlink:href="#macb949d664" x="224.427169" y="241.86374" style="fill: #1f77b4; stroke: #1f77b4"/>
     <use xlink:href="#macb949d664" x="227.706508" y="239.15756" style="fill: #1f77b4; stroke: #1f77b4"/>
     <use xlink:href="#macb949d664" x="230.985847" y="236.289815" style="fill: #1f77b4; stroke: #1f77b4"/>
     <use xlink:href="#macb949d664" x="234.265186" y="233.26461" style="fill: #1f77b4; stroke: #1f77b4"/>
     <use xlink:href="#macb949d664" x="237.544525" y="230.088156" style="fill: #1f77b4; stroke: #1f77b4"/>
     <use xlink:href="#macb949d664" x="240.823864" y="226.768313" style="fill: #1f77b4; stroke: #1f77b4"/>
     <use xlink:href="#macb949d664" x="244.103202" y="223.314178" style="fill: #1f77b4; stroke: #1f77b4"/>
     <use xlink:href="#macb949d664" x="247.382541" y="219.735807" style="fill: #1f77b4; stroke: #1f77b4"/>
     <use xlink:href="#macb949d664" x="250.66188" y="216.043721" style="fill: #1f77b4; stroke: #1f77b4"/>
     <use xlink:href="#macb949d664" x="253.941219" y="212.248515" style="fill: #1f77b4; stroke: #1f77b4"/>
     <use xlink:href="#macb949d664" x="257.220558" y="208.360615" style="fill: #1f77b4; stroke: #1f77b4"/>
     <use xlink:href="#macb949d664" x="260.499897" y="204.390054" style="fill: #1f77b4; stroke: #1f77b4"/>
     <use xlink:href="#macb949d664" x="263.779236" y="200.346082" style="fill: #1f77b4; stroke: #1f77b4"/>
     <use xlink:href="#macb949d664" x="267.058574" y="196.237303" style="fill: #1f77b4; stroke: #1f77b4"/>
     <use xlink:href="#macb949d664" x="270.337913" y="192.071359" style="fill: #1f77b4; stroke: #1f77b4"/>
     <use xlink:href="#macb949d664" x="273.617252" y="187.855036" style="fill: #1f77b4; stroke: #1f77b4"/>
     <use xlink:href="#macb949d664" x="276.896591" y="183.594222" style="fill: #1f77b4; stroke: #1f77b4"/>
     <use xlink:href="#macb949d664" x="280.17593" y="179.293856" style="fill: #1f77b4; stroke: #1f77b4"/>
     <use xlink:href="#macb949d664" x="283.455269" y="174.958125" style="fill: #1f77b4; stroke: #1f77b4"/>
     <use xlink:href="#macb949d664" x="286.734607" y="170.590532" style="fill: #1f77b4; stroke: #1f77b4"/>
     <use xlink:href="#macb949d664" x="290.013946" y="166.193853" style="fill: #1f77b4; stroke: #1f77b4"/>
     <use xlink:href="#macb949d664" x="293.293285" y="161.770332" style="fill: #1f77b4; stroke: #1f77b4"/>
     <use xlink:href="#macb949d664" x="296.572624" y="157.321844" style="fill: #1f77b4; stroke: #1f77b4"/>
     <use xlink:href="#macb949d664" x="299.851963" y="152.849784" style="fill: #1f77b4; stroke: #1f77b4"/>
     <use xlink:href="#macb949d664" x="303.131302" y="148.35541" style="fill: #1f77b4; stroke: #1f77b4"/>
     <use xlink:href="#macb949d664" x="306.41064" y="143.839734" style="fill: #1f77b4; stroke: #1f77b4"/>
     <use xlink:href="#macb949d664" x="309.689979" y="139.303702" style="fill: #1f77b4; stroke: #1f77b4"/>
     <use xlink:href="#macb949d664" x="312.969318" y="134.748257" style="fill: #1f77b4; stroke: #1f77b4"/>
     <use xlink:href="#macb949d664" x="316.248657" y="130.174273" style="fill: #1f77b4; stroke: #1f77b4"/>
     <use xlink:href="#macb949d664" x="319.527996" y="125.582888" style="fill: #1f77b4; stroke: #1f77b4"/>
     <use xlink:href="#macb949d664" x="322.807335" y="120.975168" style="fill: #1f77b4; stroke: #1f77b4"/>
     <use xlink:href="#macb949d664" x="326.086674" y="116.352426" style="fill: #1f77b4; stroke: #1f77b4"/>
     <use xlink:href="#macb949d664" x="329.366012" y="111.716127" style="fill: #1f77b4; stroke: #1f77b4"/>
     <use xlink:href="#macb949d664" x="332.645351" y="107.067925" style="fill: #1f77b4; stroke: #1f77b4"/>
     <use xlink:href="#macb949d664" x="335.92469" y="102.409627" style="fill: #1f77b4; stroke: #1f77b4"/>
     <use xlink:href="#macb949d664" x="339.204029" y="97.74327" style="fill: #1f77b4; stroke: #1f77b4"/>
     <use xlink:href="#macb949d664" x="342.483368" y="93.070867" style="fill: #1f77b4; stroke: #1f77b4"/>
     <use xlink:href="#macb949d664" x="345.762707" y="88.394811" style="fill: #1f77b4; stroke: #1f77b4"/>
     <use xlink:href="#macb949d664" x="349.042045" y="83.717565" style="fill: #1f77b4; stroke: #1f77b4"/>
     <use xlink:href="#macb949d664" x="352.321384" y="79.041591" style="fill: #1f77b4; stroke: #1f77b4"/>
     <use xlink:href="#macb949d664" x="355.600723" y="74.369529" style="fill: #1f77b4; stroke: #1f77b4"/>
     <use xlink:href="#macb949d664" x="358.880062" y="69.703994" style="fill: #1f77b4; stroke: #1f77b4"/>
     <use xlink:href="#macb949d664" x="362.159401" y="65.047816" style="fill: #1f77b4; stroke: #1f77b4"/>
     <use xlink:href="#macb949d664" x="365.43874" y="60.403486" style="fill: #1f77b4; stroke: #1f77b4"/>
     <use xlink:href="#macb949d664" x="368.718079" y="55.773849" style="fill: #1f77b4; stroke: #1f77b4"/>
     <use xlink:href="#macb949d664" x="371.997417" y="51.161423" style="fill: #1f77b4; stroke: #1f77b4"/>
     <use xlink:href="#macb949d664" x="375.276756" y="46.568806" style="fill: #1f77b4; stroke: #1f77b4"/>
     <use xlink:href="#macb949d664" x="378.556095" y="41.998462" style="fill: #1f77b4; stroke: #1f77b4"/>
     <use xlink:href="#macb949d664" x="381.835434" y="37.452689" style="fill: #1f77b4; stroke: #1f77b4"/>
     <use xlink:href="#macb949d664" x="385.114773" y="32.933812" style="fill: #1f77b4; stroke: #1f77b4"/>
    </g>
   </g>
   <g id="line2d_13">
    <path d="M 60.460227 274.853812 
L 63.739566 274.853812 
L 67.018905 274.853812 
L 70.298244 274.853812 
L 73.577583 274.853812 
L 76.856921 274.853812 
L 80.13626 274.853812 
L 83.415599 274.853812 
L 86.694938 274.853812 
L 89.974277 274.853812 
L 93.253616 274.853812 
L 96.532955 274.853812 
L 99.812293 274.853812 
L 103.091632 274.853812 
L 106.370971 274.853812 
L 109.65031 274.853812 
L 112.929649 274.853812 
L 116.208988 274.853812 
L 119.488326 274.853812 
L 122.767665 274.853812 
L 126.047004 274.853812 
L 129.326343 274.853812 
L 132.605682 274.853812 
L 135.885021 274.853812 
L 139.16436 274.853812 
L 142.443698 274.853812 
L 145.723037 274.853812 
L 149.002376 274.853812 
L 152.281715 274.853812 
L 155.561054 274.853812 
L 158.840393 274.853812 
L 162.119731 274.853812 
L 165.39907 274.853812 
L 168.678409 274.853812 
L 171.957748 274.853812 
L 175.237087 274.853812 
L 178.516426 274.853812 
L 181.795764 274.853812 
L 185.075103 274.853812 
L 188.354442 274.853812 
L 191.633781 274.853812 
L 194.91312 274.853812 
L 198.192459 274.853812 
L 201.471798 274.853812 
L 204.751136 274.853812 
L 208.030475 274.853812 
L 211.309814 274.853812 
L 214.589153 274.853812 
L 217.868492 274.853812 
L 221.147831 274.853812 
L 224.427169 274.853812 
L 227.706508 274.853812 
L 230.985847 274.853812 
L 234.265186 274.853812 
L 237.544525 274.853812 
L 240.823864 274.853812 
L 244.103202 274.853812 
L 247.382541 274.853812 
L 250.66188 274.853812 
L 253.941219 274.853812 
L 257.220558 274.853812 
L 260.499897 274.853812 
L 263.779236 274.853812 
L 267.058574 274.853812 
L 270.337913 274.853812 
L 273.617252 274.853812 
L 276.896591 274.853812 
L 280.17593 274.853812 
L 283.455269 274.853812 
L 286.734607 274.853812 
L 290.013946 274.853812 
L 293.293285 274.853812 
L 296.572624 274.853812 
L 299.851963 274.853812 
L 303.131302 274.853812 
L 306.41064 274.853812 
L 309.689979 274.853812 
L 312.969318 274.853812 
L 316.248657 274.853812 
L 319.527996 274.853812 
L 322.807335 274.853812 
L 326.086674 274.853812 
L 329.366012 274.853812 
L 332.645351 274.853812 
L 335.92469 274.853812 
L 339.204029 274.853812 
L 342.483368 274.853812 
L 345.762707 274.853812 
L 349.042045 274.853812 
L 352.321384 274.853812 
L 355.600723 274.853812 
L 358.880062 274.853812 
L 362.159401 274.853812 
L 365.43874 274.853812 
L 368.718079 274.853812 
L 371.997417 274.853812 
L 375.276756 274.853812 
L 378.556095 274.853812 
L 381.835434 274.853812 
L 385.114773 274.853812 
" clip-path="url(#pbfab573cb1)" style="fill: none; stroke: #1f77b4; stroke-width: 1.5; stroke-linecap: square"/>
   </g>
   <g id="patch_3">
    <path d="M 44.2275 286.949812 
L 44.2275 20.837812 
" style="fill: none; stroke: #000000; stroke-width: 0.8; stroke-linejoin: miter; stroke-linecap: square"/>
   </g>
   <g id="patch_4">
    <path d="M 401.3475 286.949812 
L 401.3475 20.837812 
" style="fill: none; stroke: #000000; stroke-width: 0.8; stroke-linejoin: miter; stroke-linecap: square"/>
   </g>
   <g id="patch_5">
    <path d="M 44.2275 286.949812 
L 401.3475 286.949812 
" style="fill: none; stroke: #000000; stroke-width: 0.8; stroke-linejoin: miter; stroke-linecap: square"/>
   </g>
   <g id="patch_6">
    <path d="M 44.2275 20.837812 
L 401.3475 20.837812 
" style="fill: none; stroke: #000000; stroke-width: 0.8; stroke-linejoin: miter; stroke-linecap: square"/>
   </g>
   <g id="legend_1">
    <g id="patch_7">
     <path d="M 475.9715 207.394772 
L 786.034 207.394772 
Q 789.234 207.394772 789.234 204.194772 
L 789.234 111.854772 
Q 789.234 108.654772 786.034 108.654772 
L 475.9715 108.654772 
Q 472.7715 108.654772 472.7715 111.854772 
L 472.7715 204.194772 
Q 472.7715 207.394772 475.9715 207.394772 
z
" style="fill: #ffffff; opacity: 0.8; stroke: #cccccc; stroke-linejoin: miter"/>
    </g>
    <g id="line2d_14">
     <g>
      <use xlink:href="#macb949d664" x="495.1715" y="121.612272" style="fill: #1f77b4; stroke: #1f77b4"/>
     </g>
    </g>
    <g id="text_14">
     <!-- Real part model prediction -->
     <g transform="translate(523.9715 127.212272) scale(0.16 -0.16)">
      <defs>
       <path id="DejaVuSans-52" d="M 2841 2188 
Q 3044 2119 3236 1894 
Q 3428 1669 3622 1275 
L 4263 0 
L 3584 0 
L 2988 1197 
Q 2756 1666 2539 1819 
Q 2322 1972 1947 1972 
L 1259 1972 
L 1259 0 
L 628 0 
L 628 4666 
L 2053 4666 
Q 2853 4666 3247 4331 
Q 3641 3997 3641 3322 
Q 3641 2881 3436 2590 
Q 3231 2300 2841 2188 
z
M 1259 4147 
L 1259 2491 
L 2053 2491 
Q 2509 2491 2742 2702 
Q 2975 2913 2975 3322 
Q 2975 3731 2742 3939 
Q 2509 4147 2053 4147 
L 1259 4147 
z
" transform="scale(0.015625)"/>
       <path id="DejaVuSans-65" d="M 3597 1894 
L 3597 1613 
L 953 1613 
Q 991 1019 1311 708 
Q 1631 397 2203 397 
Q 2534 397 2845 478 
Q 3156 559 3463 722 
L 3463 178 
Q 3153 47 2828 -22 
Q 2503 -91 2169 -91 
Q 1331 -91 842 396 
Q 353 884 353 1716 
Q 353 2575 817 3079 
Q 1281 3584 2069 3584 
Q 2775 3584 3186 3129 
Q 3597 2675 3597 1894 
z
M 3022 2063 
Q 3016 2534 2758 2815 
Q 2500 3097 2075 3097 
Q 1594 3097 1305 2825 
Q 1016 2553 972 2059 
L 3022 2063 
z
" transform="scale(0.015625)"/>
       <path id="DejaVuSans-61" d="M 2194 1759 
Q 1497 1759 1228 1600 
Q 959 1441 959 1056 
Q 959 750 1161 570 
Q 1363 391 1709 391 
Q 2188 391 2477 730 
Q 2766 1069 2766 1631 
L 2766 1759 
L 2194 1759 
z
M 3341 1997 
L 3341 0 
L 2766 0 
L 2766 531 
Q 2569 213 2275 61 
Q 1981 -91 1556 -91 
Q 1019 -91 701 211 
Q 384 513 384 1019 
Q 384 1609 779 1909 
Q 1175 2209 1959 2209 
L 2766 2209 
L 2766 2266 
Q 2766 2663 2505 2880 
Q 2244 3097 1772 3097 
Q 1472 3097 1187 3025 
Q 903 2953 641 2809 
L 641 3341 
Q 956 3463 1253 3523 
Q 1550 3584 1831 3584 
Q 2591 3584 2966 3190 
Q 3341 2797 3341 1997 
z
" transform="scale(0.015625)"/>
       <path id="DejaVuSans-6c" d="M 603 4863 
L 1178 4863 
L 1178 0 
L 603 0 
L 603 4863 
z
" transform="scale(0.015625)"/>
       <path id="DejaVuSans-20" transform="scale(0.015625)"/>
       <path id="DejaVuSans-70" d="M 1159 525 
L 1159 -1331 
L 581 -1331 
L 581 3500 
L 1159 3500 
L 1159 2969 
Q 1341 3281 1617 3432 
Q 1894 3584 2278 3584 
Q 2916 3584 3314 3078 
Q 3713 2572 3713 1747 
Q 3713 922 3314 415 
Q 2916 -91 2278 -91 
Q 1894 -91 1617 61 
Q 1341 213 1159 525 
z
M 3116 1747 
Q 3116 2381 2855 2742 
Q 2594 3103 2138 3103 
Q 1681 3103 1420 2742 
Q 1159 2381 1159 1747 
Q 1159 1113 1420 752 
Q 1681 391 2138 391 
Q 2594 391 2855 752 
Q 3116 1113 3116 1747 
z
" transform="scale(0.015625)"/>
       <path id="DejaVuSans-72" d="M 2631 2963 
Q 2534 3019 2420 3045 
Q 2306 3072 2169 3072 
Q 1681 3072 1420 2755 
Q 1159 2438 1159 1844 
L 1159 0 
L 581 0 
L 581 3500 
L 1159 3500 
L 1159 2956 
Q 1341 3275 1631 3429 
Q 1922 3584 2338 3584 
Q 2397 3584 2469 3576 
Q 2541 3569 2628 3553 
L 2631 2963 
z
" transform="scale(0.015625)"/>
       <path id="DejaVuSans-74" d="M 1172 4494 
L 1172 3500 
L 2356 3500 
L 2356 3053 
L 1172 3053 
L 1172 1153 
Q 1172 725 1289 603 
Q 1406 481 1766 481 
L 2356 481 
L 2356 0 
L 1766 0 
Q 1100 0 847 248 
Q 594 497 594 1153 
L 594 3053 
L 172 3053 
L 172 3500 
L 594 3500 
L 594 4494 
L 1172 4494 
z
" transform="scale(0.015625)"/>
       <path id="DejaVuSans-6d" d="M 3328 2828 
Q 3544 3216 3844 3400 
Q 4144 3584 4550 3584 
Q 5097 3584 5394 3201 
Q 5691 2819 5691 2113 
L 5691 0 
L 5113 0 
L 5113 2094 
Q 5113 2597 4934 2840 
Q 4756 3084 4391 3084 
Q 3944 3084 3684 2787 
Q 3425 2491 3425 1978 
L 3425 0 
L 2847 0 
L 2847 2094 
Q 2847 2600 2669 2842 
Q 2491 3084 2119 3084 
Q 1678 3084 1418 2786 
Q 1159 2488 1159 1978 
L 1159 0 
L 581 0 
L 581 3500 
L 1159 3500 
L 1159 2956 
Q 1356 3278 1631 3431 
Q 1906 3584 2284 3584 
Q 2666 3584 2933 3390 
Q 3200 3197 3328 2828 
z
" transform="scale(0.015625)"/>
       <path id="DejaVuSans-6f" d="M 1959 3097 
Q 1497 3097 1228 2736 
Q 959 2375 959 1747 
Q 959 1119 1226 758 
Q 1494 397 1959 397 
Q 2419 397 2687 759 
Q 2956 1122 2956 1747 
Q 2956 2369 2687 2733 
Q 2419 3097 1959 3097 
z
M 1959 3584 
Q 2709 3584 3137 3096 
Q 3566 2609 3566 1747 
Q 3566 888 3137 398 
Q 2709 -91 1959 -91 
Q 1206 -91 779 398 
Q 353 888 353 1747 
Q 353 2609 779 3096 
Q 1206 3584 1959 3584 
z
" transform="scale(0.015625)"/>
       <path id="DejaVuSans-64" d="M 2906 2969 
L 2906 4863 
L 3481 4863 
L 3481 0 
L 2906 0 
L 2906 525 
Q 2725 213 2448 61 
Q 2172 -91 1784 -91 
Q 1150 -91 751 415 
Q 353 922 353 1747 
Q 353 2572 751 3078 
Q 1150 3584 1784 3584 
Q 2172 3584 2448 3432 
Q 2725 3281 2906 2969 
z
M 947 1747 
Q 947 1113 1208 752 
Q 1469 391 1925 391 
Q 2381 391 2643 752 
Q 2906 1113 2906 1747 
Q 2906 2381 2643 2742 
Q 2381 3103 1925 3103 
Q 1469 3103 1208 2742 
Q 947 2381 947 1747 
z
" transform="scale(0.015625)"/>
       <path id="DejaVuSans-69" d="M 603 3500 
L 1178 3500 
L 1178 0 
L 603 0 
L 603 3500 
z
M 603 4863 
L 1178 4863 
L 1178 4134 
L 603 4134 
L 603 4863 
z
" transform="scale(0.015625)"/>
       <path id="DejaVuSans-63" d="M 3122 3366 
L 3122 2828 
Q 2878 2963 2633 3030 
Q 2388 3097 2138 3097 
Q 1578 3097 1268 2742 
Q 959 2388 959 1747 
Q 959 1106 1268 751 
Q 1578 397 2138 397 
Q 2388 397 2633 464 
Q 2878 531 3122 666 
L 3122 134 
Q 2881 22 2623 -34 
Q 2366 -91 2075 -91 
Q 1284 -91 818 406 
Q 353 903 353 1747 
Q 353 2603 823 3093 
Q 1294 3584 2113 3584 
Q 2378 3584 2631 3529 
Q 2884 3475 3122 3366 
z
" transform="scale(0.015625)"/>
       <path id="DejaVuSans-6e" d="M 3513 2113 
L 3513 0 
L 2938 0 
L 2938 2094 
Q 2938 2591 2744 2837 
Q 2550 3084 2163 3084 
Q 1697 3084 1428 2787 
Q 1159 2491 1159 1978 
L 1159 0 
L 581 0 
L 581 3500 
L 1159 3500 
L 1159 2956 
Q 1366 3272 1645 3428 
Q 1925 3584 2291 3584 
Q 2894 3584 3203 3211 
Q 3513 2838 3513 2113 
z
" transform="scale(0.015625)"/>
      </defs>
      <use xlink:href="#DejaVuSans-52"/>
      <use xlink:href="#DejaVuSans-65" transform="translate(64.982422 0)"/>
      <use xlink:href="#DejaVuSans-61" transform="translate(126.505859 0)"/>
      <use xlink:href="#DejaVuSans-6c" transform="translate(187.785156 0)"/>
      <use xlink:href="#DejaVuSans-20" transform="translate(215.568359 0)"/>
      <use xlink:href="#DejaVuSans-70" transform="translate(247.355469 0)"/>
      <use xlink:href="#DejaVuSans-61" transform="translate(310.832031 0)"/>
      <use xlink:href="#DejaVuSans-72" transform="translate(372.111328 0)"/>
      <use xlink:href="#DejaVuSans-74" transform="translate(413.224609 0)"/>
      <use xlink:href="#DejaVuSans-20" transform="translate(452.433594 0)"/>
      <use xlink:href="#DejaVuSans-6d" transform="translate(484.220703 0)"/>
      <use xlink:href="#DejaVuSans-6f" transform="translate(581.632812 0)"/>
      <use xlink:href="#DejaVuSans-64" transform="translate(642.814453 0)"/>
      <use xlink:href="#DejaVuSans-65" transform="translate(706.291016 0)"/>
      <use xlink:href="#DejaVuSans-6c" transform="translate(767.814453 0)"/>
      <use xlink:href="#DejaVuSans-20" transform="translate(795.597656 0)"/>
      <use xlink:href="#DejaVuSans-70" transform="translate(827.384766 0)"/>
      <use xlink:href="#DejaVuSans-72" transform="translate(890.861328 0)"/>
      <use xlink:href="#DejaVuSans-65" transform="translate(929.724609 0)"/>
      <use xlink:href="#DejaVuSans-64" transform="translate(991.248047 0)"/>
      <use xlink:href="#DejaVuSans-69" transform="translate(1054.724609 0)"/>
      <use xlink:href="#DejaVuSans-63" transform="translate(1082.507812 0)"/>
      <use xlink:href="#DejaVuSans-74" transform="translate(1137.488281 0)"/>
      <use xlink:href="#DejaVuSans-69" transform="translate(1176.697266 0)"/>
      <use xlink:href="#DejaVuSans-6f" transform="translate(1204.480469 0)"/>
      <use xlink:href="#DejaVuSans-6e" transform="translate(1265.662109 0)"/>
     </g>
    </g>
    <g id="line2d_15">
     <path d="M 479.1715 145.097272 
L 495.1715 145.097272 
L 511.1715 145.097272 
" style="fill: none; stroke: #1f77b4; stroke-width: 1.5; stroke-linecap: square"/>
    </g>
    <g id="text_15">
     <!-- Real part true solution -->
     <g transform="translate(523.9715 150.697272) scale(0.16 -0.16)">
      <defs>
       <path id="DejaVuSans-75" d="M 544 1381 
L 544 3500 
L 1119 3500 
L 1119 1403 
Q 1119 906 1312 657 
Q 1506 409 1894 409 
Q 2359 409 2629 706 
Q 2900 1003 2900 1516 
L 2900 3500 
L 3475 3500 
L 3475 0 
L 2900 0 
L 2900 538 
Q 2691 219 2414 64 
Q 2138 -91 1772 -91 
Q 1169 -91 856 284 
Q 544 659 544 1381 
z
M 1991 3584 
L 1991 3584 
z
" transform="scale(0.015625)"/>
       <path id="DejaVuSans-73" d="M 2834 3397 
L 2834 2853 
Q 2591 2978 2328 3040 
Q 2066 3103 1784 3103 
Q 1356 3103 1142 2972 
Q 928 2841 928 2578 
Q 928 2378 1081 2264 
Q 1234 2150 1697 2047 
L 1894 2003 
Q 2506 1872 2764 1633 
Q 3022 1394 3022 966 
Q 3022 478 2636 193 
Q 2250 -91 1575 -91 
Q 1294 -91 989 -36 
Q 684 19 347 128 
L 347 722 
Q 666 556 975 473 
Q 1284 391 1588 391 
Q 1994 391 2212 530 
Q 2431 669 2431 922 
Q 2431 1156 2273 1281 
Q 2116 1406 1581 1522 
L 1381 1569 
Q 847 1681 609 1914 
Q 372 2147 372 2553 
Q 372 3047 722 3315 
Q 1072 3584 1716 3584 
Q 2034 3584 2315 3537 
Q 2597 3491 2834 3397 
z
" transform="scale(0.015625)"/>
      </defs>
      <use xlink:href="#DejaVuSans-52"/>
      <use xlink:href="#DejaVuSans-65" transform="translate(64.982422 0)"/>
      <use xlink:href="#DejaVuSans-61" transform="translate(126.505859 0)"/>
      <use xlink:href="#DejaVuSans-6c" transform="translate(187.785156 0)"/>
      <use xlink:href="#DejaVuSans-20" transform="translate(215.568359 0)"/>
      <use xlink:href="#DejaVuSans-70" transform="translate(247.355469 0)"/>
      <use xlink:href="#DejaVuSans-61" transform="translate(310.832031 0)"/>
      <use xlink:href="#DejaVuSans-72" transform="translate(372.111328 0)"/>
      <use xlink:href="#DejaVuSans-74" transform="translate(413.224609 0)"/>
      <use xlink:href="#DejaVuSans-20" transform="translate(452.433594 0)"/>
      <use xlink:href="#DejaVuSans-74" transform="translate(484.220703 0)"/>
      <use xlink:href="#DejaVuSans-72" transform="translate(523.429688 0)"/>
      <use xlink:href="#DejaVuSans-75" transform="translate(564.542969 0)"/>
      <use xlink:href="#DejaVuSans-65" transform="translate(627.921875 0)"/>
      <use xlink:href="#DejaVuSans-20" transform="translate(689.445312 0)"/>
      <use xlink:href="#DejaVuSans-73" transform="translate(721.232422 0)"/>
      <use xlink:href="#DejaVuSans-6f" transform="translate(773.332031 0)"/>
      <use xlink:href="#DejaVuSans-6c" transform="translate(834.513672 0)"/>
      <use xlink:href="#DejaVuSans-75" transform="translate(862.296875 0)"/>
      <use xlink:href="#DejaVuSans-74" transform="translate(925.675781 0)"/>
      <use xlink:href="#DejaVuSans-69" transform="translate(964.884766 0)"/>
      <use xlink:href="#DejaVuSans-6f" transform="translate(992.667969 0)"/>
      <use xlink:href="#DejaVuSans-6e" transform="translate(1053.849609 0)"/>
     </g>
    </g>
    <g id="line2d_16">
     <defs>
      <path id="m0b4fbed0ac" d="M -3 0 
L 3 0 
M 0 3 
L 0 -3 
" style="stroke: #d62728"/>
     </defs>
     <g>
      <use xlink:href="#m0b4fbed0ac" x="495.1715" y="168.582272" style="fill: #d62728; stroke: #d62728"/>
     </g>
    </g>
    <g id="text_16">
     <!-- Imaginary part model prediction -->
     <g transform="translate(523.9715 174.182272) scale(0.16 -0.16)">
      <defs>
       <path id="DejaVuSans-49" d="M 628 4666 
L 1259 4666 
L 1259 0 
L 628 0 
L 628 4666 
z
" transform="scale(0.015625)"/>
       <path id="DejaVuSans-67" d="M 2906 1791 
Q 2906 2416 2648 2759 
Q 2391 3103 1925 3103 
Q 1463 3103 1205 2759 
Q 947 2416 947 1791 
Q 947 1169 1205 825 
Q 1463 481 1925 481 
Q 2391 481 2648 825 
Q 2906 1169 2906 1791 
z
M 3481 434 
Q 3481 -459 3084 -895 
Q 2688 -1331 1869 -1331 
Q 1566 -1331 1297 -1286 
Q 1028 -1241 775 -1147 
L 775 -588 
Q 1028 -725 1275 -790 
Q 1522 -856 1778 -856 
Q 2344 -856 2625 -561 
Q 2906 -266 2906 331 
L 2906 616 
Q 2728 306 2450 153 
Q 2172 0 1784 0 
Q 1141 0 747 490 
Q 353 981 353 1791 
Q 353 2603 747 3093 
Q 1141 3584 1784 3584 
Q 2172 3584 2450 3431 
Q 2728 3278 2906 2969 
L 2906 3500 
L 3481 3500 
L 3481 434 
z
" transform="scale(0.015625)"/>
       <path id="DejaVuSans-79" d="M 2059 -325 
Q 1816 -950 1584 -1140 
Q 1353 -1331 966 -1331 
L 506 -1331 
L 506 -850 
L 844 -850 
Q 1081 -850 1212 -737 
Q 1344 -625 1503 -206 
L 1606 56 
L 191 3500 
L 800 3500 
L 1894 763 
L 2988 3500 
L 3597 3500 
L 2059 -325 
z
" transform="scale(0.015625)"/>
      </defs>
      <use xlink:href="#DejaVuSans-49"/>
      <use xlink:href="#DejaVuSans-6d" transform="translate(29.492188 0)"/>
      <use xlink:href="#DejaVuSans-61" transform="translate(126.904297 0)"/>
      <use xlink:href="#DejaVuSans-67" transform="translate(188.183594 0)"/>
      <use xlink:href="#DejaVuSans-69" transform="translate(251.660156 0)"/>
      <use xlink:href="#DejaVuSans-6e" transform="translate(279.443359 0)"/>
      <use xlink:href="#DejaVuSans-61" transform="translate(342.822266 0)"/>
      <use xlink:href="#DejaVuSans-72" transform="translate(404.101562 0)"/>
      <use xlink:href="#DejaVuSans-79" transform="translate(445.214844 0)"/>
      <use xlink:href="#DejaVuSans-20" transform="translate(504.394531 0)"/>
      <use xlink:href="#DejaVuSans-70" transform="translate(536.181641 0)"/>
      <use xlink:href="#DejaVuSans-61" transform="translate(599.658203 0)"/>
      <use xlink:href="#DejaVuSans-72" transform="translate(660.9375 0)"/>
      <use xlink:href="#DejaVuSans-74" transform="translate(702.050781 0)"/>
      <use xlink:href="#DejaVuSans-20" transform="translate(741.259766 0)"/>
      <use xlink:href="#DejaVuSans-6d" transform="translate(773.046875 0)"/>
      <use xlink:href="#DejaVuSans-6f" transform="translate(870.458984 0)"/>
      <use xlink:href="#DejaVuSans-64" transform="translate(931.640625 0)"/>
      <use xlink:href="#DejaVuSans-65" transform="translate(995.117188 0)"/>
      <use xlink:href="#DejaVuSans-6c" transform="translate(1056.640625 0)"/>
      <use xlink:href="#DejaVuSans-20" transform="translate(1084.423828 0)"/>
      <use xlink:href="#DejaVuSans-70" transform="translate(1116.210938 0)"/>
      <use xlink:href="#DejaVuSans-72" transform="translate(1179.6875 0)"/>
      <use xlink:href="#DejaVuSans-65" transform="translate(1218.550781 0)"/>
      <use xlink:href="#DejaVuSans-64" transform="translate(1280.074219 0)"/>
      <use xlink:href="#DejaVuSans-69" transform="translate(1343.550781 0)"/>
      <use xlink:href="#DejaVuSans-63" transform="translate(1371.333984 0)"/>
      <use xlink:href="#DejaVuSans-74" transform="translate(1426.314453 0)"/>
      <use xlink:href="#DejaVuSans-69" transform="translate(1465.523438 0)"/>
      <use xlink:href="#DejaVuSans-6f" transform="translate(1493.306641 0)"/>
      <use xlink:href="#DejaVuSans-6e" transform="translate(1554.488281 0)"/>
     </g>
    </g>
    <g id="line2d_17">
     <path d="M 479.1715 192.067272 
L 495.1715 192.067272 
L 511.1715 192.067272 
" style="fill: none; stroke-dasharray: 5.55,2.4; stroke-dashoffset: 0; stroke: #d62728; stroke-width: 1.5"/>
    </g>
    <g id="text_17">
     <!-- Imaginary part true solution -->
     <g transform="translate(523.9715 197.667272) scale(0.16 -0.16)">
      <use xlink:href="#DejaVuSans-49"/>
      <use xlink:href="#DejaVuSans-6d" transform="translate(29.492188 0)"/>
      <use xlink:href="#DejaVuSans-61" transform="translate(126.904297 0)"/>
      <use xlink:href="#DejaVuSans-67" transform="translate(188.183594 0)"/>
      <use xlink:href="#DejaVuSans-69" transform="translate(251.660156 0)"/>
      <use xlink:href="#DejaVuSans-6e" transform="translate(279.443359 0)"/>
      <use xlink:href="#DejaVuSans-61" transform="translate(342.822266 0)"/>
      <use xlink:href="#DejaVuSans-72" transform="translate(404.101562 0)"/>
      <use xlink:href="#DejaVuSans-79" transform="translate(445.214844 0)"/>
      <use xlink:href="#DejaVuSans-20" transform="translate(504.394531 0)"/>
      <use xlink:href="#DejaVuSans-70" transform="translate(536.181641 0)"/>
      <use xlink:href="#DejaVuSans-61" transform="translate(599.658203 0)"/>
      <use xlink:href="#DejaVuSans-72" transform="translate(660.9375 0)"/>
      <use xlink:href="#DejaVuSans-74" transform="translate(702.050781 0)"/>
      <use xlink:href="#DejaVuSans-20" transform="translate(741.259766 0)"/>
      <use xlink:href="#DejaVuSans-74" transform="translate(773.046875 0)"/>
      <use xlink:href="#DejaVuSans-72" transform="translate(812.255859 0)"/>
      <use xlink:href="#DejaVuSans-75" transform="translate(853.369141 0)"/>
      <use xlink:href="#DejaVuSans-65" transform="translate(916.748047 0)"/>
      <use xlink:href="#DejaVuSans-20" transform="translate(978.271484 0)"/>
      <use xlink:href="#DejaVuSans-73" transform="translate(1010.058594 0)"/>
      <use xlink:href="#DejaVuSans-6f" transform="translate(1062.158203 0)"/>
      <use xlink:href="#DejaVuSans-6c" transform="translate(1123.339844 0)"/>
      <use xlink:href="#DejaVuSans-75" transform="translate(1151.123047 0)"/>
      <use xlink:href="#DejaVuSans-74" transform="translate(1214.501953 0)"/>
      <use xlink:href="#DejaVuSans-69" transform="translate(1253.710938 0)"/>
      <use xlink:href="#DejaVuSans-6f" transform="translate(1281.494141 0)"/>
      <use xlink:href="#DejaVuSans-6e" transform="translate(1342.675781 0)"/>
     </g>
    </g>
   </g>
  </g>
  <g id="axes_2">
   <g id="matplotlib.axis_3">
    <g id="ytick_5">
     <g id="line2d_18">
      <defs>
       <path id="m4ad69344c1" d="M 0 0 
L 3.5 0 
" style="stroke: #000000; stroke-width: 0.8"/>
      </defs>
      <g>
       <use xlink:href="#m4ad69344c1" x="401.3475" y="272.125991" style="stroke: #000000; stroke-width: 0.8"/>
      </g>
     </g>
     <g id="text_18">
      <!-- $\mathdefault{−1.0}$ -->
      <g transform="translate(408.3475 277.444897) scale(0.14 -0.14)">
       <defs>
        <path id="DejaVuSans-2e" d="M 684 794 
L 1344 794 
L 1344 0 
L 684 0 
L 684 794 
z
" transform="scale(0.015625)"/>
       </defs>
       <use xlink:href="#DejaVuSans-2212" transform="translate(0 0.78125)"/>
       <use xlink:href="#DejaVuSans-31" transform="translate(83.789062 0.78125)"/>
       <use xlink:href="#DejaVuSans-2e" transform="translate(147.412109 0.78125)"/>
       <use xlink:href="#DejaVuSans-30" transform="translate(179.199219 0.78125)"/>
      </g>
     </g>
    </g>
    <g id="ytick_6">
     <g id="line2d_19">
      <g>
       <use xlink:href="#m4ad69344c1" x="401.3475" y="228.151247" style="stroke: #000000; stroke-width: 0.8"/>
      </g>
     </g>
     <g id="text_19">
      <!-- $\mathdefault{−0.8}$ -->
      <g transform="translate(408.3475 233.470154) scale(0.14 -0.14)">
       <use xlink:href="#DejaVuSans-2212" transform="translate(0 0.78125)"/>
       <use xlink:href="#DejaVuSans-30" transform="translate(83.789062 0.78125)"/>
       <use xlink:href="#DejaVuSans-2e" transform="translate(147.412109 0.78125)"/>
       <use xlink:href="#DejaVuSans-38" transform="translate(176.574219 0.78125)"/>
      </g>
     </g>
    </g>
    <g id="ytick_7">
     <g id="line2d_20">
      <g>
       <use xlink:href="#m4ad69344c1" x="401.3475" y="184.176504" style="stroke: #000000; stroke-width: 0.8"/>
      </g>
     </g>
     <g id="text_20">
      <!-- $\mathdefault{−0.6}$ -->
      <g transform="translate(408.3475 189.49541) scale(0.14 -0.14)">
       <use xlink:href="#DejaVuSans-2212" transform="translate(0 0.78125)"/>
       <use xlink:href="#DejaVuSans-30" transform="translate(83.789062 0.78125)"/>
       <use xlink:href="#DejaVuSans-2e" transform="translate(147.412109 0.78125)"/>
       <use xlink:href="#DejaVuSans-36" transform="translate(179.199219 0.78125)"/>
      </g>
     </g>
    </g>
    <g id="ytick_8">
     <g id="line2d_21">
      <g>
       <use xlink:href="#m4ad69344c1" x="401.3475" y="140.201761" style="stroke: #000000; stroke-width: 0.8"/>
      </g>
     </g>
     <g id="text_21">
      <!-- $\mathdefault{−0.4}$ -->
      <g transform="translate(408.3475 145.520667) scale(0.14 -0.14)">
       <use xlink:href="#DejaVuSans-2212" transform="translate(0 0.78125)"/>
       <use xlink:href="#DejaVuSans-30" transform="translate(83.789062 0.78125)"/>
       <use xlink:href="#DejaVuSans-2e" transform="translate(147.412109 0.78125)"/>
       <use xlink:href="#DejaVuSans-34" transform="translate(179.199219 0.78125)"/>
      </g>
     </g>
    </g>
    <g id="ytick_9">
     <g id="line2d_22">
      <g>
       <use xlink:href="#m4ad69344c1" x="401.3475" y="96.227017" style="stroke: #000000; stroke-width: 0.8"/>
      </g>
     </g>
     <g id="text_22">
      <!-- $\mathdefault{−0.2}$ -->
      <g transform="translate(408.3475 101.545924) scale(0.14 -0.14)">
       <use xlink:href="#DejaVuSans-2212" transform="translate(0 0.78125)"/>
       <use xlink:href="#DejaVuSans-30" transform="translate(83.789062 0.78125)"/>
       <use xlink:href="#DejaVuSans-2e" transform="translate(147.412109 0.78125)"/>
       <use xlink:href="#DejaVuSans-32" transform="translate(173.699219 0.78125)"/>
      </g>
     </g>
    </g>
    <g id="ytick_10">
     <g id="line2d_23">
      <g>
       <use xlink:href="#m4ad69344c1" x="401.3475" y="52.252274" style="stroke: #000000; stroke-width: 0.8"/>
      </g>
     </g>
     <g id="text_23">
      <!-- $\mathdefault{0.0}$ -->
      <g transform="translate(408.3475 57.57118) scale(0.14 -0.14)">
       <use xlink:href="#DejaVuSans-30" transform="translate(0 0.78125)"/>
       <use xlink:href="#DejaVuSans-2e" transform="translate(63.623047 0.78125)"/>
       <use xlink:href="#DejaVuSans-30" transform="translate(95.410156 0.78125)"/>
      </g>
     </g>
    </g>
    <g id="text_24">
     <!-- $E_0^i\,[\hbar\omega]$ -->
     <g transform="translate(461.0875 182.533812) rotate(-90) scale(0.16 -0.16)">
      <defs>
       <path id="DejaVuSans-Oblique-69" d="M 1172 4863 
L 1747 4863 
L 1606 4134 
L 1031 4134 
L 1172 4863 
z
M 909 3500 
L 1484 3500 
L 800 0 
L 225 0 
L 909 3500 
z
" transform="scale(0.015625)"/>
      </defs>
      <use xlink:href="#DejaVuSans-Oblique-45" transform="translate(0 0.529687)"/>
      <use xlink:href="#DejaVuSans-Oblique-69" transform="translate(70.200365 38.810938) scale(0.7)"/>
      <use xlink:href="#DejaVuSans-30" transform="translate(63.183594 -26.814063) scale(0.7)"/>
      <use xlink:href="#DejaVuSans-5b" transform="translate(126.689778 0.529687)"/>
      <use xlink:href="#DejaVuSans-Oblique-127" transform="translate(165.70345 0.529687)"/>
      <use xlink:href="#DejaVuSans-Oblique-3c9" transform="translate(235.185872 0.529687)"/>
      <use xlink:href="#DejaVuSans-5d" transform="translate(318.926106 0.529687)"/>
     </g>
    </g>
    <g id="text_25">
     <!-- $\times\mathdefault{10^{−2}}\mathdefault{}$ -->
     <g transform="translate(356.8275 17.837812) scale(0.14 -0.14)">
      <defs>
       <path id="DejaVuSans-d7" d="M 4488 3438 
L 3059 2003 
L 4488 575 
L 4116 197 
L 2681 1631 
L 1247 197 
L 878 575 
L 2303 2003 
L 878 3438 
L 1247 3816 
L 2681 2381 
L 4116 3816 
L 4488 3438 
z
" transform="scale(0.015625)"/>
      </defs>
      <use xlink:href="#DejaVuSans-d7" transform="translate(0 0.765625)"/>
      <use xlink:href="#DejaVuSans-31" transform="translate(83.789062 0.765625)"/>
      <use xlink:href="#DejaVuSans-30" transform="translate(147.412109 0.765625)"/>
      <use xlink:href="#DejaVuSans-2212" transform="translate(211.992188 39.046875) scale(0.7)"/>
      <use xlink:href="#DejaVuSans-32" transform="translate(270.644531 39.046875) scale(0.7)"/>
     </g>
    </g>
   </g>
   <g id="line2d_24">
    <g clip-path="url(#pbfab573cb1)">
     <use xlink:href="#m0b4fbed0ac" x="60.460227" y="52.259079" style="fill: #d62728; stroke: #d62728"/>
     <use xlink:href="#m0b4fbed0ac" x="63.739566" y="52.258171" style="fill: #d62728; stroke: #d62728"/>
     <use xlink:href="#m0b4fbed0ac" x="67.018905" y="52.258165" style="fill: #d62728; stroke: #d62728"/>
     <use xlink:href="#m0b4fbed0ac" x="70.298244" y="52.259099" style="fill: #d62728; stroke: #d62728"/>
     <use xlink:href="#m0b4fbed0ac" x="73.577583" y="52.260182" style="fill: #d62728; stroke: #d62728"/>
     <use xlink:href="#m0b4fbed0ac" x="76.856921" y="52.261707" style="fill: #d62728; stroke: #d62728"/>
     <use xlink:href="#m0b4fbed0ac" x="80.13626" y="52.263012" style="fill: #d62728; stroke: #d62728"/>
     <use xlink:href="#m0b4fbed0ac" x="83.415599" y="52.264145" style="fill: #d62728; stroke: #d62728"/>
     <use xlink:href="#m0b4fbed0ac" x="86.694938" y="52.265365" style="fill: #d62728; stroke: #d62728"/>
     <use xlink:href="#m0b4fbed0ac" x="89.974277" y="52.266501" style="fill: #d62728; stroke: #d62728"/>
     <use xlink:href="#m0b4fbed0ac" x="93.253616" y="52.267766" style="fill: #d62728; stroke: #d62728"/>
     <use xlink:href="#m0b4fbed0ac" x="96.532955" y="52.268703" style="fill: #d62728; stroke: #d62728"/>
     <use xlink:href="#m0b4fbed0ac" x="99.812293" y="52.269544" style="fill: #d62728; stroke: #d62728"/>
     <use xlink:href="#m0b4fbed0ac" x="103.091632" y="52.270262" style="fill: #d62728; stroke: #d62728"/>
     <use xlink:href="#m0b4fbed0ac" x="106.370971" y="52.27088" style="fill: #d62728; stroke: #d62728"/>
     <use xlink:href="#m0b4fbed0ac" x="109.65031" y="52.271552" style="fill: #d62728; stroke: #d62728"/>
     <use xlink:href="#m0b4fbed0ac" x="112.929649" y="52.271642" style="fill: #d62728; stroke: #d62728"/>
     <use xlink:href="#m0b4fbed0ac" x="116.208988" y="52.271779" style="fill: #d62728; stroke: #d62728"/>
     <use xlink:href="#m0b4fbed0ac" x="119.488326" y="52.271698" style="fill: #d62728; stroke: #d62728"/>
     <use xlink:href="#m0b4fbed0ac" x="122.767665" y="52.271463" style="fill: #d62728; stroke: #d62728"/>
     <use xlink:href="#m0b4fbed0ac" x="126.047004" y="52.271239" style="fill: #d62728; stroke: #d62728"/>
     <use xlink:href="#m0b4fbed0ac" x="129.326343" y="52.271138" style="fill: #d62728; stroke: #d62728"/>
     <use xlink:href="#m0b4fbed0ac" x="132.605682" y="52.271319" style="fill: #d62728; stroke: #d62728"/>
     <use xlink:href="#m0b4fbed0ac" x="135.885021" y="52.271958" style="fill: #d62728; stroke: #d62728"/>
     <use xlink:href="#m0b4fbed0ac" x="139.16436" y="52.273513" style="fill: #d62728; stroke: #d62728"/>
     <use xlink:href="#m0b4fbed0ac" x="142.443698" y="52.275835" style="fill: #d62728; stroke: #d62728"/>
     <use xlink:href="#m0b4fbed0ac" x="145.723037" y="52.278826" style="fill: #d62728; stroke: #d62728"/>
     <use xlink:href="#m0b4fbed0ac" x="149.002376" y="52.282264" style="fill: #d62728; stroke: #d62728"/>
     <use xlink:href="#m0b4fbed0ac" x="152.281715" y="52.285719" style="fill: #d62728; stroke: #d62728"/>
     <use xlink:href="#m0b4fbed0ac" x="155.561054" y="52.288441" style="fill: #d62728; stroke: #d62728"/>
     <use xlink:href="#m0b4fbed0ac" x="158.840393" y="52.289465" style="fill: #d62728; stroke: #d62728"/>
     <use xlink:href="#m0b4fbed0ac" x="162.119731" y="52.286825" style="fill: #d62728; stroke: #d62728"/>
     <use xlink:href="#m0b4fbed0ac" x="165.39907" y="52.278034" style="fill: #d62728; stroke: #d62728"/>
     <use xlink:href="#m0b4fbed0ac" x="168.678409" y="52.259241" style="fill: #d62728; stroke: #d62728"/>
     <use xlink:href="#m0b4fbed0ac" x="171.957748" y="52.224583" style="fill: #d62728; stroke: #d62728"/>
     <use xlink:href="#m0b4fbed0ac" x="175.237087" y="52.164875" style="fill: #d62728; stroke: #d62728"/>
     <use xlink:href="#m0b4fbed0ac" x="178.516426" y="52.06703" style="fill: #d62728; stroke: #d62728"/>
     <use xlink:href="#m0b4fbed0ac" x="181.795764" y="51.912874" style="fill: #d62728; stroke: #d62728"/>
     <use xlink:href="#m0b4fbed0ac" x="185.075103" y="51.678727" style="fill: #d62728; stroke: #d62728"/>
     <use xlink:href="#m0b4fbed0ac" x="188.354442" y="51.335039" style="fill: #d62728; stroke: #d62728"/>
     <use xlink:href="#m0b4fbed0ac" x="191.633781" y="50.848502" style="fill: #d62728; stroke: #d62728"/>
     <use xlink:href="#m0b4fbed0ac" x="194.91312" y="50.184309" style="fill: #d62728; stroke: #d62728"/>
     <use xlink:href="#m0b4fbed0ac" x="198.192459" y="49.31138" style="fill: #d62728; stroke: #d62728"/>
     <use xlink:href="#m0b4fbed0ac" x="201.471798" y="48.207316" style="fill: #d62728; stroke: #d62728"/>
     <use xlink:href="#m0b4fbed0ac" x="204.751136" y="46.864372" style="fill: #d62728; stroke: #d62728"/>
     <use xlink:href="#m0b4fbed0ac" x="208.030475" y="45.295994" style="fill: #d62728; stroke: #d62728"/>
     <use xlink:href="#m0b4fbed0ac" x="211.309814" y="43.538484" style="fill: #d62728; stroke: #d62728"/>
     <use xlink:href="#m0b4fbed0ac" x="214.589153" y="41.653301" style="fill: #d62728; stroke: #d62728"/>
     <use xlink:href="#m0b4fbed0ac" x="217.868492" y="39.723622" style="fill: #d62728; stroke: #d62728"/>
     <use xlink:href="#m0b4fbed0ac" x="221.147831" y="37.848629" style="fill: #d62728; stroke: #d62728"/>
     <use xlink:href="#m0b4fbed0ac" x="224.427169" y="36.136751" style="fill: #d62728; stroke: #d62728"/>
     <use xlink:href="#m0b4fbed0ac" x="227.706508" y="34.696368" style="fill: #d62728; stroke: #d62728"/>
     <use xlink:href="#m0b4fbed0ac" x="230.985847" y="33.627902" style="fill: #d62728; stroke: #d62728"/>
     <use xlink:href="#m0b4fbed0ac" x="234.265186" y="33.017711" style="fill: #d62728; stroke: #d62728"/>
     <use xlink:href="#m0b4fbed0ac" x="237.544525" y="32.933812" style="fill: #d62728; stroke: #d62728"/>
     <use xlink:href="#m0b4fbed0ac" x="240.823864" y="33.423734" style="fill: #d62728; stroke: #d62728"/>
     <use xlink:href="#m0b4fbed0ac" x="244.103202" y="34.514795" style="fill: #d62728; stroke: #d62728"/>
     <use xlink:href="#m0b4fbed0ac" x="247.382541" y="36.215945" style="fill: #d62728; stroke: #d62728"/>
     <use xlink:href="#m0b4fbed0ac" x="250.66188" y="38.520092" style="fill: #d62728; stroke: #d62728"/>
     <use xlink:href="#m0b4fbed0ac" x="253.941219" y="41.407626" style="fill: #d62728; stroke: #d62728"/>
     <use xlink:href="#m0b4fbed0ac" x="257.220558" y="44.849293" style="fill: #d62728; stroke: #d62728"/>
     <use xlink:href="#m0b4fbed0ac" x="260.499897" y="48.809314" style="fill: #d62728; stroke: #d62728"/>
     <use xlink:href="#m0b4fbed0ac" x="263.779236" y="53.247871" style="fill: #d62728; stroke: #d62728"/>
     <use xlink:href="#m0b4fbed0ac" x="267.058574" y="58.123121" style="fill: #d62728; stroke: #d62728"/>
     <use xlink:href="#m0b4fbed0ac" x="270.337913" y="63.392723" style="fill: #d62728; stroke: #d62728"/>
     <use xlink:href="#m0b4fbed0ac" x="273.617252" y="69.015226" style="fill: #d62728; stroke: #d62728"/>
     <use xlink:href="#m0b4fbed0ac" x="276.896591" y="74.950333" style="fill: #d62728; stroke: #d62728"/>
     <use xlink:href="#m0b4fbed0ac" x="280.17593" y="81.160111" style="fill: #d62728; stroke: #d62728"/>
     <use xlink:href="#m0b4fbed0ac" x="283.455269" y="87.608613" style="fill: #d62728; stroke: #d62728"/>
     <use xlink:href="#m0b4fbed0ac" x="286.734607" y="94.262089" style="fill: #d62728; stroke: #d62728"/>
     <use xlink:href="#m0b4fbed0ac" x="290.013946" y="101.088754" style="fill: #d62728; stroke: #d62728"/>
     <use xlink:href="#m0b4fbed0ac" x="293.293285" y="108.059106" style="fill: #d62728; stroke: #d62728"/>
     <use xlink:href="#m0b4fbed0ac" x="296.572624" y="115.145441" style="fill: #d62728; stroke: #d62728"/>
     <use xlink:href="#m0b4fbed0ac" x="299.851963" y="122.321345" style="fill: #d62728; stroke: #d62728"/>
     <use xlink:href="#m0b4fbed0ac" x="303.131302" y="129.562023" style="fill: #d62728; stroke: #d62728"/>
     <use xlink:href="#m0b4fbed0ac" x="306.41064" y="136.843543" style="fill: #d62728; stroke: #d62728"/>
     <use xlink:href="#m0b4fbed0ac" x="309.689979" y="144.143222" style="fill: #d62728; stroke: #d62728"/>
     <use xlink:href="#m0b4fbed0ac" x="312.969318" y="151.438887" style="fill: #d62728; stroke: #d62728"/>
     <use xlink:href="#m0b4fbed0ac" x="316.248657" y="158.709191" style="fill: #d62728; stroke: #d62728"/>
     <use xlink:href="#m0b4fbed0ac" x="319.527996" y="165.933523" style="fill: #d62728; stroke: #d62728"/>
     <use xlink:href="#m0b4fbed0ac" x="322.807335" y="173.091407" style="fill: #d62728; stroke: #d62728"/>
     <use xlink:href="#m0b4fbed0ac" x="326.086674" y="180.163429" style="fill: #d62728; stroke: #d62728"/>
     <use xlink:href="#m0b4fbed0ac" x="329.366012" y="187.130238" style="fill: #d62728; stroke: #d62728"/>
     <use xlink:href="#m0b4fbed0ac" x="332.645351" y="193.973323" style="fill: #d62728; stroke: #d62728"/>
     <use xlink:href="#m0b4fbed0ac" x="335.92469" y="200.674787" style="fill: #d62728; stroke: #d62728"/>
     <use xlink:href="#m0b4fbed0ac" x="339.204029" y="207.217398" style="fill: #d62728; stroke: #d62728"/>
     <use xlink:href="#m0b4fbed0ac" x="342.483368" y="213.584857" style="fill: #d62728; stroke: #d62728"/>
     <use xlink:href="#m0b4fbed0ac" x="345.762707" y="219.761507" style="fill: #d62728; stroke: #d62728"/>
     <use xlink:href="#m0b4fbed0ac" x="349.042045" y="225.732862" style="fill: #d62728; stroke: #d62728"/>
     <use xlink:href="#m0b4fbed0ac" x="352.321384" y="231.485437" style="fill: #d62728; stroke: #d62728"/>
     <use xlink:href="#m0b4fbed0ac" x="355.600723" y="237.006884" style="fill: #d62728; stroke: #d62728"/>
     <use xlink:href="#m0b4fbed0ac" x="358.880062" y="242.285982" style="fill: #d62728; stroke: #d62728"/>
     <use xlink:href="#m0b4fbed0ac" x="362.159401" y="247.312718" style="fill: #d62728; stroke: #d62728"/>
     <use xlink:href="#m0b4fbed0ac" x="365.43874" y="252.078469" style="fill: #d62728; stroke: #d62728"/>
     <use xlink:href="#m0b4fbed0ac" x="368.718079" y="256.575579" style="fill: #d62728; stroke: #d62728"/>
     <use xlink:href="#m0b4fbed0ac" x="371.997417" y="260.798026" style="fill: #d62728; stroke: #d62728"/>
     <use xlink:href="#m0b4fbed0ac" x="375.276756" y="264.740425" style="fill: #d62728; stroke: #d62728"/>
     <use xlink:href="#m0b4fbed0ac" x="378.556095" y="268.399029" style="fill: #d62728; stroke: #d62728"/>
     <use xlink:href="#m0b4fbed0ac" x="381.835434" y="271.770806" style="fill: #d62728; stroke: #d62728"/>
     <use xlink:href="#m0b4fbed0ac" x="385.114773" y="274.853812" style="fill: #d62728; stroke: #d62728"/>
    </g>
   </g>
   <g id="line2d_25">
    <path d="M 60.460227 52.252274 
L 63.739566 52.252274 
L 67.018905 52.252274 
L 70.298244 52.252274 
L 73.577583 52.252274 
L 76.856921 52.252274 
L 80.13626 52.252274 
L 83.415599 52.252274 
L 86.694938 52.252274 
L 89.974277 52.252274 
L 93.253616 52.252274 
L 96.532955 52.252274 
L 99.812293 52.252274 
L 103.091632 52.252274 
L 106.370971 52.252274 
L 109.65031 52.252274 
L 112.929649 52.252274 
L 116.208988 52.252274 
L 119.488326 52.252274 
L 122.767665 52.252274 
L 126.047004 52.252274 
L 129.326343 52.252274 
L 132.605682 52.252274 
L 135.885021 52.252274 
L 139.16436 52.252274 
L 142.443698 52.252274 
L 145.723037 52.252274 
L 149.002376 52.252274 
L 152.281715 52.252274 
L 155.561054 52.252274 
L 158.840393 52.252274 
L 162.119731 52.252274 
L 165.39907 52.252274 
L 168.678409 52.252274 
L 171.957748 52.252274 
L 175.237087 52.252274 
L 178.516426 52.252274 
L 181.795764 52.252274 
L 185.075103 52.252274 
L 188.354442 52.252274 
L 191.633781 52.252274 
L 194.91312 52.252274 
L 198.192459 52.252274 
L 201.471798 52.252274 
L 204.751136 52.252274 
L 208.030475 52.252274 
L 211.309814 52.252274 
L 214.589153 52.252274 
L 217.868492 52.252274 
L 221.147831 52.252274 
L 224.427169 52.252274 
L 227.706508 52.252274 
L 230.985847 52.252274 
L 234.265186 52.252274 
L 237.544525 52.252274 
L 240.823864 52.252274 
L 244.103202 52.252274 
L 247.382541 52.252274 
L 250.66188 52.252274 
L 253.941219 52.252274 
L 257.220558 52.252274 
L 260.499897 52.252274 
L 263.779236 52.252274 
L 267.058574 52.252274 
L 270.337913 52.252274 
L 273.617252 52.252274 
L 276.896591 52.252274 
L 280.17593 52.252274 
L 283.455269 52.252274 
L 286.734607 52.252274 
L 290.013946 52.252274 
L 293.293285 52.252274 
L 296.572624 52.252274 
L 299.851963 52.252274 
L 303.131302 52.252274 
L 306.41064 52.252274 
L 309.689979 52.252274 
L 312.969318 52.252274 
L 316.248657 52.252274 
L 319.527996 52.252274 
L 322.807335 52.252274 
L 326.086674 52.252274 
L 329.366012 52.252274 
L 332.645351 52.252274 
L 335.92469 52.252274 
L 339.204029 52.252274 
L 342.483368 52.252274 
L 345.762707 52.252274 
L 349.042045 52.252274 
L 352.321384 52.252274 
L 355.600723 52.252274 
L 358.880062 52.252274 
L 362.159401 52.252274 
L 365.43874 52.252274 
L 368.718079 52.252274 
L 371.997417 52.252274 
L 375.276756 52.252274 
L 378.556095 52.252274 
L 381.835434 52.252274 
L 385.114773 52.252274 
" clip-path="url(#pbfab573cb1)" style="fill: none; stroke-dasharray: 5.55,2.4; stroke-dashoffset: 0; stroke: #d62728; stroke-width: 1.5"/>
   </g>
   <g id="patch_8">
    <path d="M 44.2275 286.949812 
L 44.2275 20.837812 
" style="fill: none; stroke: #000000; stroke-width: 0.8; stroke-linejoin: miter; stroke-linecap: square"/>
   </g>
   <g id="patch_9">
    <path d="M 401.3475 286.949812 
L 401.3475 20.837812 
" style="fill: none; stroke: #000000; stroke-width: 0.8; stroke-linejoin: miter; stroke-linecap: square"/>
   </g>
   <g id="patch_10">
    <path d="M 44.2275 286.949812 
L 401.3475 286.949812 
" style="fill: none; stroke: #000000; stroke-width: 0.8; stroke-linejoin: miter; stroke-linecap: square"/>
   </g>
   <g id="patch_11">
    <path d="M 44.2275 20.837812 
L 401.3475 20.837812 
" style="fill: none; stroke: #000000; stroke-width: 0.8; stroke-linejoin: miter; stroke-linecap: square"/>
   </g>
  </g>
 </g>
 <defs>
  <clipPath id="pbfab573cb1">
   <rect x="44.2275" y="20.837812" width="357.12" height="266.112"/>
  </clipPath>
 </defs>
</svg>
