<?xml version="1.0" encoding="utf-8" standalone="no"?>
<!DOCTYPE svg PUBLIC "-//W3C//DTD SVG 1.1//EN"
  "http://www.w3.org/Graphics/SVG/1.1/DTD/svg11.dtd">
<svg xmlns:xlink="http://www.w3.org/1999/xlink" width="846pt" height="867.196875pt" viewBox="0 0 846 867.196875" xmlns="http://www.w3.org/2000/svg" version="1.1">
 <metadata>
  <rdf:RDF xmlns:dc="http://purl.org/dc/elements/1.1/" xmlns:cc="http://creativecommons.org/ns#" xmlns:rdf="http://www.w3.org/1999/02/22-rdf-syntax-ns#">
   <cc:Work>
    <dc:type rdf:resource="http://purl.org/dc/dcmitype/StillImage"/>
    <dc:date>2026-06-01T13:08:48.001930</dc:date>
    <dc:format>image/svg+xml</dc:format>
    <dc:creator>
     <cc:Agent>
      <dc:title>Matplotlib v3.10.6, https://matplotlib.org/</dc:title>
     </cc:Agent>
    </dc:creator>
   </cc:Work>
  </rdf:RDF>
 </metadata>
 <defs>
  <style type="text/css">*{stroke-linejoin: round; stroke-linecap: butt}</style>
 </defs>
 <g id="figure_1">
  <g id="patch_1">
   <path d="M 0 867.196875 
L 846 867.196875 
L 846 0 
L 0 0 
z
" style="fill: #ffffff"/>
  </g>
  <g id="patch_2">
   <path d="M 7.2 859.996875 
L 838.8 859.996875 
L 838.8 28.396875 
L 7.2 28.396875 
z
" style="fill: #ffffff"/>
  </g>
  <g id="pane3d_1">
   <g id="patch_3">
    <path d="M 96.476709 696.476362 
L 350.791707 540.243074 
L 347.80615 102.209941 
L 83.266895 223.763839 
" style="fill: #f2f2f2; opacity: 0.5; stroke: #f2f2f2; stroke-linejoin: miter"/>
   </g>
  </g>
  <g id="pane3d_2">
   <g id="patch_4">
    <path d="M 350.791707 540.243074 
L 759.629284 626.907652 
L 771.871726 169.540985 
L 347.80615 102.209941 
" style="fill: #e6e6e6; opacity: 0.5; stroke: #e6e6e6; stroke-linejoin: miter"/>
   </g>
  </g>
  <g id="pane3d_3">
   <g id="patch_5">
    <path d="M 96.476709 696.476362 
L 530.109003 799.830284 
L 759.629284 626.907652 
L 350.791707 540.243074 
" style="fill: #ececec; opacity: 0.5; stroke: #ececec; stroke-linejoin: miter"/>
   </g>
  </g>
  <g id="grid3d_1">
   <g id="Line3DCollection_1">
    <path d="M 96.476709 696.476362 
L 350.791707 540.243074 
L 347.80615 102.209941 
" style="fill: none; stroke: #b0b0b0; stroke-width: 0.8"/>
    <path d="M 148.217526 708.808507 
L 399.766169 550.624583 
L 398.525224 110.262866 
" style="fill: none; stroke: #b0b0b0; stroke-width: 0.8"/>
    <path d="M 200.634527 721.301817 
L 449.327394 561.130473 
L 449.873975 118.415767 
" style="fill: none; stroke: #b0b0b0; stroke-width: 0.8"/>
    <path d="M 253.741056 733.959472 
L 499.485989 571.762993 
L 501.8642 126.670519 
" style="fill: none; stroke: #b0b0b0; stroke-width: 0.8"/>
    <path d="M 307.550808 746.784736 
L 550.252822 582.524445 
L 554.507995 135.029042 
" style="fill: none; stroke: #b0b0b0; stroke-width: 0.8"/>
    <path d="M 362.077844 759.780962 
L 601.639021 593.417189 
L 607.817764 143.493304 
" style="fill: none; stroke: #b0b0b0; stroke-width: 0.8"/>
    <path d="M 417.336602 772.951589 
L 653.655992 604.443644 
L 661.806223 152.065326 
" style="fill: none; stroke: #b0b0b0; stroke-width: 0.8"/>
    <path d="M 473.341911 786.300153 
L 706.315421 615.606285 
L 716.486417 160.747178 
" style="fill: none; stroke: #b0b0b0; stroke-width: 0.8"/>
    <path d="M 530.109003 799.830284 
L 759.629284 626.907652 
L 771.871726 169.540985 
" style="fill: none; stroke: #b0b0b0; stroke-width: 0.8"/>
   </g>
  </g>
  <g id="grid3d_2">
   <g id="Line3DCollection_2">
    <path d="M 111.917417 210.599129 
L 123.941135 679.604146 
L 554.994644 781.08122 
" style="fill: none; stroke: #b0b0b0; stroke-width: 0.8"/>
    <path d="M 167.661203 184.985257 
L 177.43191 646.743167 
L 603.393936 744.61676 
" style="fill: none; stroke: #b0b0b0; stroke-width: 0.8"/>
    <path d="M 221.421017 160.283007 
L 229.087482 615.009609 
L 650.046438 709.468348 
" style="fill: none; stroke: #b0b0b0; stroke-width: 0.8"/>
    <path d="M 273.300924 136.44456 
L 279.000703 584.346428 
L 695.045039 675.565999 
" style="fill: none; stroke: #b0b0b0; stroke-width: 0.8"/>
    <path d="M 323.397837 113.425386 
L 327.258265 554.700368 
L 738.476158 642.844607 
" style="fill: none; stroke: #b0b0b0; stroke-width: 0.8"/>
   </g>
  </g>
  <g id="grid3d_3">
   <g id="Line3DCollection_3">
    <path d="M 759.629284 626.907652 
L 350.791707 540.243074 
L 96.476709 696.476362 
" style="fill: none; stroke: #b0b0b0; stroke-width: 0.8"/>
    <path d="M 761.110816 571.558941 
L 350.429841 487.15103 
L 94.88012 639.342485 
" style="fill: none; stroke: #b0b0b0; stroke-width: 0.8"/>
    <path d="M 762.605901 515.70391 
L 350.064822 433.596511 
L 93.268364 581.665903 
" style="fill: none; stroke: #b0b0b0; stroke-width: 0.8"/>
    <path d="M 764.114725 459.335581 
L 349.696611 379.573448 
L 91.641226 523.438844 
" style="fill: none; stroke: #b0b0b0; stroke-width: 0.8"/>
    <path d="M 765.637479 402.446845 
L 349.325163 325.075665 
L 89.998484 464.65339 
" style="fill: none; stroke: #b0b0b0; stroke-width: 0.8"/>
    <path d="M 767.174357 345.030462 
L 348.950438 270.096876 
L 88.339911 405.301471 
" style="fill: none; stroke: #b0b0b0; stroke-width: 0.8"/>
    <path d="M 768.725556 287.079057 
L 348.57239 214.630685 
L 86.66528 345.374858 
" style="fill: none; stroke: #b0b0b0; stroke-width: 0.8"/>
    <path d="M 770.291277 228.585116 
L 348.190975 158.670582 
L 84.974354 284.865165 
" style="fill: none; stroke: #b0b0b0; stroke-width: 0.8"/>
    <path d="M 771.871726 169.540985 
L 347.80615 102.209941 
L 83.266895 223.763839 
" style="fill: none; stroke: #b0b0b0; stroke-width: 0.8"/>
   </g>
  </g>
  <g id="axis3d_1">
   <g id="line2d_1">
    <path d="M 96.476709 696.476362 
L 530.109003 799.830284 
" style="fill: none; stroke: #000000; stroke-width: 0.8; stroke-linecap: square"/>
   </g>
   <g id="xtick_1">
    <g id="line2d_2">
     <path d="M 98.691965 695.115464 
L 92.036655 699.204019 
" style="fill: none; stroke: #000000; stroke-width: 0.8; stroke-linecap: square"/>
    </g>
    <g id="text_1">
     <!-- −1.00 -->
     <g transform="translate(64.930803 725.255427) scale(0.16 -0.16)">
      <defs>
       <path id="DejaVuSans-2212" d="M 678 2272 
L 4684 2272 
L 4684 1741 
L 678 1741 
L 678 2272 
z
" transform="scale(0.015625)"/>
       <path id="DejaVuSans-31" d="M 794 531 
L 1825 531 
L 1825 4091 
L 703 3866 
L 703 4441 
L 1819 4666 
L 2450 4666 
L 2450 531 
L 3481 531 
L 3481 0 
L 794 0 
L 794 531 
z
" transform="scale(0.015625)"/>
       <path id="DejaVuSans-2e" d="M 684 794 
L 1344 794 
L 1344 0 
L 684 0 
L 684 794 
z
" transform="scale(0.015625)"/>
       <path id="DejaVuSans-30" d="M 2034 4250 
Q 1547 4250 1301 3770 
Q 1056 3291 1056 2328 
Q 1056 1369 1301 889 
Q 1547 409 2034 409 
Q 2525 409 2770 889 
Q 3016 1369 3016 2328 
Q 3016 3291 2770 3770 
Q 2525 4250 2034 4250 
z
M 2034 4750 
Q 2819 4750 3233 4129 
Q 3647 3509 3647 2328 
Q 3647 1150 3233 529 
Q 2819 -91 2034 -91 
Q 1250 -91 836 529 
Q 422 1150 422 2328 
Q 422 3509 836 4129 
Q 1250 4750 2034 4750 
z
" transform="scale(0.015625)"/>
      </defs>
      <use xlink:href="#DejaVuSans-2212"/>
      <use xlink:href="#DejaVuSans-31" transform="translate(83.789062 0)"/>
      <use xlink:href="#DejaVuSans-2e" transform="translate(147.412109 0)"/>
      <use xlink:href="#DejaVuSans-30" transform="translate(179.199219 0)"/>
      <use xlink:href="#DejaVuSans-30" transform="translate(242.822266 0)"/>
     </g>
    </g>
   </g>
   <g id="xtick_2">
    <g id="line2d_3">
     <path d="M 150.409844 707.429888 
L 143.823383 711.571721 
" style="fill: none; stroke: #000000; stroke-width: 0.8; stroke-linecap: square"/>
    </g>
    <g id="text_2">
     <!-- −0.75 -->
     <g transform="translate(116.697889 737.712781) scale(0.16 -0.16)">
      <defs>
       <path id="DejaVuSans-37" d="M 525 4666 
L 3525 4666 
L 3525 4397 
L 1831 0 
L 1172 0 
L 2766 4134 
L 525 4134 
L 525 4666 
z
" transform="scale(0.015625)"/>
       <path id="DejaVuSans-35" d="M 691 4666 
L 3169 4666 
L 3169 4134 
L 1269 4134 
L 1269 2991 
Q 1406 3038 1543 3061 
Q 1681 3084 1819 3084 
Q 2600 3084 3056 2656 
Q 3513 2228 3513 1497 
Q 3513 744 3044 326 
Q 2575 -91 1722 -91 
Q 1428 -91 1123 -41 
Q 819 9 494 109 
L 494 744 
Q 775 591 1075 516 
Q 1375 441 1709 441 
Q 2250 441 2565 725 
Q 2881 1009 2881 1497 
Q 2881 1984 2565 2268 
Q 2250 2553 1709 2553 
Q 1456 2553 1204 2497 
Q 953 2441 691 2322 
L 691 4666 
z
" transform="scale(0.015625)"/>
      </defs>
      <use xlink:href="#DejaVuSans-2212"/>
      <use xlink:href="#DejaVuSans-30" transform="translate(83.789062 0)"/>
      <use xlink:href="#DejaVuSans-2e" transform="translate(147.412109 0)"/>
      <use xlink:href="#DejaVuSans-37" transform="translate(179.199219 0)"/>
      <use xlink:href="#DejaVuSans-35" transform="translate(242.822266 0)"/>
     </g>
    </g>
   </g>
   <g id="xtick_3">
    <g id="line2d_4">
     <path d="M 202.803118 719.905129 
L 196.287881 724.101287 
" style="fill: none; stroke: #000000; stroke-width: 0.8; stroke-linecap: square"/>
    </g>
    <g id="text_3">
     <!-- −0.50 -->
     <g transform="translate(169.14245 750.333165) scale(0.16 -0.16)">
      <use xlink:href="#DejaVuSans-2212"/>
      <use xlink:href="#DejaVuSans-30" transform="translate(83.789062 0)"/>
      <use xlink:href="#DejaVuSans-2e" transform="translate(147.412109 0)"/>
      <use xlink:href="#DejaVuSans-35" transform="translate(179.199219 0)"/>
      <use xlink:href="#DejaVuSans-30" transform="translate(242.822266 0)"/>
     </g>
    </g>
   </g>
   <g id="xtick_4">
    <g id="line2d_5">
     <path d="M 255.885104 732.544358 
L 249.443541 736.795916 
" style="fill: none; stroke: #000000; stroke-width: 0.8; stroke-linecap: square"/>
    </g>
    <g id="text_4">
     <!-- −0.25 -->
     <g transform="translate(222.277874 763.119799) scale(0.16 -0.16)">
      <defs>
       <path id="DejaVuSans-32" d="M 1228 531 
L 3431 531 
L 3431 0 
L 469 0 
L 469 531 
Q 828 903 1448 1529 
Q 2069 2156 2228 2338 
Q 2531 2678 2651 2914 
Q 2772 3150 2772 3378 
Q 2772 3750 2511 3984 
Q 2250 4219 1831 4219 
Q 1534 4219 1204 4116 
Q 875 4013 500 3803 
L 500 4441 
Q 881 4594 1212 4672 
Q 1544 4750 1819 4750 
Q 2544 4750 2975 4387 
Q 3406 4025 3406 3419 
Q 3406 3131 3298 2873 
Q 3191 2616 2906 2266 
Q 2828 2175 2409 1742 
Q 1991 1309 1228 531 
z
" transform="scale(0.015625)"/>
      </defs>
      <use xlink:href="#DejaVuSans-2212"/>
      <use xlink:href="#DejaVuSans-30" transform="translate(83.789062 0)"/>
      <use xlink:href="#DejaVuSans-2e" transform="translate(147.412109 0)"/>
      <use xlink:href="#DejaVuSans-32" transform="translate(179.199219 0)"/>
      <use xlink:href="#DejaVuSans-35" transform="translate(242.822266 0)"/>
     </g>
    </g>
   </g>
   <g id="xtick_5">
    <g id="line2d_6">
     <path d="M 309.669471 745.350829 
L 303.304112 749.658892 
" style="fill: none; stroke: #000000; stroke-width: 0.8; stroke-linecap: square"/>
    </g>
    <g id="text_5">
     <!-- 0.00 -->
     <g transform="translate(282.821651 776.075991) scale(0.16 -0.16)">
      <use xlink:href="#DejaVuSans-30"/>
      <use xlink:href="#DejaVuSans-2e" transform="translate(63.623047 0)"/>
      <use xlink:href="#DejaVuSans-30" transform="translate(95.410156 0)"/>
      <use xlink:href="#DejaVuSans-30" transform="translate(159.033203 0)"/>
     </g>
    </g>
   </g>
   <g id="xtick_6">
    <g id="line2d_7">
     <path d="M 364.170253 758.327884 
L 357.883711 762.693586 
" style="fill: none; stroke: #000000; stroke-width: 0.8; stroke-linecap: square"/>
    </g>
    <g id="text_6">
     <!-- 0.25 -->
     <g transform="translate(337.380391 789.205136) scale(0.16 -0.16)">
      <use xlink:href="#DejaVuSans-30"/>
      <use xlink:href="#DejaVuSans-2e" transform="translate(63.623047 0)"/>
      <use xlink:href="#DejaVuSans-32" transform="translate(95.410156 0)"/>
      <use xlink:href="#DejaVuSans-35" transform="translate(159.033203 0)"/>
     </g>
    </g>
   </g>
   <g id="xtick_7">
    <g id="line2d_8">
     <path d="M 419.40186 771.478953 
L 413.196831 775.90346 
" style="fill: none; stroke: #000000; stroke-width: 0.8; stroke-linecap: square"/>
    </g>
    <g id="text_7">
     <!-- 0.50 -->
     <g transform="translate(392.672332 802.51072) scale(0.16 -0.16)">
      <use xlink:href="#DejaVuSans-30"/>
      <use xlink:href="#DejaVuSans-2e" transform="translate(63.623047 0)"/>
      <use xlink:href="#DejaVuSans-35" transform="translate(95.410156 0)"/>
      <use xlink:href="#DejaVuSans-30" transform="translate(159.033203 0)"/>
     </g>
    </g>
   </g>
   <g id="xtick_8">
    <g id="line2d_9">
     <path d="M 475.379091 784.807562 
L 469.25836 789.292069 
" style="fill: none; stroke: #000000; stroke-width: 0.8; stroke-linecap: square"/>
    </g>
    <g id="text_8">
     <!-- 0.75 -->
     <g transform="translate(448.712352 815.996323) scale(0.16 -0.16)">
      <use xlink:href="#DejaVuSans-30"/>
      <use xlink:href="#DejaVuSans-2e" transform="translate(63.623047 0)"/>
      <use xlink:href="#DejaVuSans-37" transform="translate(95.410156 0)"/>
      <use xlink:href="#DejaVuSans-35" transform="translate(159.033203 0)"/>
     </g>
    </g>
   </g>
   <g id="xtick_9">
    <g id="line2d_10">
     <path d="M 532.117148 798.317329 
L 526.083591 802.863065 
" style="fill: none; stroke: #000000; stroke-width: 0.8; stroke-linecap: square"/>
    </g>
    <g id="text_9">
     <!-- 1.00 -->
     <g transform="translate(505.515739 829.665625) scale(0.16 -0.16)">
      <use xlink:href="#DejaVuSans-31"/>
      <use xlink:href="#DejaVuSans-2e" transform="translate(63.623047 0)"/>
      <use xlink:href="#DejaVuSans-30" transform="translate(95.410156 0)"/>
      <use xlink:href="#DejaVuSans-30" transform="translate(159.033203 0)"/>
     </g>
    </g>
   </g>
   <g id="text_10">
    <!-- $Ψ_i(x,t)$ -->
    <g transform="translate(262.156691 791.256604) rotate(-346.593981) scale(0.16 -0.16)">
     <defs>
      <path id="DejaVuSans-3a8" d="M 2206 0 
Q 2209 419 2206 969 
Q 1538 969 950 1625 
Q 375 2263 359 3388 
L 359 4666 
L 1025 4666 
L 1025 3388 
Q 1025 2506 1431 1994 
Q 1775 1556 2206 1513 
L 2206 4666 
L 2838 4666 
L 2838 1513 
Q 3269 1556 3613 1994 
Q 4019 2506 4019 3388 
L 4019 4666 
L 4684 4666 
L 4684 3388 
Q 4669 2263 4094 1625 
Q 3506 969 2838 969 
Q 2834 744 2838 0 
L 2206 0 
z
" transform="scale(0.015625)"/>
      <path id="DejaVuSans-Oblique-69" d="M 1172 4863 
L 1747 4863 
L 1606 4134 
L 1031 4134 
L 1172 4863 
z
M 909 3500 
L 1484 3500 
L 800 0 
L 225 0 
L 909 3500 
z
" transform="scale(0.015625)"/>
      <path id="DejaVuSans-28" d="M 1984 4856 
Q 1566 4138 1362 3434 
Q 1159 2731 1159 2009 
Q 1159 1288 1364 580 
Q 1569 -128 1984 -844 
L 1484 -844 
Q 1016 -109 783 600 
Q 550 1309 550 2009 
Q 550 2706 781 3412 
Q 1013 4119 1484 4856 
L 1984 4856 
z
" transform="scale(0.015625)"/>
      <path id="DejaVuSans-Oblique-78" d="M 3841 3500 
L 2234 1784 
L 3219 0 
L 2559 0 
L 1819 1388 
L 531 0 
L -166 0 
L 1556 1844 
L 641 3500 
L 1300 3500 
L 1972 2234 
L 3144 3500 
L 3841 3500 
z
" transform="scale(0.015625)"/>
      <path id="DejaVuSans-2c" d="M 750 794 
L 1409 794 
L 1409 256 
L 897 -744 
L 494 -744 
L 750 256 
L 750 794 
z
" transform="scale(0.015625)"/>
      <path id="DejaVuSans-Oblique-74" d="M 2706 3500 
L 2619 3053 
L 1472 3053 
L 1100 1153 
Q 1081 1047 1072 975 
Q 1063 903 1063 863 
Q 1063 663 1183 572 
Q 1303 481 1569 481 
L 2150 481 
L 2053 0 
L 1503 0 
Q 991 0 739 200 
Q 488 400 488 806 
Q 488 878 497 964 
Q 506 1050 525 1153 
L 897 3053 
L 409 3053 
L 500 3500 
L 978 3500 
L 1172 4494 
L 1747 4494 
L 1556 3500 
L 2706 3500 
z
" transform="scale(0.015625)"/>
      <path id="DejaVuSans-29" d="M 513 4856 
L 1013 4856 
Q 1481 4119 1714 3412 
Q 1947 2706 1947 2009 
Q 1947 1309 1714 600 
Q 1481 -109 1013 -844 
L 513 -844 
Q 928 -128 1133 580 
Q 1338 1288 1338 2009 
Q 1338 2731 1133 3434 
Q 928 4138 513 4856 
z
" transform="scale(0.015625)"/>
     </defs>
     <use xlink:href="#DejaVuSans-3a8" transform="translate(0 0.125)"/>
     <use xlink:href="#DejaVuSans-Oblique-69" transform="translate(79.667969 -16.28125) scale(0.7)"/>
     <use xlink:href="#DejaVuSans-28" transform="translate(101.850586 0.125)"/>
     <use xlink:href="#DejaVuSans-Oblique-78" transform="translate(140.864258 0.125)"/>
     <use xlink:href="#DejaVuSans-2c" transform="translate(200.043945 0.125)"/>
     <use xlink:href="#DejaVuSans-Oblique-74" transform="translate(251.313477 0.125)"/>
     <use xlink:href="#DejaVuSans-29" transform="translate(290.522461 0.125)"/>
    </g>
   </g>
  </g>
  <g id="axis3d_2">
   <g id="line2d_11">
    <path d="M 759.629284 626.907652 
L 530.109003 799.830284 
" style="fill: none; stroke: #000000; stroke-width: 0.8; stroke-linecap: square"/>
   </g>
   <g id="xtick_10">
    <g id="line2d_12">
     <path d="M 551.361916 780.226016 
L 562.269504 782.793841 
" style="fill: none; stroke: #000000; stroke-width: 0.8; stroke-linecap: square"/>
    </g>
    <g id="text_11">
     <!-- −4 -->
     <g transform="translate(555.141335 808.612581) scale(0.16 -0.16)">
      <defs>
       <path id="DejaVuSans-34" d="M 2419 4116 
L 825 1625 
L 2419 1625 
L 2419 4116 
z
M 2253 4666 
L 3047 4666 
L 3047 1625 
L 3713 1625 
L 3713 1100 
L 3047 1100 
L 3047 0 
L 2419 0 
L 2419 1100 
L 313 1100 
L 313 1709 
L 2253 4666 
z
" transform="scale(0.015625)"/>
      </defs>
      <use xlink:href="#DejaVuSans-2212"/>
      <use xlink:href="#DejaVuSans-34" transform="translate(83.789062 0)"/>
     </g>
    </g>
   </g>
   <g id="xtick_11">
    <g id="line2d_13">
     <path d="M 599.807463 743.792693 
L 610.575998 746.266987 
" style="fill: none; stroke: #000000; stroke-width: 0.8; stroke-linecap: square"/>
    </g>
    <g id="text_12">
     <!-- −2 -->
     <g transform="translate(603.339516 771.851619) scale(0.16 -0.16)">
      <use xlink:href="#DejaVuSans-2212"/>
      <use xlink:href="#DejaVuSans-32" transform="translate(83.789062 0)"/>
     </g>
    </g>
   </g>
   <g id="xtick_12">
    <g id="line2d_14">
     <path d="M 646.505277 708.673748 
L 657.1376 711.059529 
" style="fill: none; stroke: #000000; stroke-width: 0.8; stroke-linecap: square"/>
    </g>
    <g id="text_13">
     <!-- 0 -->
     <g transform="translate(656.501266 736.417901) scale(0.16 -0.16)">
      <use xlink:href="#DejaVuSans-30"/>
     </g>
    </g>
   </g>
   <g id="xtick_13">
    <g id="line2d_15">
     <path d="M 691.548258 674.799315 
L 702.047174 677.101248 
" style="fill: none; stroke: #000000; stroke-width: 0.8; stroke-linecap: square"/>
    </g>
    <g id="text_14">
     <!-- 2 -->
     <g transform="translate(701.311655 702.240821) scale(0.16 -0.16)">
      <use xlink:href="#DejaVuSans-32"/>
     </g>
    </g>
   </g>
   <g id="xtick_14">
    <g id="line2d_16">
     <path d="M 735.02284 642.104391 
L 745.391111 644.326821 
" style="fill: none; stroke: #000000; stroke-width: 0.8; stroke-linecap: square"/>
    </g>
    <g id="text_15">
     <!-- 4 -->
     <g transform="translate(744.560556 669.254697) scale(0.16 -0.16)">
      <use xlink:href="#DejaVuSans-34"/>
     </g>
    </g>
   </g>
   <g id="text_16">
    <!-- x$\left[\sqrt{\frac{\hbar}{m\omega}}\right]$ -->
    <g transform="translate(661.163151 775.171516) rotate(-36.994697) scale(0.16 -0.16)">
     <defs>
      <path id="DejaVuSans-78" d="M 3513 3500 
L 2247 1797 
L 3578 0 
L 2900 0 
L 1881 1375 
L 863 0 
L 184 0 
L 1544 1831 
L 300 3500 
L 978 3500 
L 1906 2253 
L 2834 3500 
L 3513 3500 
z
" transform="scale(0.015625)"/>
      <path id="STIXSizeTwoSym-Regular-5b" d="M 2701 -1786 
L 1216 -1786 
L 1216 10022 
L 2701 10022 
L 2701 9766 
L 1702 9766 
L 1702 -1530 
L 2701 -1530 
L 2701 -1786 
z
" transform="scale(0.015625)"/>
      <path id="STIXSizeOneSym-Regular-221a" d="M 6970 9933 
L 3373 -1888 
L 3104 -1888 
L 1626 2918 
Q 1555 3149 1465 3251 
Q 1376 3354 1229 3354 
Q 1011 3354 794 3181 
L 717 3309 
L 1766 4115 
L 1926 4115 
L 3379 -602 
L 3405 -602 
L 6605 9933 
L 6970 9933 
z
" transform="scale(0.015625)"/>
      <path id="DejaVuSans-Oblique-127" d="M 3634 2113 
L 3225 0 
L 2650 0 
L 3056 2094 
Q 3094 2291 3094 2450 
Q 3094 2688 3006 2838 
Q 2863 3084 2475 3084 
Q 2009 3084 1681 2788 
Q 1356 2491 1256 1978 
L 872 0 
L 294 0 
L 1066 3969 
L 675 3969 
L 775 4481 
L 1166 4481 
L 1238 4863 
L 1816 4863 
L 1744 4481 
L 2844 4481 
L 2744 3969 
L 1644 3969 
L 1447 2956 
Q 1713 3272 2025 3428 
Q 2331 3584 2700 3584 
Q 3300 3584 3538 3213 
Q 3688 2975 3688 2606 
Q 3688 2381 3634 2113 
z
" transform="scale(0.015625)"/>
      <path id="DejaVuSans-Oblique-6d" d="M 5747 2113 
L 5338 0 
L 4763 0 
L 5166 2094 
Q 5191 2228 5203 2325 
Q 5216 2422 5216 2491 
Q 5216 2772 5059 2928 
Q 4903 3084 4622 3084 
Q 4203 3084 3875 2770 
Q 3547 2456 3450 1953 
L 3066 0 
L 2491 0 
L 2900 2094 
Q 2925 2209 2937 2307 
Q 2950 2406 2950 2484 
Q 2950 2769 2794 2926 
Q 2638 3084 2363 3084 
Q 1938 3084 1609 2770 
Q 1281 2456 1184 1953 
L 800 0 
L 225 0 
L 909 3500 
L 1484 3500 
L 1375 2956 
Q 1609 3263 1923 3423 
Q 2238 3584 2597 3584 
Q 2978 3584 3223 3384 
Q 3469 3184 3519 2828 
Q 3781 3197 4126 3390 
Q 4472 3584 4856 3584 
Q 5306 3584 5551 3325 
Q 5797 3066 5797 2591 
Q 5797 2488 5784 2364 
Q 5772 2241 5747 2113 
z
" transform="scale(0.015625)"/>
      <path id="DejaVuSans-Oblique-3c9" d="M 1369 -91 
Q 72 -91 434 1766 
Q 575 2500 1256 3500 
L 1875 3500 
Q 1231 2500 1088 1750 
Q 819 397 1519 397 
Q 2166 397 2478 2078 
L 3009 2078 
Q 2669 388 3316 397 
Q 4013 403 4275 1750 
Q 4419 2500 4169 3500 
L 4788 3500 
Q 5075 2500 4934 1766 
Q 4578 -94 3278 -91 
Q 2428 -88 2503 844 
Q 2194 -91 1369 -91 
z
" transform="scale(0.015625)"/>
      <path id="STIXSizeTwoSym-Regular-5d" d="M 1722 -1786 
L 237 -1786 
L 237 -1530 
L 1235 -1530 
L 1235 9766 
L 237 9766 
L 237 10022 
L 1722 10022 
L 1722 -1786 
z
" transform="scale(0.015625)"/>
     </defs>
     <use xlink:href="#DejaVuSans-78" transform="translate(0 0.775)"/>
     <use xlink:href="#STIXSizeTwoSym-Regular-5b" transform="translate(59.179688 -2.421875) scale(0.877541)"/>
     <use xlink:href="#STIXSizeOneSym-Regular-221a" transform="translate(99.456924 -2) scale(0.84415)"/>
     <use xlink:href="#DejaVuSans-Oblique-127" transform="translate(240.174332 44.560937) scale(0.7)"/>
     <use xlink:href="#DejaVuSans-Oblique-6d" transform="translate(201.174332 -25.889062) scale(0.7)"/>
     <use xlink:href="#DejaVuSans-Oblique-3c9" transform="translate(269.362808 -25.889062) scale(0.7)"/>
     <use xlink:href="#STIXSizeTwoSym-Regular-5d" transform="translate(352.980972 -2.421875) scale(0.877541)"/>
     <path d="M 188.674332 122.5 
L 188.674332 128.75 
L 352.980972 128.75 
L 352.980972 122.5 
L 188.674332 122.5 
z
"/>
     <path d="M 201.174332 19.560937 
L 201.174332 25.810937 
L 327.980972 25.810937 
L 327.980972 19.560937 
L 201.174332 19.560937 
z
"/>
    </g>
   </g>
  </g>
  <g id="axis3d_3">
   <g id="line2d_17">
    <path d="M 759.629284 626.907652 
L 771.871726 169.540985 
" style="fill: none; stroke: #000000; stroke-width: 0.8; stroke-linecap: square"/>
   </g>
   <g id="xtick_15">
    <g id="line2d_18">
     <path d="M 756.19736 626.180159 
L 766.501329 628.364374 
" style="fill: none; stroke: #000000; stroke-width: 0.8; stroke-linecap: square"/>
    </g>
    <g id="text_17">
     <!-- −1.00 -->
     <g transform="translate(768.972549 635.513084) scale(0.16 -0.16)">
      <use xlink:href="#DejaVuSans-2212"/>
      <use xlink:href="#DejaVuSans-31" transform="translate(83.789062 0)"/>
      <use xlink:href="#DejaVuSans-2e" transform="translate(147.412109 0)"/>
      <use xlink:href="#DejaVuSans-30" transform="translate(179.199219 0)"/>
      <use xlink:href="#DejaVuSans-30" transform="translate(242.822266 0)"/>
     </g>
    </g>
   </g>
   <g id="xtick_16">
    <g id="line2d_19">
     <path d="M 757.66268 570.85024 
L 768.015359 572.978042 
" style="fill: none; stroke: #000000; stroke-width: 0.8; stroke-linecap: square"/>
    </g>
    <g id="text_18">
     <!-- −0.75 -->
     <g transform="translate(770.605057 580.25615) scale(0.16 -0.16)">
      <use xlink:href="#DejaVuSans-2212"/>
      <use xlink:href="#DejaVuSans-30" transform="translate(83.789062 0)"/>
      <use xlink:href="#DejaVuSans-2e" transform="translate(147.412109 0)"/>
      <use xlink:href="#DejaVuSans-37" transform="translate(179.199219 0)"/>
      <use xlink:href="#DejaVuSans-35" transform="translate(242.822266 0)"/>
     </g>
    </g>
   </g>
   <g id="xtick_17">
    <g id="line2d_20">
     <path d="M 759.1414 515.014376 
L 769.543251 517.08464 
" style="fill: none; stroke: #000000; stroke-width: 0.8; stroke-linecap: square"/>
    </g>
    <g id="text_19">
     <!-- −0.50 -->
     <g transform="translate(772.252469 524.494727) scale(0.16 -0.16)">
      <use xlink:href="#DejaVuSans-2212"/>
      <use xlink:href="#DejaVuSans-30" transform="translate(83.789062 0)"/>
      <use xlink:href="#DejaVuSans-2e" transform="translate(147.412109 0)"/>
      <use xlink:href="#DejaVuSans-35" transform="translate(179.199219 0)"/>
      <use xlink:href="#DejaVuSans-30" transform="translate(242.822266 0)"/>
     </g>
    </g>
   </g>
   <g id="xtick_18">
    <g id="line2d_21">
     <path d="M 760.633704 458.665597 
L 771.085195 460.677172 
" style="fill: none; stroke: #000000; stroke-width: 0.8; stroke-linecap: square"/>
    </g>
    <g id="text_20">
     <!-- −0.25 -->
     <g transform="translate(773.914991 468.221873) scale(0.16 -0.16)">
      <use xlink:href="#DejaVuSans-2212"/>
      <use xlink:href="#DejaVuSans-30" transform="translate(83.789062 0)"/>
      <use xlink:href="#DejaVuSans-2e" transform="translate(147.412109 0)"/>
      <use xlink:href="#DejaVuSans-32" transform="translate(179.199219 0)"/>
      <use xlink:href="#DejaVuSans-35" transform="translate(242.822266 0)"/>
     </g>
    </g>
   </g>
   <g id="xtick_19">
    <g id="line2d_22">
     <path d="M 762.139779 401.796801 
L 772.641387 403.748514 
" style="fill: none; stroke: #000000; stroke-width: 0.8; stroke-linecap: square"/>
    </g>
    <g id="text_21">
     <!-- 0.00 -->
     <g transform="translate(782.296582 411.430521) scale(0.16 -0.16)">
      <use xlink:href="#DejaVuSans-30"/>
      <use xlink:href="#DejaVuSans-2e" transform="translate(63.623047 0)"/>
      <use xlink:href="#DejaVuSans-30" transform="translate(95.410156 0)"/>
      <use xlink:href="#DejaVuSans-30" transform="translate(159.033203 0)"/>
     </g>
    </g>
   </g>
   <g id="xtick_20">
    <g id="line2d_23">
     <path d="M 763.659818 344.400759 
L 774.212024 346.291408 
" style="fill: none; stroke: #000000; stroke-width: 0.8; stroke-linecap: square"/>
    </g>
    <g id="text_22">
     <!-- 0.25 -->
     <g transform="translate(783.989953 354.113471) scale(0.16 -0.16)">
      <use xlink:href="#DejaVuSans-30"/>
      <use xlink:href="#DejaVuSans-2e" transform="translate(63.623047 0)"/>
      <use xlink:href="#DejaVuSans-32" transform="translate(95.410156 0)"/>
      <use xlink:href="#DejaVuSans-35" transform="translate(159.033203 0)"/>
     </g>
    </g>
   </g>
   <g id="xtick_21">
    <g id="line2d_24">
     <path d="M 765.194015 286.470102 
L 775.797308 288.298462 
" style="fill: none; stroke: #000000; stroke-width: 0.8; stroke-linecap: square"/>
    </g>
    <g id="text_23">
     <!-- 0.50 -->
     <g transform="translate(785.699073 296.26339) scale(0.16 -0.16)">
      <use xlink:href="#DejaVuSans-30"/>
      <use xlink:href="#DejaVuSans-2e" transform="translate(63.623047 0)"/>
      <use xlink:href="#DejaVuSans-35" transform="translate(95.410156 0)"/>
      <use xlink:href="#DejaVuSans-30" transform="translate(159.033203 0)"/>
     </g>
    </g>
   </g>
   <g id="xtick_22">
    <g id="line2d_25">
     <path d="M 766.742569 227.997326 
L 777.397446 229.762145 
" style="fill: none; stroke: #000000; stroke-width: 0.8; stroke-linecap: square"/>
    </g>
    <g id="text_24">
     <!-- 0.75 -->
     <g transform="translate(787.424161 237.872808) scale(0.16 -0.16)">
      <use xlink:href="#DejaVuSans-30"/>
      <use xlink:href="#DejaVuSans-2e" transform="translate(63.623047 0)"/>
      <use xlink:href="#DejaVuSans-37" transform="translate(95.410156 0)"/>
      <use xlink:href="#DejaVuSans-35" transform="translate(159.033203 0)"/>
     </g>
    </g>
   </g>
   <g id="xtick_23">
    <g id="line2d_26">
     <path d="M 768.305683 168.974786 
L 779.012648 170.674785 
" style="fill: none; stroke: #000000; stroke-width: 0.8; stroke-linecap: square"/>
    </g>
    <g id="text_25">
     <!-- 1.00 -->
     <g transform="translate(789.165442 178.934114) scale(0.16 -0.16)">
      <use xlink:href="#DejaVuSans-31"/>
      <use xlink:href="#DejaVuSans-2e" transform="translate(63.623047 0)"/>
      <use xlink:href="#DejaVuSans-30" transform="translate(95.410156 0)"/>
      <use xlink:href="#DejaVuSans-30" transform="translate(159.033203 0)"/>
     </g>
    </g>
   </g>
   <g id="text_26">
    <!-- $Ψ_r(x,t)$ -->
    <g transform="translate(838.132422 423.340145) rotate(-88.466716) scale(0.16 -0.16)">
     <defs>
      <path id="DejaVuSans-Oblique-72" d="M 2853 2969 
Q 2766 3016 2653 3041 
Q 2541 3066 2413 3066 
Q 1953 3066 1609 2717 
Q 1266 2369 1153 1784 
L 800 0 
L 225 0 
L 909 3500 
L 1484 3500 
L 1375 2956 
Q 1603 3259 1920 3421 
Q 2238 3584 2597 3584 
Q 2691 3584 2781 3573 
Q 2872 3563 2963 3538 
L 2853 2969 
z
" transform="scale(0.015625)"/>
     </defs>
     <use xlink:href="#DejaVuSans-3a8" transform="translate(0 0.125)"/>
     <use xlink:href="#DejaVuSans-Oblique-72" transform="translate(79.667969 -16.28125) scale(0.7)"/>
     <use xlink:href="#DejaVuSans-28" transform="translate(111.181641 0.125)"/>
     <use xlink:href="#DejaVuSans-Oblique-78" transform="translate(150.195312 0.125)"/>
     <use xlink:href="#DejaVuSans-2c" transform="translate(209.375 0.125)"/>
     <use xlink:href="#DejaVuSans-Oblique-74" transform="translate(260.644531 0.125)"/>
     <use xlink:href="#DejaVuSans-29" transform="translate(299.853516 0.125)"/>
    </g>
   </g>
  </g>
  <g id="axes_1">
   <g id="line2d_27">
    <path d="M 305.402383 509.643114 
L 308.13237 508.03774 
L 310.852444 506.436469 
L 313.563235 504.839432 
L 316.265303 503.246874 
L 318.959196 501.658471 
L 321.645433 500.073789 
L 324.324436 498.491849 
L 326.996683 496.911052 
L 329.662422 495.329258 
L 332.321939 493.743326 
L 334.975283 492.148956 
L 337.622663 490.540806 
L 340.264157 488.911699 
L 342.899814 487.252705 
L 345.529816 485.552602 
L 348.154484 483.797637 
L 350.774295 481.970898 
L 353.390316 480.052224 
L 356.003838 478.017435 
L 358.616891 475.838157 
L 361.232133 473.481379 
L 363.853146 470.909266 
L 366.484221 468.079089 
L 369.130346 464.94316 
L 371.797077 461.449305 
L 374.490397 457.541693 
L 377.215832 453.161669 
L 379.978357 448.249812 
L 382.781626 442.747909 
L 385.627094 436.601819 
L 388.513695 429.765379 
L 391.437415 422.204778 
L 394.391118 413.903289 
L 397.364537 404.866643 
L 400.345173 395.12849 
L 403.319149 384.754895 
L 406.271768 373.846892 
L 409.189003 362.541956 
L 412.058304 351.011517 
L 414.869505 339.455546 
L 417.615265 328.095157 
L 420.291464 317.16171 
L 422.897845 306.886193 
L 425.437354 297.488195 
L 427.916361 289.166633 
L 430.343387 282.091959 
L 432.729089 276.401659 
L 435.084103 272.196316 
L 437.41784 269.538447 
L 439.737699 268.451471 
L 442.047345 268.920124 
L 444.347212 270.890448 
L 446.634363 274.271761 
L 448.903211 278.938202 
L 451.147009 284.732398 
L 453.35918 291.470734 
L 455.535023 298.94964 
L 457.672397 306.953759 
L 459.773172 315.265182 
L 461.84286 323.672382 
L 463.890472 331.978759 
L 465.927479 340.01003 
L 467.966635 347.619166 
L 470.020624 354.689448 
L 472.100583 361.135348 
L 474.215339 366.901274 
L 476.370533 371.959108 
L 478.568981 376.304855 
L 480.810373 379.954167 
L 483.091925 382.93874 
L 485.409181 385.301556 
L 487.756695 387.093839 
L 490.128526 388.371175 
L 492.51897 389.191173 
L 494.922669 389.610916 
L 497.335216 389.685531 
L 499.752807 389.466581 
L 502.172512 389.001418 
L 504.59209 388.332504 
L 507.009959 387.497252 
L 509.424769 386.52822 
L 511.835604 385.452821 
L 514.241794 384.294312 
L 516.642481 383.071536 
L 519.037249 381.800012 
L 521.425403 380.492023 
L 523.806575 379.157249 
L 526.18019 377.803351 
L 528.545896 376.436182 
L 530.903223 375.060156 
L 533.252004 373.678768 
L 535.592018 372.294594 
L 537.92321 370.9098 
L 540.245558 369.525941 
L 542.559148 368.144276 
L 544.864161 366.765842 
L 547.160765 365.391567 
L 549.449171 364.022115 
L 551.729717 362.658044 
" clip-path="url(#p56008bf13d)" style="fill: none; stroke: #000000; stroke-width: 1.5; stroke-linecap: square"/>
   </g>
   <g id="line2d_28">
    <path d="M 305.054059 509.570171 
L 307.783816 507.964841 
L 310.508411 506.364606 
L 313.227883 504.769471 
L 315.94222 503.179558 
L 318.651458 501.594433 
L 321.355579 500.013548 
L 324.054613 498.435842 
L 326.748535 496.859608 
L 329.437365 495.28266 
L 332.121076 493.70179 
L 334.799657 492.112684 
L 337.473088 490.509954 
L 340.141338 488.886398 
L 342.804371 487.233069 
L 345.462141 485.538698 
L 348.114594 483.789453 
L 350.761664 481.96831 
L 353.40328 480.054877 
L 356.039363 478.024692 
L 358.669824 475.848952 
L 361.294575 473.494093 
L 363.913524 470.921537 
L 366.526586 468.087681 
L 369.13369 464.943837 
L 371.734765 461.436725 
L 374.329784 457.509355 
L 376.918751 453.102031 
L 379.501713 448.154444 
L 382.078774 442.607797 
L 384.650106 436.407852 
L 387.215956 429.508896 
L 389.776655 421.878184 
L 392.332617 413.500689 
L 394.884344 404.384453 
L 397.43241 394.565833 
L 399.977448 384.1138 
L 402.520126 373.13235 
L 405.061098 361.761662 
L 407.600984 350.175448 
L 410.140308 338.575376 
L 412.679466 327.183602 
L 415.218684 316.231847 
L 417.758 305.950699 
L 420.297247 296.55876 
L 422.836064 288.25338 
L 425.373915 281.203123 
L 427.910106 275.543288 
L 430.44383 271.37236 
L 432.974199 268.751049 
L 435.500288 267.70138 
L 438.021154 268.207393 
L 440.535907 270.215041 
L 443.043722 273.634174 
L 445.543883 278.339968 
L 448.03581 284.176335 
L 450.519087 290.960962 
L 452.993475 298.491292 
L 455.458917 306.552551 
L 457.915536 314.926705 
L 460.363618 323.401426 
L 462.803583 331.778638 
L 465.235952 339.882069 
L 467.661317 347.562405 
L 470.080289 354.700588 
L 472.493482 361.208992 
L 474.901478 367.030322 
L 477.304802 372.135345 
L 479.70391 376.519477 
L 482.099183 380.198387 
L 484.49092 383.204266 
L 486.879344 385.580929 
L 489.264606 387.380628 
L 491.646794 388.660083 
L 494.025941 389.477998 
L 496.402038 389.89248 
L 498.775044 389.959503 
L 501.144881 389.731353 
L 503.51147 389.25594 
L 505.874717 388.576145 
L 508.234528 387.729676 
L 510.590809 386.749336 
L 512.943473 385.662704 
L 515.292441 384.493152 
L 517.637644 383.259677 
L 519.979023 381.977866 
L 522.316529 380.660125 
L 524.650125 379.316197 
L 526.979778 377.953844 
L 529.305467 376.57898 
L 531.627173 375.1961 
L 533.944892 373.808729 
L 536.258599 372.419477 
L 538.568312 371.030518 
L 540.874005 369.643407 
L 543.175702 368.259386 
L 545.473381 366.879452 
L 547.767065 365.504503 
L 550.056736 364.135157 
L 552.342419 362.771912 
" clip-path="url(#p56008bf13d)" style="fill: none; stroke: #0000ff; stroke-width: 1.5; stroke-linecap: square"/>
   </g>
   <g id="line2d_29">
    <path d="M 305.403665 509.765264 
L 308.133461 508.143881 
L 310.85333 506.52458 
L 313.563904 504.907464 
L 316.265743 503.292662 
L 318.959401 501.68026 
L 321.645402 500.070377 
L 324.324178 498.463075 
L 326.996224 496.858465 
L 329.661804 495.256572 
L 332.321227 493.657465 
L 334.974574 492.061145 
L 337.622088 490.467651 
L 340.263892 488.876999 
L 342.900085 487.289197 
L 345.53091 485.704285 
L 348.156757 484.122332 
L 350.77818 482.543441 
L 353.396333 480.967835 
L 356.012602 479.395787 
L 358.629116 477.827718 
L 361.248637 476.264175 
L 363.87485 474.705894 
L 366.51214 473.153745 
L 369.165576 471.608731 
L 371.840772 470.071975 
L 374.543732 468.544658 
L 377.279958 467.027859 
L 380.054337 465.522526 
L 382.870364 464.029323 
L 385.72925 462.548449 
L 388.629599 461.079577 
L 391.566972 459.62177 
L 394.53373 458.173452 
L 397.519037 456.732414 
L 400.509786 455.296002 
L 403.491483 453.861297 
L 406.448854 452.425236 
L 409.367366 450.984927 
L 412.234078 449.537802 
L 415.038578 448.081812 
L 417.773441 446.615512 
L 420.434637 445.138137 
L 423.022151 443.649726 
L 425.539319 442.15098 
L 427.993002 440.643296 
L 430.392308 439.128507 
L 432.748536 437.60887 
L 435.073018 436.08664 
L 437.375903 434.563825 
L 439.665367 433.042033 
L 441.945874 431.522145 
L 444.218656 430.004392 
L 446.481532 428.48834 
L 448.729592 426.973019 
L 450.956623 425.457213 
L 453.156408 423.939708 
L 455.324394 422.41962 
L 457.458375 420.896531 
L 459.559957 419.370764 
L 461.634218 417.843314 
L 463.689624 416.315833 
L 465.737033 414.790428 
L 467.788574 413.269438 
L 469.856327 411.755192 
L 471.950882 410.24971 
L 474.080581 408.754571 
L 476.25066 407.27075 
L 478.463597 405.798683 
L 480.718814 404.338218 
L 483.013327 402.888741 
L 485.342533 401.449328 
L 487.700893 400.018883 
L 490.08242 398.596227 
L 492.481402 397.180241 
L 494.892512 395.769883 
L 497.311395 394.364298 
L 499.734326 392.962768 
L 502.158462 391.564734 
L 504.581661 390.169775 
L 507.002443 388.7776 
L 509.419555 387.387961 
L 511.832175 386.000694 
L 514.239721 384.61568 
L 516.64141 383.232764 
L 519.036894 381.851872 
L 521.425538 380.472878 
L 523.807019 379.095715 
L 526.180806 377.720275 
L 528.546578 376.346493 
L 530.903892 374.97428 
L 533.252604 373.603599 
L 535.59251 372.234419 
L 537.92357 370.866711 
L 540.245775 369.500486 
L 542.559223 368.135738 
L 544.864102 366.772516 
L 547.16059 365.41083 
L 549.448906 364.050732 
L 551.729393 362.692265 
" clip-path="url(#p56008bf13d)" style="fill: none; stroke: #ff0000; stroke-width: 1.5; stroke-linecap: square"/>
   </g>
   <g id="line2d_30">
    <path d="M 433.884402 256.466088 
L 427.250088 255.639856 
L 420.590583 255.077071 
L 413.927003 254.789269 
L 407.279622 254.785795 
L 400.668402 255.07441 
L 394.112271 255.660783 
L 387.629208 256.549089 
L 381.236226 257.741675 
L 374.949304 259.239315 
L 368.783218 261.041338 
L 362.751876 263.145809 
L 356.868001 265.549541 
L 351.143482 268.248111 
L 345.589209 271.236123 
L 340.21525 274.507275 
L 335.030824 278.054349 
L 330.044289 281.869371 
L 325.263397 285.943607 
L 320.695139 290.267846 
L 316.345844 294.83221 
L 312.221229 299.626441 
L 308.326519 304.639847 
L 304.666259 309.861425 
L 301.244608 315.279838 
L 298.065208 320.883876 
L 295.131207 326.661886 
L 292.445588 332.602315 
L 290.010728 338.693784 
L 287.828689 344.924494 
L 285.901368 351.28326 
L 284.230257 357.758701 
L 282.816638 364.339547 
L 281.661544 371.014937 
L 280.765594 377.773781 
L 280.129436 384.605441 
L 279.753238 391.499038 
L 279.636947 398.444081 
L 279.780385 405.430047 
L 280.182919 412.446343 
L 280.843727 419.482498 
L 281.761622 426.527986 
L 282.93506 433.572228 
L 284.362173 440.604593 
L 286.040715 447.614288 
L 287.968096 454.590618 
L 290.141173 461.52251 
L 292.556478 468.399017 
L 295.210086 475.208976 
L 298.097673 481.941271 
L 301.214261 488.5846 
L 304.554727 495.127782 
L 308.113343 501.559511 
L 311.883957 507.868642 
L 315.859968 514.044194 
L 320.03453 520.075118 
L 324.40023 525.950782 
L 328.949474 531.660908 
L 333.674249 537.195137 
L 338.56632 542.54386 
L 343.616987 547.697604 
L 348.817661 552.647598 
L 354.159385 557.385246 
L 359.632777 561.902567 
L 365.228689 566.192145 
L 370.937685 570.247075 
L 376.750182 574.060964 
L 382.656609 577.628022 
L 388.64719 580.942909 
L 394.712155 584.000916 
L 400.841732 586.7977 
L 407.026142 589.329578 
L 413.255478 591.593378 
L 419.519834 593.586249 
L 425.809386 595.3059 
L 432.114202 596.750485 
L 438.424279 597.918374 
L 444.729785 598.808531 
L 451.020806 599.420198 
L 457.287325 599.752896 
L 463.519453 599.806477 
L 469.707376 599.581178 
L 475.841035 599.077443 
L 481.910619 598.29596 
L 487.906175 597.237605 
L 493.817864 595.903774 
L 499.635872 594.295749 
L 505.350493 592.415313 
L 510.951892 590.264385 
L 516.430451 587.8452 
L 521.776655 585.160297 
L 526.98101 582.21231 
L 532.034072 579.004285 
L 536.926766 575.539718 
L 541.64995 571.822202 
L 546.194734 567.855964 
L 550.55241 563.645395 
L 554.714648 559.195362 
L 558.673171 554.511388 
L 562.419996 549.599167 
L 565.947412 544.465273 
L 569.248227 539.116551 
L 572.315347 533.560505 
L 575.142164 527.805298 
L 577.722434 521.859657 
L 580.050255 515.733059 
L 582.120322 509.435519 
L 583.927583 502.977753 
L 585.467476 496.371276 
L 586.736045 489.628166 
L 587.729779 482.761142 
L 588.445706 475.783639 
L 588.881336 468.709597 
L 589.034692 461.553584 
L 588.904467 454.330667 
L 588.489972 447.056448 
L 587.790856 439.746796 
L 586.807811 432.417936 
L 585.541556 425.086225 
L 583.994046 417.768586 
L 582.167465 410.481513 
L 580.064775 403.241748 
L 577.689697 396.065826 
L 575.04633 388.969904 
L 572.139848 381.970087 
L 568.975699 375.081922 
L 565.560325 368.320376 
L 561.900713 361.700052 
L 558.004578 355.234635 
L 553.88022 348.93708 
L 549.536841 342.819893 
L 544.984085 336.894306 
L 540.232405 331.170579 
L 535.292805 325.658399 
L 530.176924 320.365993 
L 524.896993 315.301048 
L 519.465883 310.469781 
L 513.896608 305.877331 
L 508.203141 301.528187 
L 502.399254 297.425147 
L 496.499572 293.570485 
L 490.518723 289.965105 
L 484.471362 286.609106 
L 478.37239 283.501119 
L 472.236664 280.639399 
L 466.078841 278.02084 
L 459.913423 275.641788 
L 453.754712 273.497503 
L 447.616545 271.582574 
L 441.512025 269.890879 
L 438.476549 269.126609 
L 438.476549 269.126609 
" clip-path="url(#p56008bf13d)" style="fill: none; stroke-dasharray: 5.55,2.4; stroke-dashoffset: 0; stroke: #000000; stroke-width: 1.5"/>
   </g>
   <g id="line2d_31">
    <path d="M 434.237838 268.375829 
L 438.476549 269.126609 
" clip-path="url(#p56008bf13d)" style="fill: none; stroke-dasharray: 9.6,2.4,1.5,2.4; stroke-dashoffset: 0; stroke: #0000ff; stroke-width: 1.5"/>
   </g>
   <g id="line2d_32">
    <path d="M 438.420778 433.782805 
L 438.476549 269.126609 
" clip-path="url(#p56008bf13d)" style="fill: none; stroke-dasharray: 9.6,2.4,1.5,2.4; stroke-dashoffset: 0; stroke: #ff0000; stroke-width: 1.5"/>
   </g>
   <g id="text_27">
    <!-- Complex plot of the Wavefunction -->
    <g transform="translate(252.907812 22.396875) scale(0.2 -0.2)">
     <defs>
      <path id="DejaVuSans-43" d="M 4122 4306 
L 4122 3641 
Q 3803 3938 3442 4084 
Q 3081 4231 2675 4231 
Q 1875 4231 1450 3742 
Q 1025 3253 1025 2328 
Q 1025 1406 1450 917 
Q 1875 428 2675 428 
Q 3081 428 3442 575 
Q 3803 722 4122 1019 
L 4122 359 
Q 3791 134 3420 21 
Q 3050 -91 2638 -91 
Q 1578 -91 968 557 
Q 359 1206 359 2328 
Q 359 3453 968 4101 
Q 1578 4750 2638 4750 
Q 3056 4750 3426 4639 
Q 3797 4528 4122 4306 
z
" transform="scale(0.015625)"/>
      <path id="DejaVuSans-6f" d="M 1959 3097 
Q 1497 3097 1228 2736 
Q 959 2375 959 1747 
Q 959 1119 1226 758 
Q 1494 397 1959 397 
Q 2419 397 2687 759 
Q 2956 1122 2956 1747 
Q 2956 2369 2687 2733 
Q 2419 3097 1959 3097 
z
M 1959 3584 
Q 2709 3584 3137 3096 
Q 3566 2609 3566 1747 
Q 3566 888 3137 398 
Q 2709 -91 1959 -91 
Q 1206 -91 779 398 
Q 353 888 353 1747 
Q 353 2609 779 3096 
Q 1206 3584 1959 3584 
z
" transform="scale(0.015625)"/>
      <path id="DejaVuSans-6d" d="M 3328 2828 
Q 3544 3216 3844 3400 
Q 4144 3584 4550 3584 
Q 5097 3584 5394 3201 
Q 5691 2819 5691 2113 
L 5691 0 
L 5113 0 
L 5113 2094 
Q 5113 2597 4934 2840 
Q 4756 3084 4391 3084 
Q 3944 3084 3684 2787 
Q 3425 2491 3425 1978 
L 3425 0 
L 2847 0 
L 2847 2094 
Q 2847 2600 2669 2842 
Q 2491 3084 2119 3084 
Q 1678 3084 1418 2786 
Q 1159 2488 1159 1978 
L 1159 0 
L 581 0 
L 581 3500 
L 1159 3500 
L 1159 2956 
Q 1356 3278 1631 3431 
Q 1906 3584 2284 3584 
Q 2666 3584 2933 3390 
Q 3200 3197 3328 2828 
z
" transform="scale(0.015625)"/>
      <path id="DejaVuSans-70" d="M 1159 525 
L 1159 -1331 
L 581 -1331 
L 581 3500 
L 1159 3500 
L 1159 2969 
Q 1341 3281 1617 3432 
Q 1894 3584 2278 3584 
Q 2916 3584 3314 3078 
Q 3713 2572 3713 1747 
Q 3713 922 3314 415 
Q 2916 -91 2278 -91 
Q 1894 -91 1617 61 
Q 1341 213 1159 525 
z
M 3116 1747 
Q 3116 2381 2855 2742 
Q 2594 3103 2138 3103 
Q 1681 3103 1420 2742 
Q 1159 2381 1159 1747 
Q 1159 1113 1420 752 
Q 1681 391 2138 391 
Q 2594 391 2855 752 
Q 3116 1113 3116 1747 
z
" transform="scale(0.015625)"/>
      <path id="DejaVuSans-6c" d="M 603 4863 
L 1178 4863 
L 1178 0 
L 603 0 
L 603 4863 
z
" transform="scale(0.015625)"/>
      <path id="DejaVuSans-65" d="M 3597 1894 
L 3597 1613 
L 953 1613 
Q 991 1019 1311 708 
Q 1631 397 2203 397 
Q 2534 397 2845 478 
Q 3156 559 3463 722 
L 3463 178 
Q 3153 47 2828 -22 
Q 2503 -91 2169 -91 
Q 1331 -91 842 396 
Q 353 884 353 1716 
Q 353 2575 817 3079 
Q 1281 3584 2069 3584 
Q 2775 3584 3186 3129 
Q 3597 2675 3597 1894 
z
M 3022 2063 
Q 3016 2534 2758 2815 
Q 2500 3097 2075 3097 
Q 1594 3097 1305 2825 
Q 1016 2553 972 2059 
L 3022 2063 
z
" transform="scale(0.015625)"/>
      <path id="DejaVuSans-20" transform="scale(0.015625)"/>
      <path id="DejaVuSans-74" d="M 1172 4494 
L 1172 3500 
L 2356 3500 
L 2356 3053 
L 1172 3053 
L 1172 1153 
Q 1172 725 1289 603 
Q 1406 481 1766 481 
L 2356 481 
L 2356 0 
L 1766 0 
Q 1100 0 847 248 
Q 594 497 594 1153 
L 594 3053 
L 172 3053 
L 172 3500 
L 594 3500 
L 594 4494 
L 1172 4494 
z
" transform="scale(0.015625)"/>
      <path id="DejaVuSans-66" d="M 2375 4863 
L 2375 4384 
L 1825 4384 
Q 1516 4384 1395 4259 
Q 1275 4134 1275 3809 
L 1275 3500 
L 2222 3500 
L 2222 3053 
L 1275 3053 
L 1275 0 
L 697 0 
L 697 3053 
L 147 3053 
L 147 3500 
L 697 3500 
L 697 3744 
Q 697 4328 969 4595 
Q 1241 4863 1831 4863 
L 2375 4863 
z
" transform="scale(0.015625)"/>
      <path id="DejaVuSans-68" d="M 3513 2113 
L 3513 0 
L 2938 0 
L 2938 2094 
Q 2938 2591 2744 2837 
Q 2550 3084 2163 3084 
Q 1697 3084 1428 2787 
Q 1159 2491 1159 1978 
L 1159 0 
L 581 0 
L 581 4863 
L 1159 4863 
L 1159 2956 
Q 1366 3272 1645 3428 
Q 1925 3584 2291 3584 
Q 2894 3584 3203 3211 
Q 3513 2838 3513 2113 
z
" transform="scale(0.015625)"/>
      <path id="DejaVuSans-57" d="M 213 4666 
L 850 4666 
L 1831 722 
L 2809 4666 
L 3519 4666 
L 4500 722 
L 5478 4666 
L 6119 4666 
L 4947 0 
L 4153 0 
L 3169 4050 
L 2175 0 
L 1381 0 
L 213 4666 
z
" transform="scale(0.015625)"/>
      <path id="DejaVuSans-61" d="M 2194 1759 
Q 1497 1759 1228 1600 
Q 959 1441 959 1056 
Q 959 750 1161 570 
Q 1363 391 1709 391 
Q 2188 391 2477 730 
Q 2766 1069 2766 1631 
L 2766 1759 
L 2194 1759 
z
M 3341 1997 
L 3341 0 
L 2766 0 
L 2766 531 
Q 2569 213 2275 61 
Q 1981 -91 1556 -91 
Q 1019 -91 701 211 
Q 384 513 384 1019 
Q 384 1609 779 1909 
Q 1175 2209 1959 2209 
L 2766 2209 
L 2766 2266 
Q 2766 2663 2505 2880 
Q 2244 3097 1772 3097 
Q 1472 3097 1187 3025 
Q 903 2953 641 2809 
L 641 3341 
Q 956 3463 1253 3523 
Q 1550 3584 1831 3584 
Q 2591 3584 2966 3190 
Q 3341 2797 3341 1997 
z
" transform="scale(0.015625)"/>
      <path id="DejaVuSans-76" d="M 191 3500 
L 800 3500 
L 1894 563 
L 2988 3500 
L 3597 3500 
L 2284 0 
L 1503 0 
L 191 3500 
z
" transform="scale(0.015625)"/>
      <path id="DejaVuSans-75" d="M 544 1381 
L 544 3500 
L 1119 3500 
L 1119 1403 
Q 1119 906 1312 657 
Q 1506 409 1894 409 
Q 2359 409 2629 706 
Q 2900 1003 2900 1516 
L 2900 3500 
L 3475 3500 
L 3475 0 
L 2900 0 
L 2900 538 
Q 2691 219 2414 64 
Q 2138 -91 1772 -91 
Q 1169 -91 856 284 
Q 544 659 544 1381 
z
M 1991 3584 
L 1991 3584 
z
" transform="scale(0.015625)"/>
      <path id="DejaVuSans-6e" d="M 3513 2113 
L 3513 0 
L 2938 0 
L 2938 2094 
Q 2938 2591 2744 2837 
Q 2550 3084 2163 3084 
Q 1697 3084 1428 2787 
Q 1159 2491 1159 1978 
L 1159 0 
L 581 0 
L 581 3500 
L 1159 3500 
L 1159 2956 
Q 1366 3272 1645 3428 
Q 1925 3584 2291 3584 
Q 2894 3584 3203 3211 
Q 3513 2838 3513 2113 
z
" transform="scale(0.015625)"/>
      <path id="DejaVuSans-63" d="M 3122 3366 
L 3122 2828 
Q 2878 2963 2633 3030 
Q 2388 3097 2138 3097 
Q 1578 3097 1268 2742 
Q 959 2388 959 1747 
Q 959 1106 1268 751 
Q 1578 397 2138 397 
Q 2388 397 2633 464 
Q 2878 531 3122 666 
L 3122 134 
Q 2881 22 2623 -34 
Q 2366 -91 2075 -91 
Q 1284 -91 818 406 
Q 353 903 353 1747 
Q 353 2603 823 3093 
Q 1294 3584 2113 3584 
Q 2378 3584 2631 3529 
Q 2884 3475 3122 3366 
z
" transform="scale(0.015625)"/>
      <path id="DejaVuSans-69" d="M 603 3500 
L 1178 3500 
L 1178 0 
L 603 0 
L 603 3500 
z
M 603 4863 
L 1178 4863 
L 1178 4134 
L 603 4134 
L 603 4863 
z
" transform="scale(0.015625)"/>
     </defs>
     <use xlink:href="#DejaVuSans-43"/>
     <use xlink:href="#DejaVuSans-6f" transform="translate(69.824219 0)"/>
     <use xlink:href="#DejaVuSans-6d" transform="translate(131.005859 0)"/>
     <use xlink:href="#DejaVuSans-70" transform="translate(228.417969 0)"/>
     <use xlink:href="#DejaVuSans-6c" transform="translate(291.894531 0)"/>
     <use xlink:href="#DejaVuSans-65" transform="translate(319.677734 0)"/>
     <use xlink:href="#DejaVuSans-78" transform="translate(379.451172 0)"/>
     <use xlink:href="#DejaVuSans-20" transform="translate(438.630859 0)"/>
     <use xlink:href="#DejaVuSans-70" transform="translate(470.417969 0)"/>
     <use xlink:href="#DejaVuSans-6c" transform="translate(533.894531 0)"/>
     <use xlink:href="#DejaVuSans-6f" transform="translate(561.677734 0)"/>
     <use xlink:href="#DejaVuSans-74" transform="translate(622.859375 0)"/>
     <use xlink:href="#DejaVuSans-20" transform="translate(662.068359 0)"/>
     <use xlink:href="#DejaVuSans-6f" transform="translate(693.855469 0)"/>
     <use xlink:href="#DejaVuSans-66" transform="translate(755.037109 0)"/>
     <use xlink:href="#DejaVuSans-20" transform="translate(790.242188 0)"/>
     <use xlink:href="#DejaVuSans-74" transform="translate(822.029297 0)"/>
     <use xlink:href="#DejaVuSans-68" transform="translate(861.238281 0)"/>
     <use xlink:href="#DejaVuSans-65" transform="translate(924.617188 0)"/>
     <use xlink:href="#DejaVuSans-20" transform="translate(986.140625 0)"/>
     <use xlink:href="#DejaVuSans-57" transform="translate(1017.927734 0)"/>
     <use xlink:href="#DejaVuSans-61" transform="translate(1110.429688 0)"/>
     <use xlink:href="#DejaVuSans-76" transform="translate(1171.708984 0)"/>
     <use xlink:href="#DejaVuSans-65" transform="translate(1230.888672 0)"/>
     <use xlink:href="#DejaVuSans-66" transform="translate(1292.412109 0)"/>
     <use xlink:href="#DejaVuSans-75" transform="translate(1327.617188 0)"/>
     <use xlink:href="#DejaVuSans-6e" transform="translate(1390.996094 0)"/>
     <use xlink:href="#DejaVuSans-63" transform="translate(1454.375 0)"/>
     <use xlink:href="#DejaVuSans-74" transform="translate(1509.355469 0)"/>
     <use xlink:href="#DejaVuSans-69" transform="translate(1548.564453 0)"/>
     <use xlink:href="#DejaVuSans-6f" transform="translate(1576.347656 0)"/>
     <use xlink:href="#DejaVuSans-6e" transform="translate(1637.529297 0)"/>
    </g>
   </g>
   <g id="legend_1">
    <g id="patch_6">
     <path d="M 719.7125 112.166875 
L 827.6 112.166875 
Q 830.8 112.166875 830.8 108.966875 
L 830.8 39.596875 
Q 830.8 36.396875 827.6 36.396875 
L 719.7125 36.396875 
Q 716.5125 36.396875 716.5125 39.596875 
L 716.5125 108.966875 
Q 716.5125 112.166875 719.7125 112.166875 
z
" style="fill: #ffffff; opacity: 0.8; stroke: #cccccc; stroke-linejoin: miter"/>
    </g>
    <g id="line2d_33">
     <path d="M 722.9125 49.424375 
L 738.9125 49.424375 
L 754.9125 49.424375 
" style="fill: none; stroke: #000000; stroke-width: 1.5; stroke-linecap: square"/>
    </g>
    <g id="text_28">
     <!-- |Ψ(x,t)| -->
     <g transform="translate(767.7125 55.024375) scale(0.16 -0.16)">
      <defs>
       <path id="DejaVuSans-7c" d="M 1344 4891 
L 1344 -1509 
L 813 -1509 
L 813 4891 
L 1344 4891 
z
" transform="scale(0.015625)"/>
      </defs>
      <use xlink:href="#DejaVuSans-7c"/>
      <use xlink:href="#DejaVuSans-3a8" transform="translate(33.691406 0)"/>
      <use xlink:href="#DejaVuSans-28" transform="translate(112.402344 0)"/>
      <use xlink:href="#DejaVuSans-78" transform="translate(151.416016 0)"/>
      <use xlink:href="#DejaVuSans-2c" transform="translate(210.595703 0)"/>
      <use xlink:href="#DejaVuSans-74" transform="translate(242.382812 0)"/>
      <use xlink:href="#DejaVuSans-29" transform="translate(281.591797 0)"/>
      <use xlink:href="#DejaVuSans-7c" transform="translate(320.605469 0)"/>
     </g>
    </g>
    <g id="line2d_34">
     <path d="M 722.9125 73.354375 
L 738.9125 73.354375 
L 754.9125 73.354375 
" style="fill: none; stroke: #0000ff; stroke-width: 1.5; stroke-linecap: square"/>
    </g>
    <g id="text_29">
     <!-- $Ψ_r(x,t)$ -->
     <g transform="translate(767.7125 78.954375) scale(0.16 -0.16)">
      <use xlink:href="#DejaVuSans-3a8" transform="translate(0 0.125)"/>
      <use xlink:href="#DejaVuSans-Oblique-72" transform="translate(79.667969 -16.28125) scale(0.7)"/>
      <use xlink:href="#DejaVuSans-28" transform="translate(111.181641 0.125)"/>
      <use xlink:href="#DejaVuSans-Oblique-78" transform="translate(150.195312 0.125)"/>
      <use xlink:href="#DejaVuSans-2c" transform="translate(209.375 0.125)"/>
      <use xlink:href="#DejaVuSans-Oblique-74" transform="translate(260.644531 0.125)"/>
      <use xlink:href="#DejaVuSans-29" transform="translate(299.853516 0.125)"/>
     </g>
    </g>
    <g id="line2d_35">
     <path d="M 722.9125 96.839375 
L 738.9125 96.839375 
L 754.9125 96.839375 
" style="fill: none; stroke: #ff0000; stroke-width: 1.5; stroke-linecap: square"/>
    </g>
    <g id="text_30">
     <!-- $Ψ_i(x,t)$ -->
     <g transform="translate(767.7125 102.439375) scale(0.16 -0.16)">
      <use xlink:href="#DejaVuSans-3a8" transform="translate(0 0.125)"/>
      <use xlink:href="#DejaVuSans-Oblique-69" transform="translate(79.667969 -16.28125) scale(0.7)"/>
      <use xlink:href="#DejaVuSans-28" transform="translate(101.850586 0.125)"/>
      <use xlink:href="#DejaVuSans-Oblique-78" transform="translate(140.864258 0.125)"/>
      <use xlink:href="#DejaVuSans-2c" transform="translate(200.043945 0.125)"/>
      <use xlink:href="#DejaVuSans-Oblique-74" transform="translate(251.313477 0.125)"/>
      <use xlink:href="#DejaVuSans-29" transform="translate(290.522461 0.125)"/>
     </g>
    </g>
   </g>
  </g>
 </g>
 <defs>
  <clipPath id="p56008bf13d">
   <rect x="7.2" y="28.396875" width="831.6" height="831.6"/>
  </clipPath>
 </defs>
</svg>
